NotoSansCanadianAboriginal-Bold.ufo
<glyph name="dotlessi" format="2">
  <advance width="325"/>
  <unicode hex="0131"/>
  <note>
dotlessi
</note>
  <outline>
    <contour>
      <point x="67" y="0" type="line"/>
      <point x="258" y="0" type="line"/>
      <point x="258" y="553" type="line"/>
      <point x="67" y="553" type="line"/>
    </contour>
  </outline>
</glyph>
<glyph name="caron" format="2">
  <advance width="523"/>
  <unicode hex="02C7"/>
  <note>
caron
</note>
  <outline>
    <contour>
      <point x="166" y="606" type="curve"/>
      <point x="358" y="606" type="line"/>
      <point x="389" y="652"/>
      <point x="449" y="718"/>
      <point x="483" y="752" type="curve"/>
      <point x="483" y="766" type="line"/>
      <point x="359" y="766" type="line"/>
      <point x="324" y="746"/>
      <point x="296" y="723"/>
      <point x="261" y="693" type="curve"/>
      <point x="226" y="723"/>
      <point x="201" y="744"/>
      <point x="166" y="766" type="curve"/>
      <point x="40" y="766" type="line"/>
      <point x="40" y="752" type="line"/>
      <point x="78" y="716"/>
      <point x="136" y="652"/>
    </contour>
  </outline>
</glyph>
<glyph name="breve" format="2">
  <advance width="475"/>
  <unicode hex="02D8"/>
  <note>
breve
</note>
  <outline>
    <contour>
      <point x="236" y="606" type="curve" smooth="yes"/>
      <point x="357" y="606"/>
      <point x="428" y="678"/>
      <point x="435" y="787" type="curve"/>
      <point x="328" y="787" type="line"/>
      <point x="314" y="735"/>
      <point x="279" y="723"/>
      <point x="236" y="723" type="curve" smooth="yes"/>
      <point x="181" y="723"/>
      <point x="157" y="731"/>
      <point x="143" y="787" type="curve"/>
      <point x="40" y="787" type="line"/>
      <point x="45" y="675"/>
      <point x="109" y="606"/>
    </contour>
  </outline>
</glyph>
<glyph name="dotaccent" format="2">
  <advance width="283"/>
  <unicode hex="02D9"/>
  <note>
dotaccent
</note>
  <outline>
    <contour>
      <point x="141" y="607" type="curve" smooth="yes"/>
      <point x="196" y="607"/>
      <point x="243" y="625"/>
      <point x="243" y="691" type="curve" smooth="yes"/>
      <point x="243" y="759"/>
      <point x="196" y="776"/>
      <point x="141" y="776" type="curve" smooth="yes"/>
      <point x="85" y="776"/>
      <point x="40" y="759"/>
      <point x="40" y="691" type="curve" smooth="yes"/>
      <point x="40" y="625"/>
      <point x="85" y="607"/>
    </contour>
  </outline>
</glyph>
<glyph name="ring" format="2">
  <advance width="342"/>
  <unicode hex="02DA"/>
  <note>
ring
</note>
  <outline>
    <contour>
      <point x="169" y="604" type="curve" smooth="yes"/>
      <point x="243" y="604"/>
      <point x="302" y="651"/>
      <point x="302" y="728" type="curve" smooth="yes"/>
      <point x="302" y="804"/>
      <point x="242" y="851"/>
      <point x="169" y="851" type="curve" smooth="yes"/>
      <point x="92" y="851"/>
      <point x="40" y="804"/>
      <point x="40" y="727" type="curve" smooth="yes"/>
      <point x="40" y="651"/>
      <point x="92" y="604"/>
    </contour>
    <contour>
      <point x="169" y="686" type="curve" smooth="yes"/>
      <point x="142" y="686"/>
      <point x="128" y="703"/>
      <point x="128" y="727" type="curve" smooth="yes"/>
      <point x="128" y="752"/>
      <point x="146" y="768"/>
      <point x="169" y="768" type="curve" smooth="yes"/>
      <point x="192" y="768"/>
      <point x="210" y="752"/>
      <point x="210" y="727" type="curve" smooth="yes"/>
      <point x="210" y="703"/>
      <point x="192" y="686"/>
    </contour>
  </outline>
</glyph>
<glyph name="ogonek" format="2">
  <advance width="300"/>
  <unicode hex="02DB"/>
  <note>
ogonek
</note>
  <outline>
    <contour>
      <point x="175" y="-240" type="curve" smooth="yes"/>
      <point x="211" y="-240"/>
      <point x="238" y="-234"/>
      <point x="260" y="-227" type="curve"/>
      <point x="260" y="-119" type="line"/>
      <point x="246" y="-125"/>
      <point x="219" y="-130"/>
      <point x="202" y="-130" type="curve" smooth="yes"/>
      <point x="179" y="-130"/>
      <point x="164" y="-121"/>
      <point x="164" y="-97" type="curve" smooth="yes"/>
      <point x="164" y="-67"/>
      <point x="184" y="-43"/>
      <point x="229" y="0" type="curve"/>
      <point x="154" y="25" type="line"/>
      <point x="65" y="-35"/>
      <point x="40" y="-82"/>
      <point x="40" y="-127" type="curve" smooth="yes"/>
      <point x="40" y="-197"/>
      <point x="99" y="-240"/>
    </contour>
  </outline>
</glyph>
<glyph name="uni0307" format="2">
  <unicode hex="0307"/>
  <note>
uni0307
</note>
  <outline>
    <contour>
      <point x="140" y="776" type="curve" smooth="yes"/>
      <point x="84" y="776"/>
      <point x="39" y="759"/>
      <point x="39" y="691" type="curve" smooth="yes"/>
      <point x="39" y="625"/>
      <point x="84" y="607"/>
      <point x="140" y="607" type="curve" smooth="yes"/>
      <point x="195" y="607"/>
      <point x="242" y="625"/>
      <point x="242" y="691" type="curve" smooth="yes"/>
      <point x="242" y="759"/>
      <point x="195" y="776"/>
    </contour>
  </outline>
</glyph>
<glyph name="uni1400" format="2">
  <advance width="446"/>
  <unicode hex="1400"/>
  <note>
uni1400
</note>
  <outline>
    <contour>
      <point x="39" y="408" type="line"/>
      <point x="407" y="408" type="line"/>
      <point x="407" y="514" type="line"/>
      <point x="39" y="514" type="line"/>
    </contour>
    <contour>
      <point x="39" y="240" type="line"/>
      <point x="407" y="240" type="line"/>
      <point x="407" y="345" type="line"/>
      <point x="39" y="345" type="line"/>
    </contour>
  </outline>
</glyph>
<glyph name="uni1401" format="2">
  <advance width="842"/>
  <unicode hex="1401"/>
  <note>
uni1401
</note>
  <outline>
    <contour>
      <point x="393" y="-12" type="line"/>
      <point x="449" y="-12" type="line"/>
      <point x="803" y="669" type="line"/>
      <point x="803" y="714" type="line"/>
      <point x="39" y="714" type="line"/>
      <point x="39" y="669" type="line"/>
    </contour>
    <contour>
      <point x="421" y="279" type="line"/>
      <point x="282" y="558" type="line"/>
      <point x="560" y="558" type="line"/>
    </contour>
  </outline>
</glyph>
<glyph name="uni1403" format="2">
  <advance width="842"/>
  <unicode hex="1403"/>
  <note>
uni1403
</note>
  <outline>
    <contour>
      <point x="39" y="0" type="line"/>
      <point x="803" y="0" type="line"/>
      <point x="803" y="45" type="line"/>
      <point x="449" y="726" type="line"/>
      <point x="393" y="726" type="line"/>
      <point x="39" y="45" type="line"/>
    </contour>
    <contour>
      <point x="282" y="156" type="line"/>
      <point x="421" y="435" type="line"/>
      <point x="560" y="156" type="line"/>
    </contour>
  </outline>
</glyph>
<glyph name="uni1405" format="2">
  <advance width="728"/>
  <unicode hex="1405"/>
  <note>
uni1405
</note>
  <outline>
    <contour>
      <point x="59" y="-10" type="line"/>
      <point x="104" y="-10" type="line"/>
      <point x="699" y="336" type="line"/>
      <point x="699" y="381" type="line"/>
      <point x="104" y="725" type="line"/>
      <point x="59" y="725" type="line"/>
    </contour>
    <contour>
      <point x="213" y="231" type="line"/>
      <point x="213" y="485" type="line"/>
      <point x="450" y="358" type="line"/>
    </contour>
  </outline>
</glyph>
<glyph name="uni140A" format="2">
  <advance width="728"/>
  <unicode hex="140A"/>
  <note>
uni140A
</note>
  <outline>
    <contour>
      <point x="624" y="-10" type="line"/>
      <point x="669" y="-10" type="line"/>
      <point x="669" y="725" type="line"/>
      <point x="624" y="725" type="line"/>
      <point x="29" y="381" type="line"/>
      <point x="29" y="336" type="line"/>
    </contour>
    <contour>
      <point x="515" y="231" type="line"/>
      <point x="278" y="358" type="line"/>
      <point x="515" y="485" type="line"/>
    </contour>
  </outline>
</glyph>
<glyph name="uni141C" format="2">
  <advance width="582"/>
  <unicode hex="141C"/>
  <note>
uni141C
</note>
  <outline>
    <contour>
      <point x="183" y="355" type="curve" smooth="yes"/>
      <point x="233" y="355"/>
      <point x="262" y="370"/>
      <point x="292" y="404" type="curve"/>
      <point x="323" y="368"/>
      <point x="352" y="355"/>
      <point x="400" y="355" type="curve" smooth="yes"/>
      <point x="525" y="355"/>
      <point x="553" y="447"/>
      <point x="553" y="579" type="curve" smooth="yes"/>
      <point x="553" y="714" type="line"/>
      <point x="435" y="714" type="line"/>
      <point x="435" y="541" type="line" smooth="yes"/>
      <point x="435" y="485"/>
      <point x="417" y="463"/>
      <point x="392" y="463" type="curve" smooth="yes"/>
      <point x="367" y="463"/>
      <point x="350" y="485"/>
      <point x="350" y="541" type="curve" smooth="yes"/>
      <point x="350" y="714" type="line"/>
      <point x="232" y="714" type="line"/>
      <point x="232" y="541" type="line" smooth="yes"/>
      <point x="232" y="485"/>
      <point x="215" y="463"/>
      <point x="189" y="463" type="curve" smooth="yes"/>
      <point x="165" y="463"/>
      <point x="147" y="485"/>
      <point x="147" y="541" type="curve" smooth="yes"/>
      <point x="147" y="714" type="line"/>
      <point x="29" y="714" type="line"/>
      <point x="29" y="569" type="line" smooth="yes"/>
      <point x="29" y="422"/>
      <point x="79" y="355"/>
    </contour>
  </outline>
</glyph>
<glyph name="uni141D" format="2">
  <advance width="628"/>
  <unicode hex="141D"/>
  <note>
uni141D
</note>
  <outline>
    <contour>
      <point x="466" y="459" type="curve" smooth="yes"/>
      <point x="539" y="459"/>
      <point x="599" y="518"/>
      <point x="599" y="591" type="curve" smooth="yes"/>
      <point x="599" y="665"/>
      <point x="539" y="724"/>
      <point x="466" y="724" type="curve" smooth="yes"/>
      <point x="392" y="724"/>
      <point x="333" y="665"/>
      <point x="333" y="591" type="curve" smooth="yes"/>
      <point x="333" y="518"/>
      <point x="392" y="459"/>
    </contour>
    <contour>
      <point x="162" y="347" type="curve" smooth="yes"/>
      <point x="235" y="347"/>
      <point x="295" y="406"/>
      <point x="295" y="479" type="curve" smooth="yes"/>
      <point x="295" y="553"/>
      <point x="235" y="612"/>
      <point x="162" y="612" type="curve" smooth="yes"/>
      <point x="88" y="612"/>
      <point x="29" y="553"/>
      <point x="29" y="479" type="curve" smooth="yes"/>
      <point x="29" y="406"/>
      <point x="88" y="347"/>
    </contour>
    <contour>
      <point x="162" y="429" type="curve" smooth="yes"/>
      <point x="137" y="429"/>
      <point x="116" y="450"/>
      <point x="116" y="479" type="curve" smooth="yes"/>
      <point x="116" y="509"/>
      <point x="137" y="529"/>
      <point x="162" y="529" type="curve" smooth="yes"/>
      <point x="188" y="529"/>
      <point x="208" y="509"/>
      <point x="208" y="479" type="curve" smooth="yes"/>
      <point x="208" y="450"/>
      <point x="188" y="429"/>
    </contour>
    <contour>
      <point x="466" y="541" type="curve" smooth="yes"/>
      <point x="440" y="541"/>
      <point x="420" y="562"/>
      <point x="420" y="591" type="curve" smooth="yes"/>
      <point x="420" y="621"/>
      <point x="440" y="641"/>
      <point x="466" y="641" type="curve" smooth="yes"/>
      <point x="491" y="641"/>
      <point x="512" y="621"/>
      <point x="512" y="591" type="curve" smooth="yes"/>
      <point x="512" y="562"/>
      <point x="491" y="541"/>
    </contour>
  </outline>
</glyph>
<glyph name="uni141E" format="2">
  <advance width="518"/>
  <unicode hex="141E"/>
  <note>
uni141E
</note>
  <outline>
    <contour>
      <point x="19" y="307" type="line"/>
      <point x="499" y="307" type="line"/>
      <point x="499" y="330" type="line"/>
      <point x="271" y="726" type="line"/>
      <point x="248" y="726" type="line"/>
      <point x="19" y="330" type="line"/>
    </contour>
    <contour>
      <point x="190" y="412" type="line"/>
      <point x="259" y="540" type="line"/>
      <point x="328" y="412" type="line"/>
    </contour>
  </outline>
</glyph>
<glyph name="uni141F" format="2">
  <advance width="366"/>
  <unicode hex="141F"/>
  <note>
uni141F
</note>
  <outline>
    <contour>
      <point x="19" y="317" type="line"/>
      <point x="137" y="317" type="line"/>
      <point x="347" y="714" type="line"/>
      <point x="229" y="714" type="line"/>
    </contour>
  </outline>
</glyph>
<glyph name="uni1420" format="2">
  <advance width="366"/>
  <unicode hex="1420"/>
  <note>
uni1420
</note>
  <outline>
    <contour>
      <point x="229" y="317" type="line"/>
      <point x="347" y="317" type="line"/>
      <point x="137" y="714" type="line"/>
      <point x="19" y="714" type="line"/>
    </contour>
  </outline>
</glyph>
<glyph name="uni1421" format="2">
  <advance width="421"/>
  <unicode hex="1421"/>
  <note>
uni1421
</note>
  <outline>
    <contour>
      <point x="210" y="355" type="curve" smooth="yes"/>
      <point x="353" y="355"/>
      <point x="392" y="440"/>
      <point x="392" y="579" type="curve" smooth="yes"/>
      <point x="392" y="714" type="line"/>
      <point x="273" y="714" type="line"/>
      <point x="273" y="541" type="line" smooth="yes"/>
      <point x="273" y="485"/>
      <point x="246" y="463"/>
      <point x="210" y="463" type="curve" smooth="yes"/>
      <point x="175" y="463"/>
      <point x="148" y="485"/>
      <point x="148" y="541" type="curve" smooth="yes"/>
      <point x="148" y="714" type="line"/>
      <point x="29" y="714" type="line"/>
      <point x="29" y="569" type="line" smooth="yes"/>
      <point x="29" y="418"/>
      <point x="90" y="355"/>
    </contour>
  </outline>
</glyph>
<glyph name="uni1422" format="2">
  <advance width="421"/>
  <unicode hex="1422"/>
  <note>
uni1422
</note>
  <outline>
    <contour>
      <point x="29" y="367" type="line"/>
      <point x="148" y="367" type="line"/>
      <point x="148" y="540" type="line" smooth="yes"/>
      <point x="148" y="596"/>
      <point x="175" y="618"/>
      <point x="210" y="618" type="curve" smooth="yes"/>
      <point x="246" y="618"/>
      <point x="273" y="596"/>
      <point x="273" y="540" type="curve" smooth="yes"/>
      <point x="273" y="367" type="line"/>
      <point x="392" y="367" type="line"/>
      <point x="392" y="502" type="line" smooth="yes"/>
      <point x="392" y="641"/>
      <point x="353" y="726"/>
      <point x="210" y="726" type="curve" smooth="yes"/>
      <point x="90" y="726"/>
      <point x="29" y="663"/>
      <point x="29" y="512" type="curve" smooth="yes"/>
    </contour>
  </outline>
</glyph>
<glyph name="uni1423" format="2">
  <advance width="388"/>
  <unicode hex="1423"/>
  <note>
uni1423
</note>
  <outline>
    <contour>
      <point x="29" y="317" type="line"/>
      <point x="111" y="317" type="line" smooth="yes"/>
      <point x="283" y="317"/>
      <point x="359" y="379"/>
      <point x="359" y="518" type="curve" smooth="yes"/>
      <point x="359" y="655"/>
      <point x="285" y="714"/>
      <point x="123" y="714" type="curve" smooth="yes"/>
      <point x="29" y="714" type="line"/>
      <point x="29" y="606" type="line"/>
      <point x="130" y="606" type="line" smooth="yes"/>
      <point x="211" y="606"/>
      <point x="241" y="579"/>
      <point x="241" y="517" type="curve" smooth="yes"/>
      <point x="241" y="454"/>
      <point x="211" y="425"/>
      <point x="114" y="425" type="curve" smooth="yes"/>
      <point x="29" y="425" type="line"/>
    </contour>
  </outline>
</glyph>
<glyph name="uni1424" format="2">
  <advance width="470"/>
  <unicode hex="1424"/>
  <note>
uni1424
</note>
  <outline>
    <contour>
      <point x="235" y="315" type="curve" smooth="yes"/>
      <point x="358" y="315"/>
      <point x="441" y="406"/>
      <point x="441" y="518" type="curve" smooth="yes"/>
      <point x="441" y="631"/>
      <point x="357" y="721"/>
      <point x="235" y="721" type="curve" smooth="yes"/>
      <point x="113" y="721"/>
      <point x="29" y="631"/>
      <point x="29" y="518" type="curve" smooth="yes"/>
      <point x="29" y="406"/>
      <point x="112" y="315"/>
    </contour>
    <contour>
      <point x="235" y="423" type="curve" smooth="yes"/>
      <point x="177" y="423"/>
      <point x="147" y="467"/>
      <point x="147" y="518" type="curve" smooth="yes"/>
      <point x="147" y="571"/>
      <point x="179" y="613"/>
      <point x="235" y="613" type="curve" smooth="yes"/>
      <point x="292" y="613"/>
      <point x="323" y="570"/>
      <point x="323" y="519" type="curve" smooth="yes"/>
      <point x="323" y="468"/>
      <point x="293" y="423"/>
    </contour>
  </outline>
</glyph>
<glyph name="uni1425" format="2">
  <advance width="549"/>
  <unicode hex="1425"/>
  <note>
uni1425
</note>
  <outline>
    <contour>
      <point x="202" y="317" type="line"/>
      <point x="320" y="317" type="line"/>
      <point x="530" y="714" type="line"/>
      <point x="412" y="714" type="line"/>
    </contour>
    <contour>
      <point x="19" y="317" type="line"/>
      <point x="137" y="317" type="line"/>
      <point x="347" y="714" type="line"/>
      <point x="229" y="714" type="line"/>
    </contour>
  </outline>
</glyph>
<glyph name="uni1426" format="2">
  <advance width="364"/>
  <unicode hex="1426"/>
  <note>
uni1426
</note>
  <outline>
    <contour>
      <point x="217" y="317" type="line"/>
      <point x="335" y="317" type="line"/>
      <point x="335" y="714" type="line"/>
      <point x="217" y="714" type="line"/>
    </contour>
    <contour>
      <point x="29" y="317" type="line"/>
      <point x="147" y="317" type="line"/>
      <point x="147" y="714" type="line"/>
      <point x="29" y="714" type="line"/>
    </contour>
  </outline>
</glyph>
<glyph name="uni1427" format="2">
  <advance width="246"/>
  <unicode hex="1427"/>
  <note>
uni1427
</note>
  <outline>
    <contour>
      <point x="123" y="274" type="curve" smooth="yes"/>
      <point x="169" y="274"/>
      <point x="207" y="311"/>
      <point x="207" y="358" type="curve" smooth="yes"/>
      <point x="207" y="404"/>
      <point x="169" y="442"/>
      <point x="123" y="442" type="curve" smooth="yes"/>
      <point x="76" y="442"/>
      <point x="39" y="404"/>
      <point x="39" y="358" type="curve" smooth="yes"/>
      <point x="39" y="311"/>
      <point x="76" y="274"/>
    </contour>
  </outline>
</glyph>
<glyph name="uni1429" format="2">
  <advance width="420"/>
  <unicode hex="1429"/>
  <note>
uni1429
</note>
  <outline>
    <contour>
      <point x="153" y="328" type="line"/>
      <point x="269" y="328" type="line"/>
      <point x="269" y="474" type="line"/>
      <point x="401" y="474" type="line"/>
      <point x="401" y="580" type="line"/>
      <point x="269" y="580" type="line"/>
      <point x="269" y="714" type="line"/>
      <point x="153" y="714" type="line"/>
      <point x="153" y="580" type="line"/>
      <point x="19" y="580" type="line"/>
      <point x="19" y="474" type="line"/>
      <point x="153" y="474" type="line"/>
    </contour>
  </outline>
</glyph>
<glyph name="uni142A" format="2">
  <advance width="421"/>
  <unicode hex="142A"/>
  <note>
uni142A
</note>
  <outline>
    <contour>
      <point x="153" y="325" type="line"/>
      <point x="269" y="325" type="line"/>
      <point x="269" y="608" type="line"/>
      <point x="392" y="608" type="line"/>
      <point x="392" y="714" type="line"/>
      <point x="29" y="714" type="line"/>
      <point x="29" y="608" type="line"/>
      <point x="153" y="608" type="line"/>
    </contour>
  </outline>
</glyph>
<glyph name="uni142F" format="2">
  <advance width="836"/>
  <unicode hex="142F"/>
  <note>
uni142F
</note>
  <outline>
    <contour>
      <point x="395" y="-12" type="line"/>
      <point x="440" y="-12" type="line"/>
      <point x="797" y="669" type="line"/>
      <point x="797" y="714" type="line"/>
      <point x="628" y="714" type="line"/>
      <point x="418" y="299" type="line"/>
      <point x="208" y="714" type="line"/>
      <point x="39" y="714" type="line"/>
      <point x="39" y="669" type="line"/>
    </contour>
  </outline>
</glyph>
<glyph name="uni1431" format="2">
  <advance width="836"/>
  <unicode hex="1431"/>
  <note>
uni1431
</note>
  <outline>
    <contour>
      <point x="39" y="0" type="line"/>
      <point x="208" y="0" type="line"/>
      <point x="418" y="415" type="line"/>
      <point x="628" y="0" type="line"/>
      <point x="797" y="0" type="line"/>
      <point x="797" y="45" type="line"/>
      <point x="440" y="726" type="line"/>
      <point x="395" y="726" type="line"/>
      <point x="39" y="45" type="line"/>
    </contour>
  </outline>
</glyph>
<glyph name="uni1433" format="2">
  <advance width="708"/>
  <unicode hex="1433"/>
  <note>
uni1433
</note>
  <outline>
    <contour>
      <point x="39" y="-10" type="line"/>
      <point x="84" y="-10" type="line"/>
      <point x="679" y="336" type="line"/>
      <point x="679" y="379" type="line"/>
      <point x="84" y="725" type="line"/>
      <point x="39" y="725" type="line"/>
      <point x="39" y="568" type="line"/>
      <point x="429" y="357" type="line"/>
      <point x="39" y="148" type="line"/>
    </contour>
  </outline>
</glyph>
<glyph name="uni1438" format="2">
  <advance width="708"/>
  <unicode hex="1438"/>
  <note>
uni1438
</note>
  <outline>
    <contour>
      <point x="624" y="-10" type="line"/>
      <point x="669" y="-10" type="line"/>
      <point x="669" y="148" type="line"/>
      <point x="279" y="357" type="line"/>
      <point x="669" y="568" type="line"/>
      <point x="669" y="725" type="line"/>
      <point x="624" y="725" type="line"/>
      <point x="29" y="379" type="line"/>
      <point x="29" y="336" type="line"/>
    </contour>
  </outline>
</glyph>
<glyph name="uni1449" format="2">
  <advance width="417"/>
  <unicode hex="1449"/>
  <note>
uni1449
</note>
  <outline>
    <contour>
      <point x="388" y="327" type="line"/>
      <point x="388" y="448" type="line"/>
      <point x="218" y="540" type="line"/>
      <point x="388" y="632" type="line"/>
      <point x="388" y="753" type="line"/>
      <point x="19" y="555" type="line"/>
      <point x="19" y="525" type="line"/>
    </contour>
  </outline>
</glyph>
<glyph name="uni144A" format="2">
  <advance width="214"/>
  <unicode hex="144A"/>
  <note>
uni144A
</note>
  <outline>
    <contour>
      <point x="49" y="325" type="line"/>
      <point x="165" y="325" type="line"/>
      <point x="165" y="714" type="line"/>
      <point x="49" y="714" type="line"/>
    </contour>
  </outline>
</glyph>
<glyph name="uni144B" format="2">
	<advance width="372"/>
	<unicode hex="144B"/>
	<note>
		uni144B
	</note>
	<outline>
		<contour>
			<point x="145" y="153" type="line"/>
			<point x="145" y="562" type="line"/>
			<point x="29" y="562" type="line"/>
			<point x="29" y="153" type="line"/>
		</contour>
		<contour>
			<point x="343" y="153" type="line"/>
			<point x="343" y="336" type="line" smooth="yes"/>
			<point x="343" y="418"/>
			<point x="312" y="455"/>
			<point x="232" y="455" type="curve" smooth="yes"/>
			<point x="169" y="455"/>
			<point x="135" y="429"/>
			<point x="135" y="429" type="curve"/>
			<point x="126" y="330" type="line"/>
			<point x="126" y="330"/>
			<point x="151" y="358"/>
			<point x="190" y="358" type="curve" smooth="yes"/>
			<point x="209" y="358"/>
			<point x="227" y="352"/>
			<point x="227" y="316" type="curve" smooth="yes"/>
			<point x="227" y="153" type="line"/>
		</contour>
	</outline>
</glyph>
<glyph name="uni144C" format="2">
  <advance width="810"/>
  <unicode hex="144C"/>
  <note>
uni144C
</note>
  <outline>
    <contour>
      <point x="404" y="-12" type="curve" smooth="yes"/>
      <point x="672" y="-12"/>
      <point x="751" y="158"/>
      <point x="751" y="442" type="curve" smooth="yes"/>
      <point x="751" y="714" type="line"/>
      <point x="560" y="714" type="line"/>
      <point x="560" y="379" type="line" smooth="yes"/>
      <point x="560" y="215"/>
      <point x="508" y="151"/>
      <point x="405" y="151" type="curve" smooth="yes"/>
      <point x="302" y="151"/>
      <point x="250" y="215"/>
      <point x="250" y="379" type="curve" smooth="yes"/>
      <point x="250" y="714" type="line"/>
      <point x="59" y="714" type="line"/>
      <point x="59" y="420" type="line" smooth="yes"/>
      <point x="59" y="116"/>
      <point x="180" y="-12"/>
    </contour>
  </outline>
</glyph>
<glyph name="uni144E" format="2">
  <advance width="810"/>
  <unicode hex="144E"/>
  <note>
uni144E
</note>
  <outline>
    <contour>
      <point x="59" y="0" type="line"/>
      <point x="250" y="0" type="line"/>
      <point x="250" y="335" type="line" smooth="yes"/>
      <point x="250" y="499"/>
      <point x="302" y="563"/>
      <point x="405" y="563" type="curve" smooth="yes"/>
      <point x="508" y="563"/>
      <point x="560" y="499"/>
      <point x="560" y="335" type="curve" smooth="yes"/>
      <point x="560" y="0" type="line"/>
      <point x="751" y="0" type="line"/>
      <point x="751" y="272" type="line" smooth="yes"/>
      <point x="751" y="556"/>
      <point x="672" y="726"/>
      <point x="404" y="726" type="curve" smooth="yes"/>
      <point x="180" y="726"/>
      <point x="59" y="598"/>
      <point x="59" y="294" type="curve" smooth="yes"/>
    </contour>
  </outline>
</glyph>
<glyph name="uni1450" format="2">
  <advance width="704"/>
  <unicode hex="1450"/>
  <note>
uni1450
</note>
  <outline>
    <contour>
      <point x="39" y="0" type="line"/>
      <point x="197" y="0" type="line" smooth="yes"/>
      <point x="484" y="0"/>
      <point x="645" y="97"/>
      <point x="645" y="357" type="curve" smooth="yes"/>
      <point x="645" y="618"/>
      <point x="482" y="714"/>
      <point x="197" y="714" type="curve" smooth="yes"/>
      <point x="39" y="714" type="line"/>
      <point x="39" y="558" type="line"/>
      <point x="195" y="558" type="line" smooth="yes"/>
      <point x="356" y="558"/>
      <point x="451" y="503"/>
      <point x="451" y="357" type="curve" smooth="yes"/>
      <point x="451" y="210"/>
      <point x="356" y="156"/>
      <point x="195" y="156" type="curve" smooth="yes"/>
      <point x="39" y="156" type="line"/>
    </contour>
  </outline>
</glyph>
<glyph name="uni1455" format="2">
  <advance width="704"/>
  <unicode hex="1455"/>
  <note>
uni1455
</note>
  <outline>
    <contour>
      <point x="507" y="0" type="curve" smooth="yes"/>
      <point x="665" y="0" type="line"/>
      <point x="665" y="156" type="line"/>
      <point x="509" y="156" type="line" smooth="yes"/>
      <point x="348" y="156"/>
      <point x="253" y="210"/>
      <point x="253" y="357" type="curve" smooth="yes"/>
      <point x="253" y="503"/>
      <point x="348" y="558"/>
      <point x="509" y="558" type="curve" smooth="yes"/>
      <point x="665" y="558" type="line"/>
      <point x="665" y="714" type="line"/>
      <point x="507" y="714" type="line" smooth="yes"/>
      <point x="222" y="714"/>
      <point x="59" y="618"/>
      <point x="59" y="357" type="curve" smooth="yes"/>
      <point x="59" y="97"/>
      <point x="220" y="0"/>
    </contour>
  </outline>
</glyph>
<glyph name="uni1466" format="2">
  <advance width="335"/>
  <unicode hex="1466"/>
  <note>
uni1466
</note>
  <outline>
    <contour>
      <point x="306" y="317" type="curve"/>
      <point x="306" y="425" type="line"/>
      <point x="191" y="425"/>
      <point x="148" y="441"/>
      <point x="148" y="517" type="curve" smooth="yes"/>
      <point x="148" y="593"/>
      <point x="185" y="606"/>
      <point x="306" y="606" type="curve"/>
      <point x="306" y="714" type="line"/>
      <point x="111" y="714"/>
      <point x="29" y="667"/>
      <point x="29" y="518" type="curve" smooth="yes"/>
      <point x="29" y="370"/>
      <point x="112" y="317"/>
    </contour>
  </outline>
</glyph>
<glyph name="uni146B" format="2">
  <advance width="668"/>
  <unicode hex="146B"/>
  <note>
uni146B
</note>
  <outline>
    <contour>
      <point x="418" y="0" type="line"/>
      <point x="609" y="0" type="line"/>
      <point x="609" y="457" type="line" smooth="yes"/>
      <point x="609" y="593"/>
      <point x="539" y="726"/>
      <point x="332" y="726" type="curve" smooth="yes"/>
      <point x="125" y="726"/>
      <point x="49" y="593"/>
      <point x="49" y="463" type="curve" smooth="yes"/>
      <point x="49" y="320"/>
      <point x="141" y="200"/>
      <point x="319" y="200" type="curve" smooth="yes"/>
      <point x="365" y="200"/>
      <point x="398" y="208"/>
      <point x="418" y="217" type="curve"/>
    </contour>
    <contour>
      <point x="332" y="361" type="curve" smooth="yes"/>
      <point x="269" y="361"/>
      <point x="243" y="404"/>
      <point x="243" y="465" type="curve" smooth="yes"/>
      <point x="243" y="526"/>
      <point x="270" y="565"/>
      <point x="331" y="565" type="curve" smooth="yes"/>
      <point x="392" y="565"/>
      <point x="418" y="527"/>
      <point x="418" y="474" type="curve" smooth="yes"/>
      <point x="418" y="443" type="line" smooth="yes"/>
      <point x="418" y="412"/>
      <point x="400" y="361"/>
    </contour>
  </outline>
</glyph>
<glyph name="uni146D" format="2">
  <advance width="668"/>
  <unicode hex="146D"/>
  <note>
uni146D
</note>
  <outline>
    <contour>
      <point x="59" y="0" type="line"/>
      <point x="250" y="0" type="line"/>
      <point x="250" y="217" type="line"/>
      <point x="270" y="208"/>
      <point x="303" y="200"/>
      <point x="349" y="200" type="curve" smooth="yes"/>
      <point x="527" y="200"/>
      <point x="619" y="320"/>
      <point x="619" y="463" type="curve" smooth="yes"/>
      <point x="619" y="593"/>
      <point x="543" y="726"/>
      <point x="336" y="726" type="curve" smooth="yes"/>
      <point x="129" y="726"/>
      <point x="59" y="593"/>
      <point x="59" y="457" type="curve" smooth="yes"/>
    </contour>
    <contour>
      <point x="336" y="361" type="curve" smooth="yes"/>
      <point x="268" y="361"/>
      <point x="250" y="412"/>
      <point x="250" y="443" type="curve" smooth="yes"/>
      <point x="250" y="474" type="line" smooth="yes"/>
      <point x="250" y="527"/>
      <point x="276" y="565"/>
      <point x="337" y="565" type="curve" smooth="yes"/>
      <point x="398" y="565"/>
      <point x="425" y="526"/>
      <point x="425" y="465" type="curve" smooth="yes"/>
      <point x="425" y="404"/>
      <point x="399" y="361"/>
    </contour>
  </outline>
</glyph>
<glyph name="uni146F" format="2">
  <advance width="668"/>
  <unicode hex="146F"/>
  <note>
uni146F
</note>
  <outline>
    <contour>
      <point x="332" y="-12" type="curve" smooth="yes"/>
      <point x="539" y="-12"/>
      <point x="609" y="121"/>
      <point x="609" y="257" type="curve" smooth="yes"/>
      <point x="609" y="714" type="line"/>
      <point x="418" y="714" type="line"/>
      <point x="418" y="497" type="line"/>
      <point x="398" y="506"/>
      <point x="365" y="514"/>
      <point x="319" y="514" type="curve" smooth="yes"/>
      <point x="141" y="514"/>
      <point x="49" y="394"/>
      <point x="49" y="251" type="curve" smooth="yes"/>
      <point x="49" y="121"/>
      <point x="125" y="-12"/>
    </contour>
    <contour>
      <point x="331" y="149" type="curve" smooth="yes"/>
      <point x="270" y="149"/>
      <point x="243" y="188"/>
      <point x="243" y="249" type="curve" smooth="yes"/>
      <point x="243" y="310"/>
      <point x="269" y="353"/>
      <point x="332" y="353" type="curve" smooth="yes"/>
      <point x="400" y="353"/>
      <point x="418" y="302"/>
      <point x="418" y="271" type="curve" smooth="yes"/>
      <point x="418" y="240" type="line" smooth="yes"/>
      <point x="418" y="187"/>
      <point x="392" y="149"/>
    </contour>
  </outline>
</glyph>
<glyph name="uni1472" format="2">
  <advance width="668"/>
  <unicode hex="1472"/>
  <note>
uni1472
</note>
  <outline>
    <contour>
      <point x="336" y="-12" type="curve" smooth="yes"/>
      <point x="543" y="-12"/>
      <point x="619" y="121"/>
      <point x="619" y="251" type="curve" smooth="yes"/>
      <point x="619" y="394"/>
      <point x="527" y="514"/>
      <point x="349" y="514" type="curve" smooth="yes"/>
      <point x="303" y="514"/>
      <point x="270" y="506"/>
      <point x="250" y="497" type="curve"/>
      <point x="250" y="714" type="line"/>
      <point x="59" y="714" type="line"/>
      <point x="59" y="257" type="line" smooth="yes"/>
      <point x="59" y="121"/>
      <point x="129" y="-12"/>
    </contour>
    <contour>
      <point x="337" y="149" type="curve" smooth="yes"/>
      <point x="276" y="149"/>
      <point x="250" y="187"/>
      <point x="250" y="240" type="curve" smooth="yes"/>
      <point x="250" y="271" type="line" smooth="yes"/>
      <point x="250" y="302"/>
      <point x="268" y="353"/>
      <point x="336" y="353" type="curve" smooth="yes"/>
      <point x="399" y="353"/>
      <point x="425" y="310"/>
      <point x="425" y="249" type="curve" smooth="yes"/>
      <point x="425" y="188"/>
      <point x="398" y="149"/>
    </contour>
  </outline>
</glyph>
<glyph name="uni1483" format="2">
  <advance width="396"/>
  <unicode hex="1483"/>
  <note>
uni1483
</note>
  <outline>
    <contour>
      <point x="208" y="305" type="curve" smooth="yes"/>
      <point x="328" y="305"/>
      <point x="367" y="380"/>
      <point x="367" y="453" type="curve" smooth="yes"/>
      <point x="367" y="528"/>
      <point x="321" y="604"/>
      <point x="217" y="604" type="curve" smooth="yes"/>
      <point x="190" y="604"/>
      <point x="173" y="600"/>
      <point x="159" y="596" type="curve"/>
      <point x="159" y="714" type="line"/>
      <point x="50" y="714" type="line"/>
      <point x="50" y="453" type="line" smooth="yes"/>
      <point x="50" y="380"/>
      <point x="88" y="305"/>
    </contour>
    <contour>
      <point x="210" y="396" type="curve" smooth="yes"/>
      <point x="177" y="396"/>
      <point x="158" y="417"/>
      <point x="158" y="451" type="curve" smooth="yes"/>
      <point x="158" y="490"/>
      <point x="177" y="511"/>
      <point x="210" y="511" type="curve" smooth="yes"/>
      <point x="243" y="511"/>
      <point x="262" y="490"/>
      <point x="262" y="451" type="curve" smooth="yes"/>
      <point x="262" y="417"/>
      <point x="242" y="396"/>
    </contour>
  </outline>
</glyph>
<glyph name="uni1484" format="2">
  <advance width="396"/>
  <unicode hex="1484"/>
  <note>
uni1484
</note>
  <outline>
    <contour>
      <point x="188" y="305" type="curve" smooth="yes"/>
      <point x="308" y="305"/>
      <point x="347" y="380"/>
      <point x="347" y="453" type="curve" smooth="yes"/>
      <point x="347" y="714" type="line"/>
      <point x="237" y="714" type="line"/>
      <point x="237" y="598" type="line"/>
      <point x="223" y="602"/>
      <point x="206" y="604"/>
      <point x="188" y="604" type="curve" smooth="yes"/>
      <point x="68" y="604"/>
      <point x="29" y="528"/>
      <point x="29" y="453" type="curve" smooth="yes"/>
      <point x="29" y="380"/>
      <point x="68" y="305"/>
    </contour>
    <contour>
      <point x="186" y="396" type="curve" smooth="yes"/>
      <point x="154" y="396"/>
      <point x="134" y="417"/>
      <point x="134" y="451" type="curve" smooth="yes"/>
      <point x="134" y="490"/>
      <point x="153" y="511"/>
      <point x="186" y="511" type="curve" smooth="yes"/>
      <point x="219" y="511"/>
      <point x="238" y="490"/>
      <point x="238" y="451" type="curve" smooth="yes"/>
      <point x="238" y="417"/>
      <point x="219" y="396"/>
    </contour>
  </outline>
</glyph>
<glyph name="uni1489" format="2">
  <advance width="667"/>
  <unicode hex="1489"/>
  <note>
uni1489
</note>
  <outline>
    <contour>
      <point x="415" y="0" type="line"/>
      <point x="608" y="0" type="line"/>
      <point x="608" y="413" type="line" smooth="yes"/>
      <point x="608" y="635"/>
      <point x="551" y="726"/>
      <point x="332" y="726" type="curve" smooth="yes"/>
      <point x="113" y="726"/>
      <point x="49" y="635"/>
      <point x="49" y="413" type="curve" smooth="yes"/>
      <point x="49" y="394" type="line"/>
      <point x="248" y="394" type="line"/>
      <point x="248" y="450" type="line" smooth="yes"/>
      <point x="248" y="533"/>
      <point x="271" y="565"/>
      <point x="332" y="565" type="curve" smooth="yes"/>
      <point x="393" y="565"/>
      <point x="415" y="533"/>
      <point x="415" y="450" type="curve" smooth="yes"/>
    </contour>
  </outline>
</glyph>
<glyph name="uni148B" format="2">
  <advance width="667"/>
  <unicode hex="148B"/>
  <note>
uni148B
</note>
  <outline>
    <contour>
      <point x="59" y="0" type="line"/>
      <point x="252" y="0" type="line"/>
      <point x="252" y="450" type="line" smooth="yes"/>
      <point x="252" y="533"/>
      <point x="274" y="565"/>
      <point x="335" y="565" type="curve" smooth="yes"/>
      <point x="396" y="565"/>
      <point x="419" y="533"/>
      <point x="419" y="450" type="curve" smooth="yes"/>
      <point x="419" y="394" type="line"/>
      <point x="618" y="394" type="line"/>
      <point x="618" y="413" type="line" smooth="yes"/>
      <point x="618" y="635"/>
      <point x="554" y="726"/>
      <point x="335" y="726" type="curve" smooth="yes"/>
      <point x="116" y="726"/>
      <point x="59" y="635"/>
      <point x="59" y="413" type="curve" smooth="yes"/>
    </contour>
  </outline>
</glyph>
<glyph name="uni148D" format="2">
  <advance width="667"/>
  <unicode hex="148D"/>
  <note>
uni148D
</note>
  <outline>
    <contour>
      <point x="332" y="-12" type="curve" smooth="yes"/>
      <point x="551" y="-12"/>
      <point x="608" y="79"/>
      <point x="608" y="301" type="curve" smooth="yes"/>
      <point x="608" y="714" type="line"/>
      <point x="415" y="714" type="line"/>
      <point x="415" y="264" type="line" smooth="yes"/>
      <point x="415" y="181"/>
      <point x="393" y="149"/>
      <point x="332" y="149" type="curve" smooth="yes"/>
      <point x="271" y="149"/>
      <point x="248" y="181"/>
      <point x="248" y="264" type="curve" smooth="yes"/>
      <point x="248" y="320" type="line"/>
      <point x="49" y="320" type="line"/>
      <point x="49" y="301" type="line" smooth="yes"/>
      <point x="49" y="79"/>
      <point x="113" y="-12"/>
    </contour>
  </outline>
</glyph>
<glyph name="uni1490" format="2">
  <advance width="667"/>
  <unicode hex="1490"/>
  <note>
uni1490
</note>
  <outline>
    <contour>
      <point x="338" y="-12" type="curve" smooth="yes"/>
      <point x="557" y="-12"/>
      <point x="618" y="79"/>
      <point x="618" y="301" type="curve" smooth="yes"/>
      <point x="618" y="320" type="line"/>
      <point x="425" y="320" type="line"/>
      <point x="425" y="264" type="line" smooth="yes"/>
      <point x="425" y="181"/>
      <point x="399" y="149"/>
      <point x="338" y="149" type="curve" smooth="yes"/>
      <point x="277" y="149"/>
      <point x="252" y="181"/>
      <point x="252" y="264" type="curve" smooth="yes"/>
      <point x="252" y="714" type="line"/>
      <point x="59" y="714" type="line"/>
      <point x="59" y="301" type="line" smooth="yes"/>
      <point x="59" y="79"/>
      <point x="119" y="-12"/>
    </contour>
  </outline>
</glyph>
<glyph name="uni14A1" format="2">
  <advance width="385"/>
  <unicode hex="14A1"/>
  <note>
uni14A1
</note>
  <outline>
    <contour>
      <point x="196" y="305" type="curve" smooth="yes"/>
      <point x="300" y="305"/>
      <point x="356" y="366"/>
      <point x="356" y="467" type="curve" smooth="yes"/>
      <point x="356" y="519" type="line"/>
      <point x="243" y="519" type="line"/>
      <point x="243" y="483" type="line" smooth="yes"/>
      <point x="243" y="441"/>
      <point x="231" y="413"/>
      <point x="196" y="413" type="curve" smooth="yes"/>
      <point x="161" y="413"/>
      <point x="148" y="441"/>
      <point x="148" y="483" type="curve" smooth="yes"/>
      <point x="148" y="714" type="line"/>
      <point x="39" y="714" type="line"/>
      <point x="39" y="483" type="line" smooth="yes"/>
      <point x="39" y="366"/>
      <point x="92" y="305"/>
    </contour>
  </outline>
</glyph>
<glyph name="uni14A2" format="2">
  <advance width="385"/>
  <unicode hex="14A2"/>
  <note>
uni14A2
</note>
  <outline>
    <contour>
      <point x="189" y="305" type="curve" smooth="yes"/>
      <point x="293" y="305"/>
      <point x="346" y="366"/>
      <point x="346" y="483" type="curve" smooth="yes"/>
      <point x="346" y="714" type="line"/>
      <point x="237" y="714" type="line"/>
      <point x="237" y="483" type="line" smooth="yes"/>
      <point x="237" y="441"/>
      <point x="224" y="413"/>
      <point x="189" y="413" type="curve" smooth="yes"/>
      <point x="154" y="413"/>
      <point x="142" y="441"/>
      <point x="142" y="483" type="curve" smooth="yes"/>
      <point x="142" y="519" type="line"/>
      <point x="29" y="519" type="line"/>
      <point x="29" y="467" type="line" smooth="yes"/>
      <point x="29" y="366"/>
      <point x="85" y="305"/>
    </contour>
  </outline>
</glyph>
<glyph name="uni14A3" format="2">
  <advance width="629"/>
  <unicode hex="14A3"/>
  <note>
uni14A3
</note>
  <outline>
    <contour>
      <point x="377" y="0" type="line"/>
      <point x="570" y="0" type="line"/>
      <point x="570" y="714" type="line"/>
      <point x="39" y="714" type="line"/>
      <point x="39" y="558" type="line"/>
      <point x="377" y="558" type="line"/>
    </contour>
  </outline>
</glyph>
<glyph name="uni14A5" format="2">
  <advance width="629"/>
  <unicode hex="14A5"/>
  <note>
uni14A5
</note>
  <outline>
    <contour>
      <point x="59" y="0" type="line"/>
      <point x="252" y="0" type="line"/>
      <point x="252" y="558" type="line"/>
      <point x="590" y="558" type="line"/>
      <point x="590" y="714" type="line"/>
      <point x="59" y="714" type="line"/>
    </contour>
  </outline>
</glyph>
<glyph name="uni14A7" format="2">
  <advance width="629"/>
  <unicode hex="14A7"/>
  <note>
uni14A7
</note>
  <outline>
    <contour>
      <point x="39" y="0" type="line"/>
      <point x="570" y="0" type="line"/>
      <point x="570" y="714" type="line"/>
      <point x="377" y="714" type="line"/>
      <point x="377" y="156" type="line"/>
      <point x="39" y="156" type="line"/>
    </contour>
  </outline>
</glyph>
<glyph name="uni14AA" format="2">
  <advance width="629"/>
  <unicode hex="14AA"/>
  <note>
uni14AA
</note>
  <outline>
    <contour>
      <point x="59" y="0" type="line"/>
      <point x="590" y="0" type="line"/>
      <point x="590" y="156" type="line"/>
      <point x="252" y="156" type="line"/>
      <point x="252" y="714" type="line"/>
      <point x="59" y="714" type="line"/>
    </contour>
  </outline>
</glyph>
<glyph name="uni14BC" format="2">
  <advance width="388"/>
  <unicode hex="14BC"/>
  <note>
uni14BC
</note>
  <outline>
    <contour>
      <point x="277" y="317" type="curve" smooth="yes"/>
      <point x="359" y="317" type="line"/>
      <point x="359" y="425" type="line"/>
      <point x="274" y="425" type="line" smooth="yes"/>
      <point x="177" y="425"/>
      <point x="147" y="454"/>
      <point x="147" y="517" type="curve" smooth="yes"/>
      <point x="147" y="579"/>
      <point x="177" y="606"/>
      <point x="258" y="606" type="curve" smooth="yes"/>
      <point x="359" y="606" type="line"/>
      <point x="359" y="714" type="line"/>
      <point x="265" y="714" type="line" smooth="yes"/>
      <point x="103" y="714"/>
      <point x="29" y="655"/>
      <point x="29" y="518" type="curve" smooth="yes"/>
      <point x="29" y="379"/>
      <point x="105" y="317"/>
    </contour>
  </outline>
</glyph>
<glyph name="uni14BD" format="2">
  <advance width="354"/>
  <unicode hex="14BD"/>
  <note>
uni14BD
</note>
  <outline>
    <contour>
      <point x="29" y="317" type="line"/>
      <point x="325" y="317" type="line"/>
      <point x="325" y="714" type="line"/>
      <point x="207" y="714" type="line"/>
      <point x="207" y="425" type="line"/>
      <point x="29" y="425" type="line"/>
    </contour>
  </outline>
</glyph>
<glyph name="uni14BE" format="2">
  <advance width="368"/>
  <unicode hex="14BE"/>
  <note>
uni14BE
</note>
  <outline>
    <contour>
      <point x="38" y="318" type="line"/>
      <point x="339" y="318" type="line"/>
      <point x="339" y="406" type="line"/>
      <point x="196" y="406" type="line"/>
      <point x="221" y="431" type="line" smooth="yes"/>
      <point x="304" y="514"/>
      <point x="333" y="551"/>
      <point x="333" y="606" type="curve" smooth="yes"/>
      <point x="333" y="669"/>
      <point x="293" y="726"/>
      <point x="185" y="726" type="curve" smooth="yes"/>
      <point x="85" y="726"/>
      <point x="29" y="666"/>
      <point x="29" y="592" type="curve"/>
      <point x="140" y="592" type="line"/>
      <point x="140" y="621"/>
      <point x="157" y="634"/>
      <point x="180" y="634" type="curve" smooth="yes"/>
      <point x="208" y="634"/>
      <point x="219" y="618"/>
      <point x="219" y="603" type="curve" smooth="yes"/>
      <point x="219" y="578"/>
      <point x="191" y="547"/>
      <point x="152" y="508" type="curve" smooth="yes"/>
      <point x="38" y="392" type="line"/>
    </contour>
  </outline>
</glyph>
<glyph name="uni14BF" format="2">
  <advance width="603"/>
  <unicode hex="14BF"/>
  <note>
uni14BF
</note>
  <outline>
    <contour>
      <point x="63" y="0" type="line"/>
      <point x="546" y="0" type="line"/>
      <point x="546" y="156" type="line"/>
      <point x="326" y="156" type="line"/>
      <point x="367" y="202" type="line" smooth="yes"/>
      <point x="501" y="353"/>
      <point x="554" y="413"/>
      <point x="554" y="512" type="curve" smooth="yes"/>
      <point x="554" y="625"/>
      <point x="486" y="726"/>
      <point x="308" y="726" type="curve" smooth="yes"/>
      <point x="141" y="726"/>
      <point x="49" y="637"/>
      <point x="49" y="506" type="curve"/>
      <point x="235" y="506" type="line"/>
      <point x="235" y="543"/>
      <point x="262" y="563"/>
      <point x="300" y="563" type="curve" smooth="yes"/>
      <point x="346" y="563"/>
      <point x="363" y="534"/>
      <point x="363" y="507" type="curve" smooth="yes"/>
      <point x="363" y="462"/>
      <point x="313" y="406"/>
      <point x="248" y="335" type="curve" smooth="yes"/>
      <point x="63" y="132" type="line"/>
    </contour>
  </outline>
</glyph>
<glyph name="uni14C0" format="2">
  <advance width="931"/>
  <unicode hex="14C0"/>
  <note>
uni14C0
</note>
  <outline>
    <contour>
      <point x="599" y="-12" type="curve" smooth="yes"/>
      <point x="806" y="-12"/>
      <point x="882" y="121"/>
      <point x="882" y="251" type="curve" smooth="yes"/>
      <point x="882" y="381"/>
      <point x="806" y="514"/>
      <point x="599" y="514" type="curve" smooth="yes"/>
      <point x="39" y="514" type="line"/>
      <point x="39" y="358" type="line"/>
      <point x="335" y="358" type="line"/>
      <point x="322" y="324"/>
      <point x="316" y="287"/>
      <point x="316" y="251" type="curve" smooth="yes"/>
      <point x="316" y="121"/>
      <point x="392" y="-12"/>
    </contour>
    <contour>
      <point x="599" y="149" type="curve" smooth="yes"/>
      <point x="539" y="149"/>
      <point x="510" y="190"/>
      <point x="510" y="251" type="curve" smooth="yes"/>
      <point x="510" y="312"/>
      <point x="539" y="353"/>
      <point x="599" y="353" type="curve" smooth="yes"/>
      <point x="661" y="353"/>
      <point x="688" y="312"/>
      <point x="688" y="251" type="curve" smooth="yes"/>
      <point x="688" y="190"/>
      <point x="661" y="149"/>
    </contour>
  </outline>
</glyph>
<glyph name="uni14C2" format="2">
  <advance width="931"/>
  <unicode hex="14C2"/>
  <note>
uni14C2
</note>
  <outline>
    <contour>
      <point x="332" y="-12" type="curve" smooth="yes"/>
      <point x="539" y="-12"/>
      <point x="615" y="121"/>
      <point x="615" y="251" type="curve" smooth="yes"/>
      <point x="615" y="287"/>
      <point x="609" y="324"/>
      <point x="596" y="358" type="curve"/>
      <point x="892" y="358" type="line"/>
      <point x="892" y="514" type="line"/>
      <point x="332" y="514" type="line" smooth="yes"/>
      <point x="125" y="514"/>
      <point x="49" y="381"/>
      <point x="49" y="251" type="curve" smooth="yes"/>
      <point x="49" y="121"/>
      <point x="125" y="-12"/>
    </contour>
    <contour>
      <point x="332" y="149" type="curve" smooth="yes"/>
      <point x="270" y="149"/>
      <point x="243" y="190"/>
      <point x="243" y="251" type="curve" smooth="yes"/>
      <point x="243" y="312"/>
      <point x="270" y="353"/>
      <point x="332" y="353" type="curve" smooth="yes"/>
      <point x="392" y="353"/>
      <point x="421" y="312"/>
      <point x="421" y="251" type="curve" smooth="yes"/>
      <point x="421" y="190"/>
      <point x="392" y="149"/>
    </contour>
  </outline>
</glyph>
<glyph name="uni14C4" format="2">
  <advance width="931"/>
  <unicode hex="14C4"/>
  <note>
uni14C4
</note>
  <outline>
    <contour>
      <point x="39" y="0" type="line"/>
      <point x="599" y="0" type="line" smooth="yes"/>
      <point x="806" y="0"/>
      <point x="882" y="133"/>
      <point x="882" y="263" type="curve" smooth="yes"/>
      <point x="882" y="393"/>
      <point x="806" y="526"/>
      <point x="599" y="526" type="curve" smooth="yes"/>
      <point x="392" y="526"/>
      <point x="316" y="393"/>
      <point x="316" y="263" type="curve" smooth="yes"/>
      <point x="316" y="227"/>
      <point x="322" y="190"/>
      <point x="335" y="156" type="curve"/>
      <point x="39" y="156" type="line"/>
    </contour>
    <contour>
      <point x="599" y="161" type="curve" smooth="yes"/>
      <point x="539" y="161"/>
      <point x="510" y="202"/>
      <point x="510" y="263" type="curve" smooth="yes"/>
      <point x="510" y="324"/>
      <point x="539" y="365"/>
      <point x="599" y="365" type="curve" smooth="yes"/>
      <point x="661" y="365"/>
      <point x="688" y="324"/>
      <point x="688" y="263" type="curve" smooth="yes"/>
      <point x="688" y="202"/>
      <point x="661" y="161"/>
    </contour>
  </outline>
</glyph>
<glyph name="uni14C7" format="2">
  <advance width="931"/>
  <unicode hex="14C7"/>
  <note>
uni14C7
</note>
  <outline>
    <contour>
      <point x="332" y="0" type="curve" smooth="yes"/>
      <point x="892" y="0" type="line"/>
      <point x="892" y="156" type="line"/>
      <point x="596" y="156" type="line"/>
      <point x="609" y="190"/>
      <point x="615" y="227"/>
      <point x="615" y="263" type="curve" smooth="yes"/>
      <point x="615" y="393"/>
      <point x="539" y="526"/>
      <point x="332" y="526" type="curve" smooth="yes"/>
      <point x="125" y="526"/>
      <point x="49" y="393"/>
      <point x="49" y="263" type="curve" smooth="yes"/>
      <point x="49" y="133"/>
      <point x="125" y="0"/>
    </contour>
    <contour>
      <point x="332" y="161" type="curve" smooth="yes"/>
      <point x="270" y="161"/>
      <point x="243" y="202"/>
      <point x="243" y="263" type="curve" smooth="yes"/>
      <point x="243" y="324"/>
      <point x="270" y="365"/>
      <point x="332" y="365" type="curve" smooth="yes"/>
      <point x="392" y="365"/>
      <point x="421" y="324"/>
      <point x="421" y="263" type="curve" smooth="yes"/>
      <point x="421" y="202"/>
      <point x="392" y="161"/>
    </contour>
  </outline>
</glyph>
<glyph name="uni14D0" format="2">
  <advance width="604"/>
  <unicode hex="14D0"/>
  <note>
uni14D0
</note>
  <outline>
    <contour>
      <point x="211" y="367" type="curve" smooth="yes"/>
      <point x="585" y="367" type="line"/>
      <point x="585" y="475" type="line"/>
      <point x="378" y="475" type="line"/>
      <point x="389" y="499"/>
      <point x="394" y="519"/>
      <point x="394" y="546" type="curve" smooth="yes"/>
      <point x="394" y="631"/>
      <point x="339" y="720"/>
      <point x="211" y="720" type="curve" smooth="yes"/>
      <point x="83" y="720"/>
      <point x="29" y="631"/>
      <point x="29" y="545" type="curve" smooth="yes"/>
      <point x="29" y="456"/>
      <point x="83" y="367"/>
    </contour>
    <contour>
      <point x="210" y="473" type="curve" smooth="yes"/>
      <point x="167" y="473"/>
      <point x="147" y="505"/>
      <point x="147" y="543" type="curve" smooth="yes"/>
      <point x="147" y="580"/>
      <point x="167" y="614"/>
      <point x="210" y="614" type="curve" smooth="yes"/>
      <point x="253" y="614"/>
      <point x="275" y="581"/>
      <point x="275" y="543" type="curve" smooth="yes"/>
      <point x="275" y="506"/>
      <point x="254" y="473"/>
    </contour>
  </outline>
</glyph>
<glyph name="uni14D1" format="2">
	<advance width="441"/>
	<unicode hex="14D1"/>
	<note>
		uni14D1
	</note>
	<outline>
		<contour>
			<point x="29" y="562" type="line"/>
			<point x="29" y="339" type="line" smooth="yes"/>
			<point x="29" y="188"/>
			<point x="100" y="145"/>
			<point x="220" y="145" type="curve" smooth="yes"/>
			<point x="363" y="145"/>
			<point x="412" y="210"/>
			<point x="412" y="349" type="curve" smooth="yes"/>
			<point x="412" y="562" type="line"/>
			<point x="293" y="562" type="line"/>
			<point x="293" y="331" type="line" smooth="yes"/>
			<point x="293" y="275"/>
			<point x="266" y="253"/>
			<point x="220" y="253" type="curve" smooth="yes"/>
			<point x="175" y="253"/>
			<point x="148" y="275"/>
			<point x="148" y="331" type="curve" smooth="yes"/>
			<point x="148" y="562" type="line"/>
		</contour>
	</outline>
</glyph>
<glyph name="uni14D2" format="2">
  <advance width="604"/>
  <unicode hex="14D2"/>
  <note>
uni14D2
</note>
  <outline>
    <contour>
      <point x="19" y="367" type="line"/>
      <point x="393" y="367" type="line" smooth="yes"/>
      <point x="521" y="367"/>
      <point x="575" y="456"/>
      <point x="575" y="545" type="curve" smooth="yes"/>
      <point x="575" y="631"/>
      <point x="521" y="720"/>
      <point x="393" y="720" type="curve" smooth="yes"/>
      <point x="265" y="720"/>
      <point x="210" y="631"/>
      <point x="210" y="546" type="curve" smooth="yes"/>
      <point x="210" y="519"/>
      <point x="215" y="499"/>
      <point x="226" y="475" type="curve"/>
      <point x="19" y="475" type="line"/>
    </contour>
    <contour>
      <point x="394" y="473" type="curve" smooth="yes"/>
      <point x="350" y="473"/>
      <point x="329" y="506"/>
      <point x="329" y="543" type="curve" smooth="yes"/>
      <point x="329" y="581"/>
      <point x="351" y="614"/>
      <point x="394" y="614" type="curve" smooth="yes"/>
      <point x="437" y="614"/>
      <point x="457" y="580"/>
      <point x="457" y="543" type="curve" smooth="yes"/>
      <point x="457" y="505"/>
      <point x="437" y="473"/>
    </contour>
  </outline>
</glyph>
<glyph name="uni14D3" format="2">
  <advance width="923"/>
  <unicode hex="14D3"/>
  <note>
uni14D3
</note>
  <outline>
    <contour>
      <point x="465" y="0" type="line"/>
      <point x="613" y="0" type="line" smooth="yes"/>
      <point x="771" y="0"/>
      <point x="874" y="98"/>
      <point x="874" y="266" type="curve" smooth="yes"/>
      <point x="874" y="428"/>
      <point x="779" y="518"/>
      <point x="590" y="518" type="curve" smooth="yes"/>
      <point x="39" y="518" type="line"/>
      <point x="39" y="360" type="line"/>
      <point x="595" y="360" type="line" smooth="yes"/>
      <point x="673" y="360"/>
      <point x="713" y="329"/>
      <point x="713" y="262" type="curve" smooth="yes"/>
      <point x="713" y="196"/>
      <point x="675" y="156"/>
      <point x="617" y="156" type="curve" smooth="yes"/>
      <point x="465" y="156" type="line"/>
    </contour>
  </outline>
</glyph>
<glyph name="uni14D7" format="2">
  <advance width="923"/>
  <unicode hex="14D7"/>
  <note>
uni14D7
</note>
  <outline>
    <contour>
      <point x="39" y="0" type="line"/>
      <point x="601" y="0" type="line" smooth="yes"/>
      <point x="793" y="0"/>
      <point x="874" y="129"/>
      <point x="874" y="259" type="curve" smooth="yes"/>
      <point x="874" y="389"/>
      <point x="793" y="517"/>
      <point x="601" y="517" type="curve" smooth="yes"/>
      <point x="464" y="517" type="line"/>
      <point x="464" y="361" type="line"/>
      <point x="606" y="361" type="line" smooth="yes"/>
      <point x="670" y="361"/>
      <point x="713" y="328"/>
      <point x="713" y="258" type="curve" smooth="yes"/>
      <point x="713" y="185"/>
      <point x="667" y="156"/>
      <point x="603" y="156" type="curve" smooth="yes"/>
      <point x="39" y="156" type="line"/>
    </contour>
  </outline>
</glyph>
<glyph name="uni14DA" format="2">
  <advance width="923"/>
  <unicode hex="14DA"/>
  <note>
uni14DA
</note>
  <outline>
    <contour>
      <point x="322" y="0" type="curve" smooth="yes"/>
      <point x="884" y="0" type="line"/>
      <point x="884" y="156" type="line"/>
      <point x="320" y="156" type="line" smooth="yes"/>
      <point x="256" y="156"/>
      <point x="210" y="186"/>
      <point x="210" y="258" type="curve" smooth="yes"/>
      <point x="210" y="328"/>
      <point x="253" y="361"/>
      <point x="317" y="361" type="curve" smooth="yes"/>
      <point x="459" y="361" type="line"/>
      <point x="459" y="517" type="line"/>
      <point x="322" y="517" type="line" smooth="yes"/>
      <point x="130" y="517"/>
      <point x="49" y="389"/>
      <point x="49" y="259" type="curve" smooth="yes"/>
      <point x="49" y="129"/>
      <point x="130" y="0"/>
    </contour>
  </outline>
</glyph>
<glyph name="uni14EA" format="2">
  <advance width="545"/>
  <unicode hex="14EA"/>
  <note>
uni14EA
</note>
  <outline>
    <contour>
      <point x="212" y="361" type="curve" smooth="yes"/>
      <point x="516" y="361" type="line"/>
      <point x="516" y="469" type="line"/>
      <point x="211" y="469" type="line" smooth="yes"/>
      <point x="168" y="469"/>
      <point x="148" y="499"/>
      <point x="148" y="537" type="curve" smooth="yes"/>
      <point x="148" y="574"/>
      <point x="168" y="608"/>
      <point x="211" y="608" type="curve" smooth="yes"/>
      <point x="255" y="608" type="line"/>
      <point x="255" y="714" type="line"/>
      <point x="212" y="714" type="line" smooth="yes"/>
      <point x="83" y="714"/>
      <point x="29" y="625"/>
      <point x="29" y="539" type="curve" smooth="yes"/>
      <point x="29" y="450"/>
      <point x="83" y="361"/>
    </contour>
  </outline>
</glyph>
<glyph name="uni14EB" format="2">
  <advance width="386"/>
  <unicode hex="14EB"/>
  <note>
uni14EB
</note>
  <outline>
    <contour>
      <point x="330" y="289" type="line"/>
      <point x="356" y="289" type="line"/>
      <point x="356" y="382" type="line"/>
      <point x="199" y="430" type="line"/>
      <point x="357" y="482" type="line"/>
      <point x="357" y="531" type="line"/>
      <point x="199" y="584" type="line"/>
      <point x="356" y="632" type="line"/>
      <point x="356" y="725" type="line"/>
      <point x="330" y="725" type="line"/>
      <point x="29" y="623" type="line"/>
      <point x="29" y="565" type="line"/>
      <point x="182" y="508" type="line"/>
      <point x="29" y="450" type="line"/>
      <point x="29" y="391" type="line"/>
    </contour>
  </outline>
</glyph>
<glyph name="uni14EC" format="2">
  <advance width="653"/>
  <unicode hex="14EC"/>
  <note>
uni14EC
</note>
  <outline>
    <contour>
      <point x="558" y="-12" type="line"/>
      <point x="603" y="-12" type="line"/>
      <point x="603" y="127" type="line"/>
      <point x="320" y="225" type="line"/>
      <point x="604" y="323" type="line"/>
      <point x="604" y="390" type="line"/>
      <point x="320" y="488" type="line"/>
      <point x="603" y="586" type="line"/>
      <point x="603" y="725" type="line"/>
      <point x="558" y="725" type="line"/>
      <point x="49" y="553" type="line"/>
      <point x="49" y="455" type="line"/>
      <point x="325" y="357" type="line"/>
      <point x="49" y="258" type="line"/>
      <point x="49" y="160" type="line"/>
    </contour>
  </outline>
</glyph>
<glyph name="uni14ED" format="2">
  <advance width="642"/>
  <unicode hex="14ED"/>
  <note>
uni14ED
</note>
  <outline>
    <contour>
      <point x="391" y="0" type="line"/>
      <point x="583" y="0" type="line"/>
      <point x="583" y="402" type="line"/>
      <point x="505" y="402" type="line" smooth="yes"/>
      <point x="322" y="402"/>
      <point x="241" y="446"/>
      <point x="241" y="647" type="curve" smooth="yes"/>
      <point x="241" y="714" type="line"/>
      <point x="49" y="714" type="line"/>
      <point x="49" y="629" type="line" smooth="yes"/>
      <point x="49" y="391"/>
      <point x="174" y="256"/>
      <point x="381" y="256" type="curve" smooth="yes"/>
      <point x="391" y="256" type="line"/>
    </contour>
  </outline>
</glyph>
<glyph name="uni14EF" format="2">
  <advance width="642"/>
  <unicode hex="14EF"/>
  <note>
uni14EF
</note>
  <outline>
    <contour>
      <point x="59" y="0" type="line"/>
      <point x="251" y="0" type="line"/>
      <point x="251" y="256" type="line"/>
      <point x="261" y="256" type="line" smooth="yes"/>
      <point x="468" y="256"/>
      <point x="593" y="391"/>
      <point x="593" y="629" type="curve" smooth="yes"/>
      <point x="593" y="714" type="line"/>
      <point x="401" y="714" type="line"/>
      <point x="401" y="647" type="line" smooth="yes"/>
      <point x="401" y="446"/>
      <point x="320" y="402"/>
      <point x="137" y="402" type="curve" smooth="yes"/>
      <point x="59" y="402" type="line"/>
    </contour>
  </outline>
</glyph>
<glyph name="uni14F1" format="2">
  <advance width="642"/>
  <unicode hex="14F1"/>
  <note>
uni14F1
</note>
  <outline>
    <contour>
      <point x="49" y="0" type="line"/>
      <point x="241" y="0" type="line"/>
      <point x="241" y="67" type="line" smooth="yes"/>
      <point x="241" y="268"/>
      <point x="322" y="312"/>
      <point x="505" y="312" type="curve" smooth="yes"/>
      <point x="583" y="312" type="line"/>
      <point x="583" y="714" type="line"/>
      <point x="391" y="714" type="line"/>
      <point x="391" y="458" type="line"/>
      <point x="381" y="458" type="line" smooth="yes"/>
      <point x="174" y="458"/>
      <point x="49" y="323"/>
      <point x="49" y="85" type="curve" smooth="yes"/>
    </contour>
  </outline>
</glyph>
<glyph name="uni14F4" format="2">
  <advance width="642"/>
  <unicode hex="14F4"/>
  <note>
uni14F4
</note>
  <outline>
    <contour>
      <point x="401" y="0" type="line"/>
      <point x="593" y="0" type="line"/>
      <point x="593" y="85" type="line" smooth="yes"/>
      <point x="593" y="323"/>
      <point x="468" y="458"/>
      <point x="261" y="458" type="curve" smooth="yes"/>
      <point x="251" y="458" type="line"/>
      <point x="251" y="714" type="line"/>
      <point x="59" y="714" type="line"/>
      <point x="59" y="312" type="line"/>
      <point x="137" y="312" type="line" smooth="yes"/>
      <point x="320" y="312"/>
      <point x="401" y="268"/>
      <point x="401" y="67" type="curve" smooth="yes"/>
    </contour>
  </outline>
</glyph>
<glyph name="uni1505" format="2">
  <advance width="378"/>
  <unicode hex="1505"/>
  <note>
uni1505
</note>
  <outline>
    <contour>
      <point x="232" y="317" type="line"/>
      <point x="349" y="317" type="line"/>
      <point x="349" y="405" type="line" smooth="yes"/>
      <point x="349" y="539"/>
      <point x="292" y="599"/>
      <point x="162" y="599" type="curve" smooth="yes"/>
      <point x="147" y="599" type="line"/>
      <point x="147" y="714" type="line"/>
      <point x="29" y="714" type="line"/>
      <point x="29" y="491" type="line"/>
      <point x="87" y="491" type="line" smooth="yes"/>
      <point x="198" y="491"/>
      <point x="232" y="466"/>
      <point x="232" y="376" type="curve" smooth="yes"/>
    </contour>
  </outline>
</glyph>
<glyph name="uni1506" format="2">
	<advance width="389"/>
	<unicode hex="1506"/>
	<note>
		uni1506
	</note>
	<outline>
		<contour>
			<point x="204" y="153" type="curve" smooth="yes"/>
			<point x="293" y="153"/>
			<point x="355" y="197"/>
			<point x="355" y="266" type="curve" smooth="yes"/>
			<point x="355" y="342"/>
			<point x="279" y="375"/>
			<point x="207" y="403" type="curve" smooth="yes"/>
			<point x="163" y="420"/>
			<point x="148" y="426"/>
			<point x="148" y="443" type="curve" smooth="yes"/>
			<point x="148" y="456"/>
			<point x="158" y="465"/>
			<point x="183" y="465" type="curve" smooth="yes"/>
			<point x="214" y="465"/>
			<point x="238" y="451"/>
			<point x="262" y="424" type="curve"/>
			<point x="360" y="470" type="line"/>
			<point x="320" y="523"/>
			<point x="269" y="562"/>
			<point x="186" y="562" type="curve" smooth="yes"/>
			<point x="97" y="562"/>
			<point x="34" y="518"/>
			<point x="34" y="449" type="curve" smooth="yes"/>
			<point x="34" y="374"/>
			<point x="110" y="339"/>
			<point x="182" y="312" type="curve" smooth="yes"/>
			<point x="215" y="300"/>
			<point x="241" y="290"/>
			<point x="241" y="272" type="curve" smooth="yes"/>
			<point x="241" y="258"/>
			<point x="226" y="250"/>
			<point x="205" y="250" type="curve" smooth="yes"/>
			<point x="176" y="250"/>
			<point x="151" y="264"/>
			<point x="127" y="291" type="curve"/>
			<point x="29" y="245" type="line"/>
			<point x="69" y="192"/>
			<point x="120" y="153"/>
		</contour>
	</outline>
</glyph>
<glyph name="uni1507" format="2">
  <advance width="378"/>
  <unicode hex="1507"/>
  <note>
uni1507
</note>
  <outline>
    <contour>
      <point x="29" y="317" type="line"/>
      <point x="146" y="317" type="line"/>
      <point x="146" y="376" type="line" smooth="yes"/>
      <point x="146" y="466"/>
      <point x="180" y="491"/>
      <point x="291" y="491" type="curve" smooth="yes"/>
      <point x="349" y="491" type="line"/>
      <point x="349" y="714" type="line"/>
      <point x="231" y="714" type="line"/>
      <point x="231" y="599" type="line"/>
      <point x="216" y="599" type="line" smooth="yes"/>
      <point x="86" y="599"/>
      <point x="29" y="539"/>
      <point x="29" y="405" type="curve" smooth="yes"/>
    </contour>
  </outline>
</glyph>
<glyph name="uni1508" format="2">
  <advance width="446"/>
  <unicode hex="1508"/>
  <note>
uni1508
</note>
  <outline>
    <contour>
      <point x="214" y="317" type="curve" smooth="yes"/>
      <point x="417" y="317" type="line"/>
      <point x="417" y="426" type="line"/>
      <point x="293" y="426" type="line" smooth="yes"/>
      <point x="192" y="426"/>
      <point x="148" y="440"/>
      <point x="148" y="562" type="curve" smooth="yes"/>
      <point x="148" y="702" type="line"/>
      <point x="29" y="702" type="line"/>
      <point x="29" y="526" type="line" smooth="yes"/>
      <point x="29" y="383"/>
      <point x="99" y="317"/>
    </contour>
  </outline>
</glyph>
<glyph name="uni1509" format="2">
  <advance width="378"/>
  <unicode hex="1509"/>
  <note>
uni1509
</note>
  <outline>
    <contour>
      <point x="182" y="234" type="curve" smooth="yes"/>
      <point x="294" y="234"/>
      <point x="349" y="305"/>
      <point x="349" y="417" type="curve" smooth="yes"/>
      <point x="349" y="541"/>
      <point x="283" y="599"/>
      <point x="164" y="599" type="curve" smooth="yes"/>
      <point x="147" y="599" type="line"/>
      <point x="147" y="714" type="line"/>
      <point x="29" y="714" type="line"/>
      <point x="29" y="498" type="line"/>
      <point x="98" y="498" type="line" smooth="yes"/>
      <point x="213" y="498"/>
      <point x="236" y="438"/>
      <point x="236" y="375" type="curve" smooth="yes"/>
      <point x="236" y="324"/>
      <point x="221" y="308"/>
      <point x="194" y="308" type="curve" smooth="yes"/>
      <point x="168" y="308"/>
      <point x="157" y="328"/>
      <point x="157" y="349" type="curve" smooth="yes"/>
      <point x="157" y="377"/>
      <point x="180" y="400"/>
      <point x="240" y="400" type="curve" smooth="yes"/>
      <point x="256" y="400" type="line"/>
      <point x="256" y="469" type="line"/>
      <point x="245" y="469" type="line" smooth="yes"/>
      <point x="123" y="469"/>
      <point x="49" y="434"/>
      <point x="49" y="345" type="curve" smooth="yes"/>
      <point x="49" y="275"/>
      <point x="95" y="234"/>
    </contour>
  </outline>
</glyph>
<glyph name="uni150A" format="2">
  <advance width="378"/>
  <unicode hex="150A"/>
  <note>
uni150A
</note>
  <outline>
    <contour>
      <point x="196" y="234" type="curve" smooth="yes"/>
      <point x="283" y="234"/>
      <point x="329" y="275"/>
      <point x="329" y="345" type="curve" smooth="yes"/>
      <point x="329" y="434"/>
      <point x="255" y="469"/>
      <point x="133" y="469" type="curve" smooth="yes"/>
      <point x="122" y="469" type="line"/>
      <point x="122" y="400" type="line"/>
      <point x="138" y="400" type="line" smooth="yes"/>
      <point x="198" y="400"/>
      <point x="221" y="377"/>
      <point x="221" y="349" type="curve" smooth="yes"/>
      <point x="221" y="328"/>
      <point x="210" y="308"/>
      <point x="184" y="308" type="curve" smooth="yes"/>
      <point x="157" y="308"/>
      <point x="142" y="324"/>
      <point x="142" y="375" type="curve" smooth="yes"/>
      <point x="142" y="438"/>
      <point x="165" y="498"/>
      <point x="280" y="498" type="curve" smooth="yes"/>
      <point x="349" y="498" type="line"/>
      <point x="349" y="714" type="line"/>
      <point x="231" y="714" type="line"/>
      <point x="231" y="599" type="line"/>
      <point x="214" y="599" type="line" smooth="yes"/>
      <point x="95" y="599"/>
      <point x="29" y="541"/>
      <point x="29" y="417" type="curve" smooth="yes"/>
      <point x="29" y="305"/>
      <point x="84" y="234"/>
    </contour>
  </outline>
</glyph>
<glyph name="uni150B" format="2">
  <advance width="424"/>
  <unicode hex="150B"/>
  <note>
uni150B
</note>
  <outline>
    <contour>
      <point x="255" y="322" type="line"/>
      <point x="372" y="322" type="line"/>
      <point x="372" y="384" type="line" smooth="yes"/>
      <point x="372" y="517"/>
      <point x="315" y="578"/>
      <point x="185" y="578" type="curve" smooth="yes"/>
      <point x="170" y="578" type="line"/>
      <point x="170" y="667" type="line"/>
      <point x="52" y="667" type="line"/>
      <point x="52" y="470" type="line"/>
      <point x="110" y="470" type="line" smooth="yes"/>
      <point x="221" y="470"/>
      <point x="255" y="445"/>
      <point x="255" y="355" type="curve" smooth="yes"/>
    </contour>
    <contour>
      <point x="311" y="125" type="curve" smooth="yes"/>
      <point x="357" y="125"/>
      <point x="395" y="162"/>
      <point x="395" y="209" type="curve" smooth="yes"/>
      <point x="395" y="255"/>
      <point x="357" y="293"/>
      <point x="311" y="293" type="curve" smooth="yes"/>
      <point x="264" y="293"/>
      <point x="227" y="255"/>
      <point x="227" y="209" type="curve" smooth="yes"/>
      <point x="227" y="162"/>
      <point x="264" y="125"/>
    </contour>
    <contour>
      <point x="113" y="696" type="curve" smooth="yes"/>
      <point x="159" y="696"/>
      <point x="197" y="733"/>
      <point x="197" y="780" type="curve" smooth="yes"/>
      <point x="197" y="826"/>
      <point x="159" y="864"/>
      <point x="113" y="864" type="curve" smooth="yes"/>
      <point x="66" y="864"/>
      <point x="29" y="826"/>
      <point x="29" y="780" type="curve" smooth="yes"/>
      <point x="29" y="733"/>
      <point x="66" y="696"/>
    </contour>
  </outline>
</glyph>
<glyph name="uni150C" format="2">
  <advance width="732"/>
  <unicode hex="150C"/>
  <note>
uni150C
</note>
  <outline>
    <contour>
      <point x="648" y="-10" type="line"/>
      <point x="693" y="-10" type="line"/>
      <point x="693" y="160" type="line"/>
      <point x="340" y="358" type="line"/>
      <point x="693" y="556" type="line"/>
      <point x="693" y="725" type="line"/>
      <point x="648" y="725" type="line"/>
      <point x="29" y="380" type="line"/>
      <point x="29" y="335" type="line"/>
    </contour>
    <contour>
      <point x="117" y="500" type="curve" smooth="yes"/>
      <point x="163" y="500"/>
      <point x="201" y="537"/>
      <point x="201" y="584" type="curve" smooth="yes"/>
      <point x="201" y="630"/>
      <point x="163" y="668"/>
      <point x="117" y="668" type="curve" smooth="yes"/>
      <point x="70" y="668"/>
      <point x="33" y="630"/>
      <point x="33" y="584" type="curve" smooth="yes"/>
      <point x="33" y="537"/>
      <point x="70" y="500"/>
    </contour>
    <contour>
      <point x="283" y="610" type="line"/>
      <point x="400" y="610" type="line"/>
      <point x="400" y="677" type="line" smooth="yes"/>
      <point x="400" y="810"/>
      <point x="343" y="871"/>
      <point x="213" y="871" type="curve" smooth="yes"/>
      <point x="198" y="871" type="line"/>
      <point x="198" y="960" type="line"/>
      <point x="80" y="960" type="line"/>
      <point x="80" y="763" type="line"/>
      <point x="138" y="763" type="line" smooth="yes"/>
      <point x="249" y="763"/>
      <point x="283" y="738"/>
      <point x="283" y="648" type="curve" smooth="yes"/>
    </contour>
    <contour>
      <point x="521" y="732" type="curve" smooth="yes"/>
      <point x="567" y="732"/>
      <point x="605" y="769"/>
      <point x="605" y="816" type="curve" smooth="yes"/>
      <point x="605" y="862"/>
      <point x="567" y="900"/>
      <point x="521" y="900" type="curve" smooth="yes"/>
      <point x="474" y="900"/>
      <point x="437" y="862"/>
      <point x="437" y="816" type="curve" smooth="yes"/>
      <point x="437" y="769"/>
      <point x="474" y="732"/>
    </contour>
  </outline>
</glyph>
<glyph name="uni1510" format="2">
  <advance width="867"/>
  <unicode hex="1510"/>
  <note>
uni1510
</note>
  <outline>
    <contour>
      <point x="583" y="-12" type="curve" smooth="yes"/>
      <point x="741" y="-12"/>
      <point x="818" y="70"/>
      <point x="818" y="249" type="curve" smooth="yes"/>
      <point x="818" y="299" type="line"/>
      <point x="628" y="299" type="line"/>
      <point x="628" y="230" type="line" smooth="yes"/>
      <point x="628" y="167"/>
      <point x="614" y="141"/>
      <point x="578" y="141" type="curve" smooth="yes"/>
      <point x="542" y="141"/>
      <point x="528" y="166"/>
      <point x="528" y="230" type="curve" smooth="yes"/>
      <point x="528" y="484" type="line" smooth="yes"/>
      <point x="528" y="644"/>
      <point x="443" y="726"/>
      <point x="285" y="726" type="curve" smooth="yes"/>
      <point x="126" y="726"/>
      <point x="49" y="644"/>
      <point x="49" y="465" type="curve" smooth="yes"/>
      <point x="49" y="415" type="line"/>
      <point x="239" y="415" type="line"/>
      <point x="239" y="484" type="line" smooth="yes"/>
      <point x="239" y="543"/>
      <point x="252" y="573"/>
      <point x="290" y="573" type="curve" smooth="yes"/>
      <point x="324" y="573"/>
      <point x="339" y="550"/>
      <point x="339" y="484" type="curve" smooth="yes"/>
      <point x="339" y="230" type="line" smooth="yes"/>
      <point x="339" y="70"/>
      <point x="424" y="-12"/>
    </contour>
  </outline>
</glyph>
<glyph name="uni1511" format="2">
  <advance width="867"/>
  <unicode hex="1511"/>
  <note>
uni1511
</note>
  <outline>
    <contour>
      <point x="284" y="-12" type="curve" smooth="yes"/>
      <point x="443" y="-12"/>
      <point x="528" y="70"/>
      <point x="528" y="230" type="curve" smooth="yes"/>
      <point x="528" y="484" type="line"/>
      <point x="528" y="550"/>
      <point x="543" y="573"/>
      <point x="577" y="573" type="curve" smooth="yes"/>
      <point x="615" y="573"/>
      <point x="628" y="543"/>
      <point x="628" y="484" type="curve" smooth="yes"/>
      <point x="628" y="415" type="line"/>
      <point x="818" y="415" type="line"/>
      <point x="818" y="465" type="line" smooth="yes"/>
      <point x="818" y="644"/>
      <point x="741" y="726"/>
      <point x="582" y="726" type="curve" smooth="yes"/>
      <point x="424" y="726"/>
      <point x="339" y="644"/>
      <point x="339" y="484" type="curve" smooth="yes"/>
      <point x="339" y="230" type="line" smooth="yes"/>
      <point x="339" y="166"/>
      <point x="325" y="141"/>
      <point x="289" y="141" type="curve" smooth="yes"/>
      <point x="253" y="141"/>
      <point x="239" y="167"/>
      <point x="239" y="230" type="curve" smooth="yes"/>
      <point x="239" y="299" type="line"/>
      <point x="49" y="299" type="line"/>
      <point x="49" y="249" type="line" smooth="yes"/>
      <point x="49" y="70"/>
      <point x="126" y="-12"/>
    </contour>
  </outline>
</glyph>
<glyph name="uni1513" format="2">
  <advance width="1028"/>
  <unicode hex="1513"/>
  <note>
uni1513
</note>
  <outline>
    <contour>
      <point x="188" y="-17" type="curve"/>
      <point x="315" y="105" type="line"/>
      <point x="268" y="139"/>
      <point x="239" y="172"/>
      <point x="239" y="216" type="curve" smooth="yes"/>
      <point x="239" y="252"/>
      <point x="260" y="279"/>
      <point x="297" y="279" type="curve" smooth="yes"/>
      <point x="362" y="279"/>
      <point x="416" y="199"/>
      <point x="469" y="137" type="curve" smooth="yes"/>
      <point x="557" y="34"/>
      <point x="630" y="-12"/>
      <point x="736" y="-12" type="curve" smooth="yes"/>
      <point x="889" y="-12"/>
      <point x="979" y="85"/>
      <point x="979" y="205" type="curve" smooth="yes"/>
      <point x="979" y="307"/>
      <point x="914" y="401"/>
      <point x="843" y="447" type="curve"/>
      <point x="713" y="325" type="line"/>
      <point x="756" y="294"/>
      <point x="789" y="260"/>
      <point x="789" y="214" type="curve" smooth="yes"/>
      <point x="789" y="177"/>
      <point x="768" y="151"/>
      <point x="732" y="151" type="curve" smooth="yes"/>
      <point x="683" y="151"/>
      <point x="642" y="198"/>
      <point x="579" y="269" type="curve" smooth="yes"/>
      <point x="495" y="364"/>
      <point x="425" y="442"/>
      <point x="292" y="442" type="curve" smooth="yes"/>
      <point x="143" y="442"/>
      <point x="49" y="345"/>
      <point x="49" y="225" type="curve" smooth="yes"/>
      <point x="49" y="124"/>
      <point x="116" y="30"/>
    </contour>
  </outline>
</glyph>
<glyph name="uni1515" format="2">
  <advance width="1028"/>
  <unicode hex="1515"/>
  <note>
uni1515
</note>
  <outline>
    <contour>
      <point x="843" y="-17" type="line"/>
      <point x="914" y="29"/>
      <point x="979" y="123"/>
      <point x="979" y="225" type="curve" smooth="yes"/>
      <point x="979" y="345"/>
      <point x="889" y="442"/>
      <point x="736" y="442" type="curve" smooth="yes"/>
      <point x="630" y="442"/>
      <point x="557" y="396"/>
      <point x="469" y="293" type="curve" smooth="yes"/>
      <point x="416" y="231"/>
      <point x="362" y="151"/>
      <point x="297" y="151" type="curve" smooth="yes"/>
      <point x="260" y="151"/>
      <point x="239" y="178"/>
      <point x="239" y="214" type="curve" smooth="yes"/>
      <point x="239" y="258"/>
      <point x="268" y="291"/>
      <point x="315" y="325" type="curve"/>
      <point x="188" y="447" type="line"/>
      <point x="116" y="400"/>
      <point x="49" y="306"/>
      <point x="49" y="205" type="curve" smooth="yes"/>
      <point x="49" y="85"/>
      <point x="143" y="-12"/>
      <point x="292" y="-12" type="curve" smooth="yes"/>
      <point x="425" y="-12"/>
      <point x="495" y="66"/>
      <point x="579" y="161" type="curve" smooth="yes"/>
      <point x="642" y="232"/>
      <point x="683" y="279"/>
      <point x="732" y="279" type="curve" smooth="yes"/>
      <point x="768" y="279"/>
      <point x="789" y="253"/>
      <point x="789" y="216" type="curve" smooth="yes"/>
      <point x="789" y="170"/>
      <point x="756" y="136"/>
      <point x="713" y="105" type="curve"/>
    </contour>
  </outline>
</glyph>
<glyph name="uni1525" format="2">
  <advance width="687"/>
  <unicode hex="1525"/>
  <note>
uni1525
</note>
  <outline>
    <contour>
      <point x="546" y="358" type="line"/>
      <point x="606" y="402"/>
      <point x="658" y="465"/>
      <point x="658" y="563" type="curve" smooth="yes"/>
      <point x="658" y="660"/>
      <point x="606" y="725"/>
      <point x="504" y="725" type="curve" smooth="yes"/>
      <point x="434" y="725"/>
      <point x="397" y="694"/>
      <point x="307" y="584" type="curve" smooth="yes"/>
      <point x="246" y="509"/>
      <point x="218" y="467"/>
      <point x="182" y="467" type="curve" smooth="yes"/>
      <point x="160" y="467"/>
      <point x="147" y="487"/>
      <point x="147" y="518" type="curve" smooth="yes"/>
      <point x="147" y="567"/>
      <point x="172" y="604"/>
      <point x="213" y="645" type="curve"/>
      <point x="140" y="725" type="line"/>
      <point x="79" y="675"/>
      <point x="29" y="608"/>
      <point x="29" y="517" type="curve" smooth="yes"/>
      <point x="29" y="420"/>
      <point x="86" y="359"/>
      <point x="179" y="359" type="curve" smooth="yes"/>
      <point x="273" y="359"/>
      <point x="315" y="421"/>
      <point x="375" y="496" type="curve" smooth="yes"/>
      <point x="459" y="601"/>
      <point x="479" y="617"/>
      <point x="501" y="617" type="curve" smooth="yes"/>
      <point x="528" y="617"/>
      <point x="540" y="595"/>
      <point x="540" y="559" type="curve" smooth="yes"/>
      <point x="540" y="508"/>
      <point x="516" y="471"/>
      <point x="478" y="440" type="curve"/>
    </contour>
  </outline>
</glyph>
<glyph name="uni1526" format="2">
  <advance width="618"/>
  <unicode hex="1526"/>
  <note>
uni1526
</note>
  <outline>
    <contour>
      <point x="376" y="0" type="line"/>
      <point x="569" y="0" type="line"/>
      <point x="569" y="376" type="line"/>
      <point x="321" y="376" type="line"/>
      <point x="499" y="628" type="line"/>
      <point x="354" y="726" type="line"/>
      <point x="29" y="265" type="line"/>
      <point x="29" y="220" type="line"/>
      <point x="376" y="220" type="line"/>
    </contour>
  </outline>
</glyph>
<glyph name="uni1528" format="2">
  <advance width="618"/>
  <unicode hex="1528"/>
  <note>
uni1528
</note>
  <outline>
    <contour>
      <point x="49" y="0" type="line"/>
      <point x="242" y="0" type="line"/>
      <point x="242" y="220" type="line"/>
      <point x="589" y="220" type="line"/>
      <point x="589" y="265" type="line"/>
      <point x="264" y="726" type="line"/>
      <point x="119" y="628" type="line"/>
      <point x="297" y="376" type="line"/>
      <point x="49" y="376" type="line"/>
    </contour>
  </outline>
</glyph>
<glyph name="uni152A" format="2">
  <advance width="618"/>
  <unicode hex="152A"/>
  <note>
uni152A
</note>
  <outline>
    <contour>
      <point x="354" y="-12" type="line"/>
      <point x="499" y="86" type="line"/>
      <point x="321" y="338" type="line"/>
      <point x="569" y="338" type="line"/>
      <point x="569" y="714" type="line"/>
      <point x="376" y="714" type="line"/>
      <point x="376" y="494" type="line"/>
      <point x="29" y="494" type="line"/>
      <point x="29" y="449" type="line"/>
    </contour>
  </outline>
</glyph>
<glyph name="uni152D" format="2">
  <advance width="618"/>
  <unicode hex="152D"/>
  <note>
uni152D
</note>
  <outline>
    <contour>
      <point x="264" y="-12" type="line"/>
      <point x="589" y="449" type="line"/>
      <point x="589" y="494" type="line"/>
      <point x="242" y="494" type="line"/>
      <point x="242" y="714" type="line"/>
      <point x="49" y="714" type="line"/>
      <point x="49" y="338" type="line"/>
      <point x="297" y="338" type="line"/>
      <point x="119" y="86" type="line"/>
    </contour>
  </outline>
</glyph>
<glyph name="uni153E" format="2">
  <advance width="398"/>
  <unicode hex="153E"/>
  <note>
uni153E
</note>
  <outline>
    <contour>
      <point x="170" y="279" type="line"/>
      <point x="369" y="561" type="line"/>
      <point x="369" y="589" type="line"/>
      <point x="157" y="589" type="line"/>
      <point x="157" y="714" type="line"/>
      <point x="39" y="714" type="line"/>
      <point x="39" y="480" type="line"/>
      <point x="182" y="480" type="line"/>
      <point x="82" y="340" type="line"/>
    </contour>
  </outline>
</glyph>
<glyph name="uni153F" format="2">
  <advance width="581"/>
  <unicode hex="153F"/>
  <note>
uni153F
</note>
  <outline>
    <contour>
      <point x="29" y="317" type="line"/>
      <point x="133" y="317" type="line"/>
      <point x="172" y="525" type="line"/>
      <point x="260" y="316" type="line"/>
      <point x="321" y="316" type="line"/>
      <point x="409" y="525" type="line"/>
      <point x="448" y="317" type="line"/>
      <point x="552" y="317" type="line"/>
      <point x="552" y="350" type="line"/>
      <point x="479" y="714" type="line"/>
      <point x="389" y="714" type="line"/>
      <point x="294" y="486" type="line"/>
      <point x="192" y="714" type="line"/>
      <point x="102" y="714" type="line"/>
      <point x="29" y="350" type="line"/>
    </contour>
  </outline>
</glyph>
<glyph name="uni1540" format="2">
  <advance width="394"/>
  <unicode hex="1540"/>
  <note>
uni1540
</note>
  <outline>
    <contour>
      <point x="139" y="202" type="line"/>
      <point x="255" y="202" type="line"/>
      <point x="255" y="315" type="line"/>
      <point x="365" y="315" type="line"/>
      <point x="365" y="421" type="line"/>
      <point x="255" y="421" type="line"/>
      <point x="255" y="534" type="line"/>
      <point x="139" y="534" type="line"/>
      <point x="139" y="421" type="line"/>
      <point x="29" y="421" type="line"/>
      <point x="29" y="315" type="line"/>
      <point x="139" y="315" type="line"/>
    </contour>
  </outline>
</glyph>
<glyph name="uni1541" format="2">
  <advance width="441"/>
  <unicode hex="1541"/>
  <note>
uni1541
</note>
  <outline>
    <contour>
      <point x="281" y="206" type="line"/>
      <point x="412" y="206" type="line"/>
      <point x="160" y="553" type="line"/>
      <point x="29" y="553" type="line"/>
    </contour>
    <contour>
      <point x="29" y="206" type="line"/>
      <point x="160" y="206" type="line"/>
      <point x="412" y="553" type="line"/>
      <point x="281" y="553" type="line"/>
    </contour>
  </outline>
</glyph>
<glyph name="uni1542" format="2">
  <advance width="976"/>
  <unicode hex="1542"/>
  <note>
uni1542
</note>
  <outline>
    <contour>
      <point x="385" y="-12" type="curve" smooth="yes"/>
      <point x="595" y="-12"/>
      <point x="719" y="110"/>
      <point x="719" y="311" type="curve" smooth="yes"/>
      <point x="719" y="361" type="line"/>
      <point x="937" y="361" type="line"/>
      <point x="937" y="517" type="line"/>
      <point x="526" y="517" type="line"/>
      <point x="526" y="293" type="line" smooth="yes"/>
      <point x="526" y="202"/>
      <point x="475" y="151"/>
      <point x="384" y="151" type="curve" smooth="yes"/>
      <point x="294" y="151"/>
      <point x="242" y="202"/>
      <point x="242" y="293" type="curve" smooth="yes"/>
      <point x="242" y="517" type="line"/>
      <point x="49" y="517" type="line"/>
      <point x="49" y="311" type="line" smooth="yes"/>
      <point x="49" y="109"/>
      <point x="176" y="-12"/>
    </contour>
  </outline>
</glyph>
<glyph name="uni1543" format="2">
  <advance width="976"/>
  <unicode hex="1543"/>
  <note>
uni1543
</note>
  <outline>
    <contour>
      <point x="591" y="-12" type="curve" smooth="yes"/>
      <point x="800" y="-12"/>
      <point x="927" y="109"/>
      <point x="927" y="311" type="curve" smooth="yes"/>
      <point x="927" y="517" type="line"/>
      <point x="734" y="517" type="line"/>
      <point x="734" y="293" type="line" smooth="yes"/>
      <point x="734" y="202"/>
      <point x="682" y="151"/>
      <point x="592" y="151" type="curve" smooth="yes"/>
      <point x="501" y="151"/>
      <point x="450" y="202"/>
      <point x="450" y="293" type="curve" smooth="yes"/>
      <point x="450" y="517" type="line"/>
      <point x="39" y="517" type="line"/>
      <point x="39" y="361" type="line"/>
      <point x="257" y="361" type="line"/>
      <point x="257" y="311" type="line" smooth="yes"/>
      <point x="257" y="110"/>
      <point x="381" y="-12"/>
    </contour>
  </outline>
</glyph>
<glyph name="uni1544" format="2">
  <advance width="976"/>
  <unicode hex="1544"/>
  <note>
uni1544
</note>
  <outline>
    <contour>
      <point x="39" y="0" type="line"/>
      <point x="450" y="0" type="line"/>
      <point x="450" y="224" type="line" smooth="yes"/>
      <point x="450" y="315"/>
      <point x="501" y="366"/>
      <point x="592" y="366" type="curve" smooth="yes"/>
      <point x="682" y="366"/>
      <point x="734" y="315"/>
      <point x="734" y="224" type="curve" smooth="yes"/>
      <point x="734" y="0" type="line"/>
      <point x="927" y="0" type="line"/>
      <point x="927" y="206" type="line" smooth="yes"/>
      <point x="927" y="408"/>
      <point x="800" y="529"/>
      <point x="591" y="529" type="curve" smooth="yes"/>
      <point x="381" y="529"/>
      <point x="257" y="407"/>
      <point x="257" y="206" type="curve" smooth="yes"/>
      <point x="257" y="156" type="line"/>
      <point x="39" y="156" type="line"/>
    </contour>
  </outline>
</glyph>
<glyph name="uni1546" format="2">
  <advance width="976"/>
  <unicode hex="1546"/>
  <note>
uni1546
</note>
  <outline>
    <contour>
      <point x="49" y="0" type="line"/>
      <point x="242" y="0" type="line"/>
      <point x="242" y="224" type="line" smooth="yes"/>
      <point x="242" y="315"/>
      <point x="294" y="366"/>
      <point x="384" y="366" type="curve" smooth="yes"/>
      <point x="475" y="366"/>
      <point x="526" y="315"/>
      <point x="526" y="224" type="curve" smooth="yes"/>
      <point x="526" y="0" type="line"/>
      <point x="937" y="0" type="line"/>
      <point x="937" y="156" type="line"/>
      <point x="719" y="156" type="line"/>
      <point x="719" y="206" type="line" smooth="yes"/>
      <point x="719" y="407"/>
      <point x="595" y="529"/>
      <point x="385" y="529" type="curve" smooth="yes"/>
      <point x="176" y="529"/>
      <point x="49" y="408"/>
      <point x="49" y="206" type="curve" smooth="yes"/>
    </contour>
  </outline>
</glyph>
<glyph name="uni1548" format="2">
  <advance width="626"/>
  <unicode hex="1548"/>
  <note>
uni1548
</note>
  <outline>
    <contour>
      <point x="59" y="1" type="line"/>
      <point x="252" y="1" type="line"/>
      <point x="252" y="197" type="line"/>
      <point x="314" y="197" type="line" smooth="yes"/>
      <point x="487" y="197"/>
      <point x="587" y="291"/>
      <point x="587" y="454" type="curve" smooth="yes"/>
      <point x="587" y="622"/>
      <point x="487" y="714"/>
      <point x="314" y="714" type="curve" smooth="yes"/>
      <point x="59" y="714" type="line"/>
      <point x="59" y="558" type="line"/>
      <point x="284" y="558" type="line" smooth="yes"/>
      <point x="358" y="558"/>
      <point x="399" y="524"/>
      <point x="399" y="455" type="curve" smooth="yes"/>
      <point x="399" y="388"/>
      <point x="357" y="353"/>
      <point x="284" y="353" type="curve" smooth="yes"/>
      <point x="59" y="353" type="line"/>
    </contour>
  </outline>
</glyph>
<glyph name="uni154A" format="2">
  <advance width="626"/>
  <unicode hex="154A"/>
  <note>
uni154A
</note>
  <outline>
    <contour>
      <point x="59" y="0" type="line"/>
      <point x="314" y="0" type="line" smooth="yes"/>
      <point x="487" y="0"/>
      <point x="587" y="92"/>
      <point x="587" y="260" type="curve" smooth="yes"/>
      <point x="587" y="423"/>
      <point x="487" y="517"/>
      <point x="314" y="517" type="curve" smooth="yes"/>
      <point x="252" y="517" type="line"/>
      <point x="252" y="713" type="line"/>
      <point x="59" y="713" type="line"/>
      <point x="59" y="361" type="line"/>
      <point x="284" y="361" type="line" smooth="yes"/>
      <point x="357" y="361"/>
      <point x="399" y="326"/>
      <point x="399" y="259" type="curve" smooth="yes"/>
      <point x="399" y="190"/>
      <point x="358" y="156"/>
      <point x="284" y="156" type="curve" smooth="yes"/>
      <point x="59" y="156" type="line"/>
    </contour>
  </outline>
</glyph>
<glyph name="uni154B" format="2">
  <advance width="626"/>
  <unicode hex="154B"/>
  <note>
uni154B
</note>
  <outline>
    <contour>
      <point x="374" y="0" type="line"/>
      <point x="567" y="0" type="line"/>
      <point x="567" y="352" type="line"/>
      <point x="342" y="352" type="line" smooth="yes"/>
      <point x="269" y="352"/>
      <point x="227" y="387"/>
      <point x="227" y="454" type="curve" smooth="yes"/>
      <point x="227" y="523"/>
      <point x="268" y="557"/>
      <point x="342" y="557" type="curve" smooth="yes"/>
      <point x="567" y="557" type="line"/>
      <point x="567" y="713" type="line"/>
      <point x="312" y="713" type="line" smooth="yes"/>
      <point x="139" y="713"/>
      <point x="39" y="621"/>
      <point x="39" y="453" type="curve" smooth="yes"/>
      <point x="39" y="290"/>
      <point x="139" y="196"/>
      <point x="312" y="196" type="curve" smooth="yes"/>
      <point x="374" y="196" type="line"/>
    </contour>
  </outline>
</glyph>
<glyph name="uni154D" format="2">
  <advance width="626"/>
  <unicode hex="154D"/>
  <note>
uni154D
</note>
  <outline>
    <contour>
      <point x="312" y="0" type="curve" smooth="yes"/>
      <point x="567" y="0" type="line"/>
      <point x="567" y="156" type="line"/>
      <point x="342" y="156" type="line" smooth="yes"/>
      <point x="268" y="156"/>
      <point x="227" y="190"/>
      <point x="227" y="259" type="curve" smooth="yes"/>
      <point x="227" y="326"/>
      <point x="269" y="361"/>
      <point x="342" y="361" type="curve" smooth="yes"/>
      <point x="567" y="361" type="line"/>
      <point x="567" y="713" type="line"/>
      <point x="374" y="713" type="line"/>
      <point x="374" y="517" type="line"/>
      <point x="312" y="517" type="line" smooth="yes"/>
      <point x="139" y="517"/>
      <point x="39" y="423"/>
      <point x="39" y="260" type="curve" smooth="yes"/>
      <point x="39" y="92"/>
      <point x="139" y="0"/>
    </contour>
  </outline>
</glyph>
<glyph name="uni1550" format="2">
  <advance width="391"/>
  <unicode hex="1550"/>
  <note>
uni1550
</note>
  <outline>
    <contour>
      <point x="234" y="317" type="line"/>
      <point x="352" y="317" type="line"/>
      <point x="352" y="509" type="line"/>
      <point x="226" y="509" type="line" smooth="yes"/>
      <point x="161" y="509"/>
      <point x="147" y="528"/>
      <point x="147" y="558" type="curve" smooth="yes"/>
      <point x="147" y="587"/>
      <point x="164" y="606"/>
      <point x="226" y="606" type="curve" smooth="yes"/>
      <point x="352" y="606" type="line"/>
      <point x="352" y="714" type="line"/>
      <point x="223" y="714" type="line" smooth="yes"/>
      <point x="105" y="714"/>
      <point x="29" y="654"/>
      <point x="29" y="557" type="curve" smooth="yes"/>
      <point x="29" y="457"/>
      <point x="103" y="401"/>
      <point x="223" y="401" type="curve" smooth="yes"/>
      <point x="234" y="401" type="line"/>
    </contour>
  </outline>
</glyph>
<glyph name="uni1551" format="2">
  <advance width="386"/>
  <unicode hex="1551"/>
  <note>
uni1551
</note>
  <outline>
    <contour>
      <point x="30" y="289" type="line"/>
      <point x="56" y="289" type="line"/>
      <point x="357" y="391" type="line"/>
      <point x="357" y="450" type="line"/>
      <point x="204" y="508" type="line"/>
      <point x="357" y="565" type="line"/>
      <point x="357" y="623" type="line"/>
      <point x="56" y="725" type="line"/>
      <point x="30" y="725" type="line"/>
      <point x="30" y="632" type="line"/>
      <point x="187" y="584" type="line"/>
      <point x="29" y="531" type="line"/>
      <point x="29" y="482" type="line"/>
      <point x="187" y="430" type="line"/>
      <point x="30" y="382" type="line"/>
    </contour>
  </outline>
</glyph>
<glyph name="uni1552" format="2">
  <advance width="653"/>
  <unicode hex="1552"/>
  <note>
uni1552
</note>
  <outline>
    <contour>
      <point x="50" y="-12" type="line"/>
      <point x="95" y="-12" type="line"/>
      <point x="604" y="160" type="line"/>
      <point x="604" y="258" type="line"/>
      <point x="328" y="357" type="line"/>
      <point x="604" y="455" type="line"/>
      <point x="604" y="553" type="line"/>
      <point x="95" y="725" type="line"/>
      <point x="50" y="725" type="line"/>
      <point x="50" y="586" type="line"/>
      <point x="333" y="488" type="line"/>
      <point x="49" y="390" type="line"/>
      <point x="49" y="323" type="line"/>
      <point x="333" y="225" type="line"/>
      <point x="50" y="127" type="line"/>
    </contour>
  </outline>
</glyph>
<glyph name="uni1553" format="2">
  <advance width="820"/>
  <unicode hex="1553"/>
  <note>
uni1553
</note>
  <outline>
    <contour>
      <point x="378" y="-12" type="line"/>
      <point x="423" y="-12" type="line"/>
      <point x="791" y="669" type="line"/>
      <point x="791" y="714" type="line"/>
      <point x="621" y="714" type="line"/>
      <point x="386" y="263" type="line"/>
      <point x="260" y="452" type="line" smooth="yes"/>
      <point x="242" y="479"/>
      <point x="203" y="522"/>
      <point x="203" y="565" type="curve" smooth="yes"/>
      <point x="203" y="598"/>
      <point x="226" y="617"/>
      <point x="250" y="617" type="curve" smooth="yes"/>
      <point x="275" y="617"/>
      <point x="302" y="596"/>
      <point x="302" y="555" type="curve" smooth="yes"/>
      <point x="302" y="514"/>
      <point x="274" y="461"/>
      <point x="194" y="461" type="curve" smooth="yes"/>
      <point x="162" y="461" type="line"/>
      <point x="162" y="363" type="line"/>
      <point x="194" y="363" type="line" smooth="yes"/>
      <point x="352" y="363"/>
      <point x="447" y="439"/>
      <point x="447" y="554" type="curve" smooth="yes"/>
      <point x="447" y="658"/>
      <point x="369" y="726"/>
      <point x="250" y="726" type="curve" smooth="yes"/>
      <point x="126" y="726"/>
      <point x="49" y="653"/>
      <point x="49" y="556" type="curve" smooth="yes"/>
      <point x="49" y="484"/>
      <point x="92" y="412"/>
      <point x="147" y="330" type="curve" smooth="yes"/>
    </contour>
  </outline>
</glyph>
<glyph name="uni1555" format="2">
  <advance width="820"/>
  <unicode hex="1555"/>
  <note>
uni1555
</note>
  <outline>
    <contour>
      <point x="250" y="-12" type="curve" smooth="yes"/>
      <point x="369" y="-12"/>
      <point x="447" y="56"/>
      <point x="447" y="160" type="curve" smooth="yes"/>
      <point x="447" y="275"/>
      <point x="352" y="351"/>
      <point x="194" y="351" type="curve" smooth="yes"/>
      <point x="162" y="351" type="line"/>
      <point x="162" y="253" type="line"/>
      <point x="194" y="253" type="line" smooth="yes"/>
      <point x="274" y="253"/>
      <point x="302" y="200"/>
      <point x="302" y="159" type="curve" smooth="yes"/>
      <point x="302" y="118"/>
      <point x="275" y="97"/>
      <point x="250" y="97" type="curve" smooth="yes"/>
      <point x="226" y="97"/>
      <point x="203" y="116"/>
      <point x="203" y="150" type="curve" smooth="yes"/>
      <point x="203" y="191"/>
      <point x="241" y="234"/>
      <point x="260" y="262" type="curve" smooth="yes"/>
      <point x="386" y="451" type="line"/>
      <point x="621" y="0" type="line"/>
      <point x="791" y="0" type="line"/>
      <point x="791" y="45" type="line"/>
      <point x="423" y="726" type="line"/>
      <point x="378" y="726" type="line"/>
      <point x="147" y="384" type="line" smooth="yes"/>
      <point x="92" y="302"/>
      <point x="49" y="230"/>
      <point x="49" y="158" type="curve" smooth="yes"/>
      <point x="49" y="61"/>
      <point x="126" y="-12"/>
    </contour>
  </outline>
</glyph>
<glyph name="uni1557" format="2">
  <advance width="808"/>
  <unicode hex="1557"/>
  <note>
uni1557
</note>
  <outline>
    <contour>
      <point x="85" y="-10" type="line"/>
      <point x="130" y="-10" type="line"/>
      <point x="779" y="367" type="line"/>
      <point x="779" y="412" type="line"/>
      <point x="475" y="626" type="line" smooth="yes"/>
      <point x="380" y="693"/>
      <point x="334" y="724"/>
      <point x="240" y="724" type="curve" smooth="yes"/>
      <point x="127" y="724"/>
      <point x="39" y="647"/>
      <point x="39" y="527" type="curve" smooth="yes"/>
      <point x="39" y="409"/>
      <point x="125" y="329"/>
      <point x="240" y="329" type="curve" smooth="yes"/>
      <point x="383" y="329"/>
      <point x="443" y="443"/>
      <point x="443" y="582" type="curve" smooth="yes"/>
      <point x="443" y="592" type="line"/>
      <point x="325" y="592" type="line"/>
      <point x="325" y="568" type="line" smooth="yes"/>
      <point x="325" y="502"/>
      <point x="299" y="460"/>
      <point x="253" y="460" type="curve" smooth="yes"/>
      <point x="211" y="460"/>
      <point x="190" y="490"/>
      <point x="190" y="523" type="curve" smooth="yes"/>
      <point x="190" y="559"/>
      <point x="210" y="588"/>
      <point x="253" y="588" type="curve" smooth="yes"/>
      <point x="290" y="588"/>
      <point x="316" y="566"/>
      <point x="334" y="553" type="curve" smooth="yes"/>
      <point x="538" y="411" type="line"/>
      <point x="85" y="148" type="line"/>
    </contour>
  </outline>
</glyph>
<glyph name="uni1559" format="2">
  <advance width="808"/>
  <unicode hex="1559"/>
  <note>
uni1559
</note>
  <outline>
    <contour>
      <point x="678" y="-10" type="line"/>
      <point x="723" y="-10" type="line"/>
      <point x="723" y="148" type="line"/>
      <point x="270" y="411" type="line"/>
      <point x="474" y="553" type="line" smooth="yes"/>
      <point x="492" y="566"/>
      <point x="518" y="588"/>
      <point x="555" y="588" type="curve" smooth="yes"/>
      <point x="598" y="588"/>
      <point x="618" y="559"/>
      <point x="618" y="523" type="curve" smooth="yes"/>
      <point x="618" y="490"/>
      <point x="597" y="460"/>
      <point x="555" y="460" type="curve" smooth="yes"/>
      <point x="509" y="460"/>
      <point x="483" y="502"/>
      <point x="483" y="568" type="curve" smooth="yes"/>
      <point x="483" y="592" type="line"/>
      <point x="365" y="592" type="line"/>
      <point x="365" y="582" type="line" smooth="yes"/>
      <point x="365" y="443"/>
      <point x="425" y="329"/>
      <point x="568" y="329" type="curve" smooth="yes"/>
      <point x="683" y="329"/>
      <point x="769" y="409"/>
      <point x="769" y="527" type="curve" smooth="yes"/>
      <point x="769" y="647"/>
      <point x="681" y="724"/>
      <point x="568" y="724" type="curve" smooth="yes"/>
      <point x="474" y="724"/>
      <point x="428" y="693"/>
      <point x="333" y="626" type="curve" smooth="yes"/>
      <point x="29" y="412" type="line"/>
      <point x="29" y="367" type="line"/>
    </contour>
  </outline>
</glyph>
<glyph name="uni155D" format="2">
  <advance width="510"/>
  <unicode hex="155D"/>
  <note>
uni155D
</note>
  <outline>
    <contour>
      <point x="426" y="277" type="line"/>
      <point x="454" y="277" type="line"/>
      <point x="454" y="391" type="line"/>
      <point x="186" y="535" type="line"/>
      <point x="312" y="629" type="line" smooth="yes"/>
      <point x="323" y="637"/>
      <point x="336" y="642"/>
      <point x="351" y="642" type="curve" smooth="yes"/>
      <point x="379" y="642"/>
      <point x="390" y="629"/>
      <point x="390" y="604" type="curve" smooth="yes"/>
      <point x="390" y="580"/>
      <point x="378" y="562"/>
      <point x="351" y="562" type="curve" smooth="yes"/>
      <point x="320" y="562"/>
      <point x="308" y="584"/>
      <point x="308" y="631" type="curve" smooth="yes"/>
      <point x="308" y="654" type="line"/>
      <point x="234" y="654" type="line"/>
      <point x="234" y="613" type="line" smooth="yes"/>
      <point x="234" y="555"/>
      <point x="274" y="484"/>
      <point x="359" y="484" type="curve" smooth="yes"/>
      <point x="429" y="484"/>
      <point x="481" y="533"/>
      <point x="481" y="606" type="curve" smooth="yes"/>
      <point x="481" y="679"/>
      <point x="428" y="726"/>
      <point x="350" y="726" type="curve" smooth="yes"/>
      <point x="301" y="726"/>
      <point x="274" y="706"/>
      <point x="215" y="667" type="curve" smooth="yes"/>
      <point x="29" y="545" type="line"/>
      <point x="29" y="508" type="line"/>
    </contour>
  </outline>
</glyph>
<glyph name="uni155E" format="2">
  <advance width="793"/>
  <unicode hex="155E"/>
  <note>
uni155E
</note>
  <outline>
    <contour>
      <point x="397" y="-12" type="curve" smooth="yes"/>
      <point x="661" y="-12"/>
      <point x="734" y="132"/>
      <point x="734" y="415" type="curve" smooth="yes"/>
      <point x="734" y="714" type="line"/>
      <point x="541" y="714" type="line"/>
      <point x="541" y="353" type="line" smooth="yes"/>
      <point x="541" y="223"/>
      <point x="518" y="151"/>
      <point x="397" y="151" type="curve" smooth="yes"/>
      <point x="283" y="151"/>
      <point x="248" y="214"/>
      <point x="248" y="341" type="curve" smooth="yes"/>
      <point x="248" y="495" type="line" smooth="yes"/>
      <point x="248" y="573"/>
      <point x="266" y="596"/>
      <point x="304" y="596" type="curve" smooth="yes"/>
      <point x="335" y="596"/>
      <point x="356" y="582"/>
      <point x="356" y="523" type="curve" smooth="yes"/>
      <point x="356" y="472"/>
      <point x="335" y="441"/>
      <point x="273" y="441" type="curve" smooth="yes"/>
      <point x="184" y="441" type="line"/>
      <point x="184" y="311" type="line"/>
      <point x="273" y="311" type="line" smooth="yes"/>
      <point x="403" y="311"/>
      <point x="499" y="375"/>
      <point x="499" y="519" type="curve" smooth="yes"/>
      <point x="499" y="646"/>
      <point x="424" y="726"/>
      <point x="292" y="726" type="curve" smooth="yes"/>
      <point x="160" y="726"/>
      <point x="59" y="645"/>
      <point x="59" y="478" type="curve" smooth="yes"/>
      <point x="59" y="415" type="line" smooth="yes"/>
      <point x="59" y="135"/>
      <point x="131" y="-12"/>
    </contour>
  </outline>
</glyph>
<glyph name="uni155F" format="2">
  <advance width="793"/>
  <unicode hex="155F"/>
  <note>
uni155F
</note>
  <outline>
    <contour>
      <point x="396" y="-12" type="curve" smooth="yes"/>
      <point x="662" y="-12"/>
      <point x="734" y="135"/>
      <point x="734" y="415" type="curve" smooth="yes"/>
      <point x="734" y="478" type="line" smooth="yes"/>
      <point x="734" y="645"/>
      <point x="633" y="726"/>
      <point x="501" y="726" type="curve" smooth="yes"/>
      <point x="369" y="726"/>
      <point x="294" y="646"/>
      <point x="294" y="519" type="curve" smooth="yes"/>
      <point x="294" y="375"/>
      <point x="390" y="311"/>
      <point x="520" y="311" type="curve" smooth="yes"/>
      <point x="609" y="311" type="line"/>
      <point x="609" y="441" type="line"/>
      <point x="520" y="441" type="line" smooth="yes"/>
      <point x="458" y="441"/>
      <point x="437" y="472"/>
      <point x="437" y="523" type="curve" smooth="yes"/>
      <point x="437" y="582"/>
      <point x="458" y="596"/>
      <point x="489" y="596" type="curve" smooth="yes"/>
      <point x="527" y="596"/>
      <point x="545" y="573"/>
      <point x="545" y="495" type="curve" smooth="yes"/>
      <point x="545" y="341" type="line" smooth="yes"/>
      <point x="545" y="214"/>
      <point x="510" y="151"/>
      <point x="396" y="151" type="curve" smooth="yes"/>
      <point x="275" y="151"/>
      <point x="252" y="223"/>
      <point x="252" y="353" type="curve" smooth="yes"/>
      <point x="252" y="714" type="line"/>
      <point x="59" y="714" type="line"/>
      <point x="59" y="415" type="line" smooth="yes"/>
      <point x="59" y="132"/>
      <point x="132" y="-12"/>
    </contour>
  </outline>
</glyph>
<glyph name="uni1560" format="2">
  <advance width="793"/>
  <unicode hex="1560"/>
  <note>
uni1560
</note>
  <outline>
    <contour>
      <point x="292" y="-12" type="curve" smooth="yes"/>
      <point x="424" y="-12"/>
      <point x="499" y="68"/>
      <point x="499" y="195" type="curve" smooth="yes"/>
      <point x="499" y="339"/>
      <point x="403" y="403"/>
      <point x="273" y="403" type="curve" smooth="yes"/>
      <point x="184" y="403" type="line"/>
      <point x="184" y="273" type="line"/>
      <point x="273" y="273" type="line" smooth="yes"/>
      <point x="335" y="273"/>
      <point x="356" y="242"/>
      <point x="356" y="191" type="curve" smooth="yes"/>
      <point x="356" y="132"/>
      <point x="335" y="118"/>
      <point x="304" y="118" type="curve" smooth="yes"/>
      <point x="266" y="118"/>
      <point x="248" y="141"/>
      <point x="248" y="219" type="curve" smooth="yes"/>
      <point x="248" y="373" type="line" smooth="yes"/>
      <point x="248" y="500"/>
      <point x="283" y="563"/>
      <point x="397" y="563" type="curve" smooth="yes"/>
      <point x="518" y="563"/>
      <point x="541" y="491"/>
      <point x="541" y="361" type="curve" smooth="yes"/>
      <point x="541" y="0" type="line"/>
      <point x="734" y="0" type="line"/>
      <point x="734" y="299" type="line" smooth="yes"/>
      <point x="734" y="582"/>
      <point x="661" y="726"/>
      <point x="397" y="726" type="curve" smooth="yes"/>
      <point x="131" y="726"/>
      <point x="59" y="579"/>
      <point x="59" y="299" type="curve" smooth="yes"/>
      <point x="59" y="236" type="line" smooth="yes"/>
      <point x="59" y="69"/>
      <point x="160" y="-12"/>
    </contour>
  </outline>
</glyph>
<glyph name="uni1561" format="2">
  <advance width="793"/>
  <unicode hex="1561"/>
  <note>
uni1561
</note>
  <outline>
    <contour>
      <point x="501" y="-12" type="curve" smooth="yes"/>
      <point x="633" y="-12"/>
      <point x="734" y="69"/>
      <point x="734" y="236" type="curve" smooth="yes"/>
      <point x="734" y="299" type="line" smooth="yes"/>
      <point x="734" y="579"/>
      <point x="662" y="726"/>
      <point x="396" y="726" type="curve" smooth="yes"/>
      <point x="132" y="726"/>
      <point x="59" y="582"/>
      <point x="59" y="299" type="curve" smooth="yes"/>
      <point x="59" y="0" type="line"/>
      <point x="252" y="0" type="line"/>
      <point x="252" y="361" type="line" smooth="yes"/>
      <point x="252" y="491"/>
      <point x="275" y="563"/>
      <point x="396" y="563" type="curve" smooth="yes"/>
      <point x="510" y="563"/>
      <point x="545" y="500"/>
      <point x="545" y="373" type="curve" smooth="yes"/>
      <point x="545" y="219" type="line" smooth="yes"/>
      <point x="545" y="141"/>
      <point x="527" y="118"/>
      <point x="489" y="118" type="curve" smooth="yes"/>
      <point x="458" y="118"/>
      <point x="437" y="132"/>
      <point x="437" y="191" type="curve" smooth="yes"/>
      <point x="437" y="242"/>
      <point x="458" y="273"/>
      <point x="520" y="273" type="curve" smooth="yes"/>
      <point x="609" y="273" type="line"/>
      <point x="609" y="403" type="line"/>
      <point x="520" y="403" type="line" smooth="yes"/>
      <point x="390" y="403"/>
      <point x="294" y="339"/>
      <point x="294" y="195" type="curve" smooth="yes"/>
      <point x="294" y="68"/>
      <point x="369" y="-12"/>
    </contour>
  </outline>
</glyph>
<glyph name="uni1564" format="2">
  <advance width="738"/>
  <unicode hex="1564"/>
  <note>
uni1564
</note>
  <outline>
    <contour>
      <point x="63" y="-1" type="line"/>
      <point x="271" y="-1" type="line" smooth="yes"/>
      <point x="563" y="-1"/>
      <point x="689" y="76"/>
      <point x="689" y="346" type="curve" smooth="yes"/>
      <point x="689" y="611"/>
      <point x="568" y="713"/>
      <point x="318" y="713" type="curve" smooth="yes"/>
      <point x="165" y="713"/>
      <point x="39" y="675"/>
      <point x="39" y="499" type="curve" smooth="yes"/>
      <point x="39" y="359"/>
      <point x="119" y="284"/>
      <point x="245" y="284" type="curve" smooth="yes"/>
      <point x="407" y="284"/>
      <point x="460" y="409"/>
      <point x="460" y="533" type="curve" smooth="yes"/>
      <point x="460" y="575" type="line"/>
      <point x="325" y="575" type="line"/>
      <point x="325" y="527" type="line" smooth="yes"/>
      <point x="325" y="442"/>
      <point x="304" y="414"/>
      <point x="252" y="414" type="curve" smooth="yes"/>
      <point x="213" y="414"/>
      <point x="196" y="444"/>
      <point x="196" y="486" type="curve" smooth="yes"/>
      <point x="196" y="538"/>
      <point x="216" y="560"/>
      <point x="279" y="560" type="curve" smooth="yes"/>
      <point x="291" y="560" type="line" smooth="yes"/>
      <point x="436" y="560"/>
      <point x="495" y="467"/>
      <point x="495" y="343" type="curve" smooth="yes"/>
      <point x="495" y="194"/>
      <point x="424" y="155"/>
      <point x="270" y="155" type="curve" smooth="yes"/>
      <point x="63" y="155" type="line"/>
    </contour>
  </outline>
</glyph>
<glyph name="uni1566" format="2">
  <advance width="738"/>
  <unicode hex="1566"/>
  <note>
uni1566
</note>
  <outline>
    <contour>
      <point x="467" y="-1" type="curve" smooth="yes"/>
      <point x="675" y="-1" type="line"/>
      <point x="675" y="155" type="line"/>
      <point x="468" y="155" type="line" smooth="yes"/>
      <point x="314" y="155"/>
      <point x="243" y="194"/>
      <point x="243" y="343" type="curve" smooth="yes"/>
      <point x="243" y="467"/>
      <point x="302" y="560"/>
      <point x="447" y="560" type="curve" smooth="yes"/>
      <point x="459" y="560" type="line" smooth="yes"/>
      <point x="522" y="560"/>
      <point x="542" y="538"/>
      <point x="542" y="486" type="curve" smooth="yes"/>
      <point x="542" y="444"/>
      <point x="525" y="414"/>
      <point x="486" y="414" type="curve" smooth="yes"/>
      <point x="434" y="414"/>
      <point x="413" y="442"/>
      <point x="413" y="527" type="curve" smooth="yes"/>
      <point x="413" y="575" type="line"/>
      <point x="278" y="575" type="line"/>
      <point x="278" y="533" type="line" smooth="yes"/>
      <point x="278" y="409"/>
      <point x="331" y="284"/>
      <point x="493" y="284" type="curve" smooth="yes"/>
      <point x="619" y="284"/>
      <point x="699" y="359"/>
      <point x="699" y="499" type="curve" smooth="yes"/>
      <point x="699" y="675"/>
      <point x="573" y="713"/>
      <point x="420" y="713" type="curve" smooth="yes"/>
      <point x="170" y="713"/>
      <point x="49" y="611"/>
      <point x="49" y="346" type="curve" smooth="yes"/>
      <point x="49" y="76"/>
      <point x="175" y="-1"/>
    </contour>
  </outline>
</glyph>
<glyph name="uni156A" format="2">
  <advance width="466"/>
  <unicode hex="156A"/>
  <note>
uni156A
</note>
  <outline>
    <contour>
      <point x="295" y="317" type="curve" smooth="yes"/>
      <point x="423" y="317" type="line"/>
      <point x="423" y="422" type="line"/>
      <point x="296" y="422" type="line" smooth="yes"/>
      <point x="187" y="422"/>
      <point x="157" y="453"/>
      <point x="157" y="520" type="curve" smooth="yes"/>
      <point x="157" y="601"/>
      <point x="199" y="627"/>
      <point x="284" y="627" type="curve" smooth="yes"/>
      <point x="290" y="627" type="line" smooth="yes"/>
      <point x="328" y="627"/>
      <point x="335" y="614"/>
      <point x="335" y="596" type="curve" smooth="yes"/>
      <point x="335" y="577"/>
      <point x="328" y="557"/>
      <point x="303" y="557" type="curve" smooth="yes"/>
      <point x="281" y="557"/>
      <point x="270" y="571"/>
      <point x="270" y="601" type="curve" smooth="yes"/>
      <point x="270" y="641" type="line"/>
      <point x="188" y="641" type="line"/>
      <point x="188" y="597" type="line" smooth="yes"/>
      <point x="188" y="538"/>
      <point x="210" y="475"/>
      <point x="314" y="475" type="curve" smooth="yes"/>
      <point x="384" y="475"/>
      <point x="437" y="504"/>
      <point x="437" y="589" type="curve" smooth="yes"/>
      <point x="437" y="693"/>
      <point x="358" y="721"/>
      <point x="261" y="721" type="curve" smooth="yes"/>
      <point x="113" y="721"/>
      <point x="39" y="657"/>
      <point x="39" y="514" type="curve" smooth="yes"/>
      <point x="39" y="365"/>
      <point x="119" y="317"/>
    </contour>
  </outline>
</glyph>
<glyph name="uni156B" format="2">
  <advance width="796"/>
  <unicode hex="156B"/>
  <note>
uni156B
</note>
  <outline>
    <contour>
      <point x="398" y="-12" type="curve" smooth="yes"/>
      <point x="662" y="-12"/>
      <point x="737" y="132"/>
      <point x="737" y="415" type="curve" smooth="yes"/>
      <point x="737" y="714" type="line"/>
      <point x="544" y="714" type="line"/>
      <point x="544" y="353" type="line" smooth="yes"/>
      <point x="544" y="223"/>
      <point x="514" y="151"/>
      <point x="398" y="151" type="curve" smooth="yes"/>
      <point x="282" y="151"/>
      <point x="252" y="223"/>
      <point x="252" y="353" type="curve" smooth="yes"/>
      <point x="252" y="714" type="line"/>
      <point x="59" y="714" type="line"/>
      <point x="59" y="415" type="line" smooth="yes"/>
      <point x="59" y="132"/>
      <point x="134" y="-12"/>
    </contour>
    <contour>
      <point x="317" y="342" type="line"/>
      <point x="479" y="342" type="line"/>
      <point x="479" y="714" type="line"/>
      <point x="317" y="714" type="line"/>
    </contour>
  </outline>
</glyph>
<glyph name="uni156C" format="2">
  <advance width="796"/>
  <unicode hex="156C"/>
  <note>
uni156C
</note>
  <outline>
    <contour>
      <point x="59" y="0" type="line"/>
      <point x="252" y="0" type="line"/>
      <point x="252" y="361" type="line" smooth="yes"/>
      <point x="252" y="491"/>
      <point x="282" y="563"/>
      <point x="398" y="563" type="curve" smooth="yes"/>
      <point x="514" y="563"/>
      <point x="544" y="491"/>
      <point x="544" y="361" type="curve" smooth="yes"/>
      <point x="544" y="0" type="line"/>
      <point x="737" y="0" type="line"/>
      <point x="737" y="299" type="line" smooth="yes"/>
      <point x="737" y="582"/>
      <point x="662" y="726"/>
      <point x="398" y="726" type="curve" smooth="yes"/>
      <point x="134" y="726"/>
      <point x="59" y="582"/>
      <point x="59" y="299" type="curve" smooth="yes"/>
    </contour>
    <contour>
      <point x="317" y="0" type="line"/>
      <point x="479" y="0" type="line"/>
      <point x="479" y="372" type="line"/>
      <point x="317" y="372" type="line"/>
    </contour>
  </outline>
</glyph>
<glyph name="uni156D" format="2">
  <advance width="704"/>
  <unicode hex="156D"/>
  <note>
uni156D
</note>
  <outline>
    <contour>
      <point x="39" y="0" type="line"/>
      <point x="227" y="0" type="line" smooth="yes"/>
      <point x="524" y="0"/>
      <point x="645" y="77"/>
      <point x="645" y="357" type="curve" smooth="yes"/>
      <point x="645" y="638"/>
      <point x="522" y="714"/>
      <point x="227" y="714" type="curve" smooth="yes"/>
      <point x="39" y="714" type="line"/>
      <point x="39" y="558" type="line"/>
      <point x="226" y="558" type="line" smooth="yes"/>
      <point x="386" y="558"/>
      <point x="451" y="521"/>
      <point x="451" y="355" type="curve" smooth="yes"/>
      <point x="451" y="195"/>
      <point x="389" y="156"/>
      <point x="226" y="156" type="curve" smooth="yes"/>
      <point x="39" y="156" type="line"/>
    </contour>
    <contour>
      <point x="39" y="280" type="line"/>
      <point x="383" y="280" type="line"/>
      <point x="383" y="436" type="line"/>
      <point x="39" y="436" type="line"/>
    </contour>
  </outline>
</glyph>
<glyph name="uni156E" format="2">
  <advance width="704"/>
  <unicode hex="156E"/>
  <note>
uni156E
</note>
  <outline>
    <contour>
      <point x="477" y="0" type="curve" smooth="yes"/>
      <point x="665" y="0" type="line"/>
      <point x="665" y="156" type="line"/>
      <point x="478" y="156" type="line" smooth="yes"/>
      <point x="315" y="156"/>
      <point x="253" y="195"/>
      <point x="253" y="355" type="curve" smooth="yes"/>
      <point x="253" y="521"/>
      <point x="318" y="558"/>
      <point x="478" y="558" type="curve" smooth="yes"/>
      <point x="665" y="558" type="line"/>
      <point x="665" y="714" type="line"/>
      <point x="477" y="714" type="line" smooth="yes"/>
      <point x="182" y="714"/>
      <point x="59" y="638"/>
      <point x="59" y="357" type="curve" smooth="yes"/>
      <point x="59" y="77"/>
      <point x="180" y="0"/>
    </contour>
    <contour>
      <point x="321" y="280" type="line"/>
      <point x="665" y="280" type="line"/>
      <point x="665" y="436" type="line"/>
      <point x="321" y="436" type="line"/>
    </contour>
  </outline>
</glyph>
<glyph name="uni156F" format="2">
  <advance width="902"/>
  <unicode hex="156F"/>
  <note>
uni156F
</note>
  <outline>
    <contour>
      <point x="598" y="357" type="line"/>
      <point x="673" y="451" type="line"/>
      <point x="746" y="358" type="line"/>
      <point x="841" y="415" type="line"/>
      <point x="766" y="514" type="line"/>
      <point x="873" y="580" type="line"/>
      <point x="811" y="668" type="line"/>
      <point x="730" y="618" type="line"/>
      <point x="730" y="714" type="line"/>
      <point x="615" y="714" type="line"/>
      <point x="615" y="618" type="line"/>
      <point x="535" y="668" type="line"/>
      <point x="473" y="580" type="line"/>
      <point x="580" y="514" type="line"/>
      <point x="504" y="414" type="line"/>
    </contour>
    <contour>
      <point x="154" y="357" type="line"/>
      <point x="229" y="451" type="line"/>
      <point x="302" y="358" type="line"/>
      <point x="397" y="415" type="line"/>
      <point x="322" y="514" type="line"/>
      <point x="429" y="580" type="line"/>
      <point x="367" y="668" type="line"/>
      <point x="286" y="618" type="line"/>
      <point x="286" y="714" type="line"/>
      <point x="171" y="714" type="line"/>
      <point x="171" y="618" type="line"/>
      <point x="91" y="668" type="line"/>
      <point x="29" y="580" type="line"/>
      <point x="136" y="514" type="line"/>
      <point x="60" y="414" type="line"/>
    </contour>
  </outline>
</glyph>
<glyph name="uni1570" format="2">
  <advance width="796"/>
  <unicode hex="1570"/>
  <note>
uni1570
</note>
  <outline>
    <contour>
      <point x="398" y="-12" type="curve" smooth="yes"/>
      <point x="662" y="-12"/>
      <point x="737" y="132"/>
      <point x="737" y="415" type="curve" smooth="yes"/>
      <point x="737" y="714" type="line"/>
      <point x="544" y="714" type="line"/>
      <point x="544" y="353" type="line" smooth="yes"/>
      <point x="544" y="223"/>
      <point x="514" y="151"/>
      <point x="398" y="151" type="curve" smooth="yes"/>
      <point x="282" y="151"/>
      <point x="252" y="223"/>
      <point x="252" y="353" type="curve" smooth="yes"/>
      <point x="252" y="714" type="line"/>
      <point x="59" y="714" type="line"/>
      <point x="59" y="415" type="line" smooth="yes"/>
      <point x="59" y="132"/>
      <point x="134" y="-12"/>
    </contour>
    <contour>
      <point x="397" y="362" type="curve" smooth="yes"/>
      <point x="480" y="362"/>
      <point x="503" y="415"/>
      <point x="503" y="508" type="curve" smooth="yes"/>
      <point x="503" y="714" type="line"/>
      <point x="417" y="714" type="line"/>
      <point x="417" y="476" type="line" smooth="yes"/>
      <point x="417" y="453"/>
      <point x="409" y="443"/>
      <point x="398" y="443" type="curve" smooth="yes"/>
      <point x="388" y="443"/>
      <point x="379" y="451"/>
      <point x="379" y="476" type="curve" smooth="yes"/>
      <point x="379" y="714" type="line"/>
      <point x="293" y="714" type="line"/>
      <point x="293" y="508" type="line" smooth="yes"/>
      <point x="293" y="417"/>
      <point x="313" y="362"/>
    </contour>
  </outline>
</glyph>
<glyph name="uni1571" format="2">
  <advance width="796"/>
  <unicode hex="1571"/>
  <note>
uni1571
</note>
  <outline>
    <contour>
      <point x="59" y="0" type="line"/>
      <point x="252" y="0" type="line"/>
      <point x="252" y="361" type="line" smooth="yes"/>
      <point x="252" y="491"/>
      <point x="282" y="563"/>
      <point x="398" y="563" type="curve" smooth="yes"/>
      <point x="514" y="563"/>
      <point x="544" y="491"/>
      <point x="544" y="361" type="curve" smooth="yes"/>
      <point x="544" y="0" type="line"/>
      <point x="737" y="0" type="line"/>
      <point x="737" y="299" type="line" smooth="yes"/>
      <point x="737" y="582"/>
      <point x="662" y="726"/>
      <point x="398" y="726" type="curve" smooth="yes"/>
      <point x="134" y="726"/>
      <point x="59" y="582"/>
      <point x="59" y="299" type="curve" smooth="yes"/>
    </contour>
    <contour>
      <point x="293" y="0" type="line"/>
      <point x="379" y="0" type="line"/>
      <point x="379" y="248" type="line" smooth="yes"/>
      <point x="379" y="273"/>
      <point x="388" y="281"/>
      <point x="398" y="281" type="curve" smooth="yes"/>
      <point x="409" y="281"/>
      <point x="417" y="271"/>
      <point x="417" y="248" type="curve" smooth="yes"/>
      <point x="417" y="0" type="line"/>
      <point x="503" y="0" type="line"/>
      <point x="503" y="216" type="line" smooth="yes"/>
      <point x="503" y="309"/>
      <point x="480" y="362"/>
      <point x="397" y="362" type="curve" smooth="yes"/>
      <point x="313" y="362"/>
      <point x="293" y="307"/>
      <point x="293" y="216" type="curve" smooth="yes"/>
    </contour>
  </outline>
</glyph>
<glyph name="uni1572" format="2">
  <advance width="704"/>
  <unicode hex="1572"/>
  <note>
uni1572
</note>
  <outline>
    <contour>
      <point x="39" y="0" type="line"/>
      <point x="227" y="0" type="line" smooth="yes"/>
      <point x="524" y="0"/>
      <point x="645" y="77"/>
      <point x="645" y="357" type="curve" smooth="yes"/>
      <point x="645" y="638"/>
      <point x="522" y="714"/>
      <point x="227" y="714" type="curve" smooth="yes"/>
      <point x="39" y="714" type="line"/>
      <point x="39" y="558" type="line"/>
      <point x="226" y="558" type="line" smooth="yes"/>
      <point x="386" y="558"/>
      <point x="451" y="521"/>
      <point x="451" y="355" type="curve" smooth="yes"/>
      <point x="451" y="195"/>
      <point x="389" y="156"/>
      <point x="226" y="156" type="curve" smooth="yes"/>
      <point x="39" y="156" type="line"/>
    </contour>
    <contour>
      <point x="39" y="190" type="line"/>
      <point x="117" y="190" type="line" smooth="yes"/>
      <point x="278" y="190"/>
      <point x="354" y="219"/>
      <point x="354" y="363" type="curve" smooth="yes"/>
      <point x="354" y="477"/>
      <point x="291" y="525"/>
      <point x="126" y="525" type="curve" smooth="yes"/>
      <point x="39" y="525" type="line"/>
      <point x="39" y="419" type="line"/>
      <point x="110" y="419" type="line" smooth="yes"/>
      <point x="206" y="419"/>
      <point x="227" y="395"/>
      <point x="227" y="363" type="curve" smooth="yes"/>
      <point x="227" y="316"/>
      <point x="206" y="298"/>
      <point x="110" y="298" type="curve" smooth="yes"/>
      <point x="39" y="298" type="line"/>
    </contour>
  </outline>
</glyph>
<glyph name="uni1573" format="2">
  <advance width="704"/>
  <unicode hex="1573"/>
  <note>
uni1573
</note>
  <outline>
    <contour>
      <point x="477" y="0" type="curve" smooth="yes"/>
      <point x="665" y="0" type="line"/>
      <point x="665" y="156" type="line"/>
      <point x="478" y="156" type="line" smooth="yes"/>
      <point x="315" y="156"/>
      <point x="253" y="195"/>
      <point x="253" y="355" type="curve" smooth="yes"/>
      <point x="253" y="521"/>
      <point x="318" y="558"/>
      <point x="478" y="558" type="curve" smooth="yes"/>
      <point x="665" y="558" type="line"/>
      <point x="665" y="714" type="line"/>
      <point x="477" y="714" type="line" smooth="yes"/>
      <point x="182" y="714"/>
      <point x="59" y="638"/>
      <point x="59" y="357" type="curve" smooth="yes"/>
      <point x="59" y="77"/>
      <point x="180" y="0"/>
    </contour>
    <contour>
      <point x="587" y="190" type="curve" smooth="yes"/>
      <point x="665" y="190" type="line"/>
      <point x="665" y="298" type="line"/>
      <point x="594" y="298" type="line" smooth="yes"/>
      <point x="498" y="298"/>
      <point x="477" y="316"/>
      <point x="477" y="363" type="curve" smooth="yes"/>
      <point x="477" y="395"/>
      <point x="498" y="419"/>
      <point x="594" y="419" type="curve" smooth="yes"/>
      <point x="665" y="419" type="line"/>
      <point x="665" y="525" type="line"/>
      <point x="578" y="525" type="line" smooth="yes"/>
      <point x="413" y="525"/>
      <point x="350" y="477"/>
      <point x="350" y="363" type="curve" smooth="yes"/>
      <point x="350" y="219"/>
      <point x="426" y="190"/>
    </contour>
  </outline>
</glyph>
<glyph name="uni1574" format="2">
  <advance width="879"/>
  <unicode hex="1574"/>
  <note>
uni1574
</note>
  <outline>
    <contour>
      <point x="415" y="0" type="line"/>
      <point x="609" y="0" type="line"/>
      <point x="609" y="457" type="line" smooth="yes"/>
      <point x="609" y="593"/>
      <point x="539" y="726"/>
      <point x="332" y="726" type="curve" smooth="yes"/>
      <point x="125" y="726"/>
      <point x="49" y="594"/>
      <point x="49" y="462" type="curve" smooth="yes"/>
      <point x="49" y="320"/>
      <point x="138" y="200"/>
      <point x="325" y="200" type="curve" smooth="yes"/>
      <point x="363" y="200"/>
      <point x="390" y="205"/>
      <point x="415" y="211" type="curve"/>
    </contour>
    <contour>
      <point x="329" y="361" type="curve" smooth="yes"/>
      <point x="270" y="361"/>
      <point x="240" y="405"/>
      <point x="240" y="465" type="curve" smooth="yes"/>
      <point x="240" y="526"/>
      <point x="270" y="565"/>
      <point x="326" y="565" type="curve" smooth="yes"/>
      <point x="381" y="565"/>
      <point x="418" y="527"/>
      <point x="418" y="474" type="curve" smooth="yes"/>
      <point x="418" y="443" type="line" smooth="yes"/>
      <point x="418" y="412"/>
      <point x="392" y="361"/>
    </contour>
    <contour>
      <point x="609" y="0" type="line"/>
      <point x="860" y="182" type="line"/>
      <point x="769" y="308" type="line"/>
      <point x="518" y="126" type="line"/>
    </contour>
  </outline>
</glyph>
<glyph name="uni1575" format="2">
  <advance width="879"/>
  <unicode hex="1575"/>
  <note>
uni1575
</note>
  <outline>
    <contour>
      <point x="270" y="0" type="line"/>
      <point x="464" y="0" type="line"/>
      <point x="464" y="211" type="line"/>
      <point x="489" y="205"/>
      <point x="516" y="200"/>
      <point x="554" y="200" type="curve" smooth="yes"/>
      <point x="741" y="200"/>
      <point x="830" y="320"/>
      <point x="830" y="462" type="curve" smooth="yes"/>
      <point x="830" y="594"/>
      <point x="754" y="726"/>
      <point x="547" y="726" type="curve" smooth="yes"/>
      <point x="340" y="726"/>
      <point x="270" y="593"/>
      <point x="270" y="457" type="curve" smooth="yes"/>
    </contour>
    <contour>
      <point x="270" y="0" type="line"/>
      <point x="361" y="126" type="line"/>
      <point x="110" y="308" type="line"/>
      <point x="19" y="182" type="line"/>
    </contour>
    <contour>
      <point x="550" y="361" type="curve" smooth="yes"/>
      <point x="487" y="361"/>
      <point x="461" y="412"/>
      <point x="461" y="443" type="curve" smooth="yes"/>
      <point x="461" y="474" type="line" smooth="yes"/>
      <point x="461" y="527"/>
      <point x="498" y="565"/>
      <point x="553" y="565" type="curve" smooth="yes"/>
      <point x="609" y="565"/>
      <point x="639" y="526"/>
      <point x="639" y="465" type="curve" smooth="yes"/>
      <point x="639" y="405"/>
      <point x="609" y="361"/>
    </contour>
  </outline>
</glyph>
<glyph name="uni1577" format="2">
  <advance width="879"/>
  <unicode hex="1577"/>
  <note>
uni1577
</note>
  <outline>
    <contour>
      <point x="332" y="-12" type="curve" smooth="yes"/>
      <point x="539" y="-12"/>
      <point x="609" y="121"/>
      <point x="609" y="257" type="curve" smooth="yes"/>
      <point x="609" y="714" type="line"/>
      <point x="415" y="714" type="line"/>
      <point x="415" y="503" type="line"/>
      <point x="390" y="509"/>
      <point x="363" y="514"/>
      <point x="325" y="514" type="curve" smooth="yes"/>
      <point x="138" y="514"/>
      <point x="49" y="394"/>
      <point x="49" y="252" type="curve" smooth="yes"/>
      <point x="49" y="120"/>
      <point x="125" y="-12"/>
    </contour>
    <contour>
      <point x="326" y="149" type="curve" smooth="yes"/>
      <point x="270" y="149"/>
      <point x="240" y="188"/>
      <point x="240" y="249" type="curve" smooth="yes"/>
      <point x="240" y="309"/>
      <point x="270" y="353"/>
      <point x="329" y="353" type="curve" smooth="yes"/>
      <point x="392" y="353"/>
      <point x="418" y="302"/>
      <point x="418" y="271" type="curve" smooth="yes"/>
      <point x="418" y="240" type="line" smooth="yes"/>
      <point x="418" y="187"/>
      <point x="381" y="149"/>
    </contour>
    <contour>
      <point x="769" y="406" type="line"/>
      <point x="860" y="532" type="line"/>
      <point x="609" y="714" type="line"/>
      <point x="518" y="588" type="line"/>
    </contour>
  </outline>
</glyph>
<glyph name="uni1579" format="2">
  <advance width="879"/>
  <unicode hex="1579"/>
  <note>
uni1579
</note>
  <outline>
    <contour>
      <point x="547" y="-12" type="curve" smooth="yes"/>
      <point x="754" y="-12"/>
      <point x="830" y="120"/>
      <point x="830" y="252" type="curve" smooth="yes"/>
      <point x="830" y="394"/>
      <point x="741" y="514"/>
      <point x="554" y="514" type="curve" smooth="yes"/>
      <point x="516" y="514"/>
      <point x="489" y="509"/>
      <point x="464" y="503" type="curve"/>
      <point x="464" y="714" type="line"/>
      <point x="270" y="714" type="line"/>
      <point x="270" y="257" type="line" smooth="yes"/>
      <point x="270" y="121"/>
      <point x="340" y="-12"/>
    </contour>
    <contour>
      <point x="553" y="149" type="curve" smooth="yes"/>
      <point x="498" y="149"/>
      <point x="461" y="187"/>
      <point x="461" y="240" type="curve" smooth="yes"/>
      <point x="461" y="271" type="line" smooth="yes"/>
      <point x="461" y="302"/>
      <point x="487" y="353"/>
      <point x="550" y="353" type="curve" smooth="yes"/>
      <point x="609" y="353"/>
      <point x="639" y="309"/>
      <point x="639" y="249" type="curve" smooth="yes"/>
      <point x="639" y="188"/>
      <point x="609" y="149"/>
    </contour>
    <contour>
      <point x="110" y="406" type="line"/>
      <point x="361" y="588" type="line"/>
      <point x="270" y="714" type="line"/>
      <point x="19" y="532" type="line"/>
    </contour>
  </outline>
</glyph>
<glyph name="uni157B" format="2">
  <advance width="555"/>
  <unicode hex="157B"/>
  <note>
uni157B
</note>
  <outline>
    <contour>
      <point x="352" y="270" type="curve" smooth="yes"/>
      <point x="479" y="270"/>
      <point x="526" y="351"/>
      <point x="526" y="432" type="curve" smooth="yes"/>
      <point x="526" y="518"/>
      <point x="472" y="592"/>
      <point x="357" y="592" type="curve" smooth="yes"/>
      <point x="334" y="592"/>
      <point x="317" y="589"/>
      <point x="301" y="585" type="curve"/>
      <point x="301" y="714" type="line"/>
      <point x="183" y="714" type="line"/>
      <point x="29" y="603" type="line"/>
      <point x="85" y="526" type="line"/>
      <point x="183" y="597" type="line"/>
      <point x="183" y="432" type="line" smooth="yes"/>
      <point x="183" y="352"/>
      <point x="226" y="270"/>
    </contour>
    <contour>
      <point x="357" y="367" type="curve" smooth="yes"/>
      <point x="314" y="367"/>
      <point x="300" y="398"/>
      <point x="300" y="432" type="curve" smooth="yes"/>
      <point x="300" y="460"/>
      <point x="312" y="492"/>
      <point x="355" y="492" type="curve" smooth="yes"/>
      <point x="390" y="492"/>
      <point x="409" y="460"/>
      <point x="409" y="432" type="curve" smooth="yes"/>
      <point x="409" y="398"/>
      <point x="392" y="367"/>
    </contour>
  </outline>
</glyph>
<glyph name="uni157C" format="2">
  <advance width="771"/>
  <unicode hex="157C"/>
  <note>
uni157C
</note>
  <outline>
    <contour>
      <point x="59" y="0" type="line"/>
      <point x="253" y="0" type="line"/>
      <point x="253" y="296" type="line"/>
      <point x="518" y="296" type="line"/>
      <point x="518" y="0" type="line"/>
      <point x="712" y="0" type="line"/>
      <point x="712" y="714" type="line"/>
      <point x="518" y="714" type="line"/>
      <point x="518" y="453" type="line"/>
      <point x="253" y="453" type="line"/>
      <point x="253" y="714" type="line"/>
      <point x="59" y="714" type="line"/>
    </contour>
  </outline>
</glyph>
<glyph name="uni157D" format="2">
  <advance width="441"/>
  <unicode hex="157D"/>
  <note>
uni157D
</note>
  <outline>
    <contour>
      <point x="281" y="367" type="line"/>
      <point x="412" y="367" type="line"/>
      <point x="160" y="714" type="line"/>
      <point x="29" y="714" type="line"/>
    </contour>
    <contour>
      <point x="29" y="367" type="line"/>
      <point x="160" y="367" type="line"/>
      <point x="412" y="714" type="line"/>
      <point x="281" y="714" type="line"/>
    </contour>
  </outline>
</glyph>
<glyph name="uni1586" format="2">
  <advance width="668"/>
  <unicode hex="1586"/>
  <note>
uni1586
</note>
  <outline>
    <contour>
      <point x="415" y="0" type="line"/>
      <point x="609" y="0" type="line"/>
      <point x="609" y="457" type="line" smooth="yes"/>
      <point x="609" y="593"/>
      <point x="539" y="726"/>
      <point x="332" y="726" type="curve" smooth="yes"/>
      <point x="125" y="726"/>
      <point x="49" y="594"/>
      <point x="49" y="462" type="curve" smooth="yes"/>
      <point x="49" y="320"/>
      <point x="138" y="200"/>
      <point x="325" y="200" type="curve" smooth="yes"/>
      <point x="363" y="200"/>
      <point x="390" y="205"/>
      <point x="415" y="211" type="curve"/>
    </contour>
    <contour>
      <point x="326" y="361" type="curve" smooth="yes"/>
      <point x="267" y="361"/>
      <point x="240" y="405"/>
      <point x="240" y="464" type="curve" smooth="yes"/>
      <point x="240" y="526"/>
      <point x="270" y="565"/>
      <point x="326" y="565" type="curve" smooth="yes"/>
      <point x="382" y="565"/>
      <point x="412" y="526"/>
      <point x="412" y="464" type="curve" smooth="yes"/>
      <point x="412" y="405"/>
      <point x="385" y="361"/>
    </contour>
    <contour>
      <point x="65" y="0" type="line"/>
      <point x="259" y="0" type="line"/>
      <point x="381" y="272" type="line"/>
      <point x="186" y="272" type="line"/>
    </contour>
  </outline>
</glyph>
<glyph name="uni1587" format="2">
  <advance width="668"/>
  <unicode hex="1587"/>
  <note>
uni1587
</note>
  <outline>
    <contour>
      <point x="59" y="0" type="line"/>
      <point x="253" y="0" type="line"/>
      <point x="253" y="211" type="line"/>
      <point x="278" y="205"/>
      <point x="305" y="200"/>
      <point x="343" y="200" type="curve" smooth="yes"/>
      <point x="530" y="200"/>
      <point x="619" y="320"/>
      <point x="619" y="462" type="curve" smooth="yes"/>
      <point x="619" y="594"/>
      <point x="543" y="726"/>
      <point x="336" y="726" type="curve" smooth="yes"/>
      <point x="129" y="726"/>
      <point x="59" y="593"/>
      <point x="59" y="457" type="curve" smooth="yes"/>
    </contour>
    <contour>
      <point x="409" y="0" type="line"/>
      <point x="603" y="0" type="line"/>
      <point x="482" y="272" type="line"/>
      <point x="287" y="272" type="line"/>
    </contour>
    <contour>
      <point x="342" y="361" type="curve" smooth="yes"/>
      <point x="283" y="361"/>
      <point x="256" y="405"/>
      <point x="256" y="464" type="curve" smooth="yes"/>
      <point x="256" y="526"/>
      <point x="286" y="565"/>
      <point x="342" y="565" type="curve" smooth="yes"/>
      <point x="398" y="565"/>
      <point x="428" y="526"/>
      <point x="428" y="464" type="curve" smooth="yes"/>
      <point x="428" y="405"/>
      <point x="401" y="361"/>
    </contour>
  </outline>
</glyph>
<glyph name="uni1588" format="2">
  <advance width="668"/>
  <unicode hex="1588"/>
  <note>
uni1588
</note>
  <outline>
    <contour>
      <point x="332" y="-12" type="curve" smooth="yes"/>
      <point x="539" y="-12"/>
      <point x="609" y="121"/>
      <point x="609" y="257" type="curve" smooth="yes"/>
      <point x="609" y="714" type="line"/>
      <point x="415" y="714" type="line"/>
      <point x="415" y="503" type="line"/>
      <point x="390" y="509"/>
      <point x="363" y="514"/>
      <point x="325" y="514" type="curve" smooth="yes"/>
      <point x="138" y="514"/>
      <point x="49" y="394"/>
      <point x="49" y="252" type="curve" smooth="yes"/>
      <point x="49" y="120"/>
      <point x="125" y="-12"/>
    </contour>
    <contour>
      <point x="326" y="149" type="curve" smooth="yes"/>
      <point x="270" y="149"/>
      <point x="240" y="188"/>
      <point x="240" y="250" type="curve" smooth="yes"/>
      <point x="240" y="309"/>
      <point x="267" y="353"/>
      <point x="326" y="353" type="curve" smooth="yes"/>
      <point x="385" y="353"/>
      <point x="412" y="309"/>
      <point x="412" y="250" type="curve" smooth="yes"/>
      <point x="412" y="188"/>
      <point x="382" y="149"/>
    </contour>
    <contour>
      <point x="186" y="442" type="line"/>
      <point x="381" y="442" type="line"/>
      <point x="259" y="714" type="line"/>
      <point x="65" y="714" type="line"/>
    </contour>
  </outline>
</glyph>
<glyph name="uni1589" format="2">
  <advance width="668"/>
  <unicode hex="1589"/>
  <note>
uni1589
</note>
  <outline>
    <contour>
      <point x="336" y="-12" type="curve" smooth="yes"/>
      <point x="543" y="-12"/>
      <point x="619" y="120"/>
      <point x="619" y="252" type="curve" smooth="yes"/>
      <point x="619" y="394"/>
      <point x="530" y="514"/>
      <point x="343" y="514" type="curve" smooth="yes"/>
      <point x="305" y="514"/>
      <point x="278" y="509"/>
      <point x="253" y="503" type="curve"/>
      <point x="253" y="714" type="line"/>
      <point x="59" y="714" type="line"/>
      <point x="59" y="257" type="line" smooth="yes"/>
      <point x="59" y="121"/>
      <point x="129" y="-12"/>
    </contour>
    <contour>
      <point x="342" y="149" type="curve" smooth="yes"/>
      <point x="286" y="149"/>
      <point x="256" y="188"/>
      <point x="256" y="250" type="curve" smooth="yes"/>
      <point x="256" y="309"/>
      <point x="283" y="353"/>
      <point x="342" y="353" type="curve" smooth="yes"/>
      <point x="401" y="353"/>
      <point x="428" y="309"/>
      <point x="428" y="250" type="curve" smooth="yes"/>
      <point x="428" y="188"/>
      <point x="398" y="149"/>
    </contour>
    <contour>
      <point x="287" y="442" type="line"/>
      <point x="482" y="442" type="line"/>
      <point x="603" y="714" type="line"/>
      <point x="409" y="714" type="line"/>
    </contour>
  </outline>
</glyph>
<glyph name="uni158A" format="2">
  <advance width="879"/>
  <unicode hex="158A"/>
  <note>
uni158A
</note>
  <outline>
    <contour>
      <point x="415" y="0" type="line"/>
      <point x="609" y="0" type="line"/>
      <point x="609" y="457" type="line" smooth="yes"/>
      <point x="609" y="593"/>
      <point x="539" y="726"/>
      <point x="332" y="726" type="curve" smooth="yes"/>
      <point x="125" y="726"/>
      <point x="49" y="594"/>
      <point x="49" y="462" type="curve" smooth="yes"/>
      <point x="49" y="394" type="line"/>
      <point x="243" y="394" type="line"/>
      <point x="243" y="465" type="line" smooth="yes"/>
      <point x="243" y="526"/>
      <point x="270" y="565"/>
      <point x="326" y="565" type="curve" smooth="yes"/>
      <point x="381" y="565"/>
      <point x="415" y="527"/>
      <point x="415" y="474" type="curve" smooth="yes"/>
    </contour>
    <contour>
      <point x="609" y="0" type="line"/>
      <point x="860" y="182" type="line"/>
      <point x="769" y="308" type="line"/>
      <point x="518" y="126" type="line"/>
    </contour>
  </outline>
</glyph>
<glyph name="uni158B" format="2">
  <advance width="879"/>
  <unicode hex="158B"/>
  <note>
uni158B
</note>
  <outline>
    <contour>
      <point x="270" y="0" type="line"/>
      <point x="464" y="0" type="line"/>
      <point x="464" y="474" type="line" smooth="yes"/>
      <point x="464" y="527"/>
      <point x="498" y="565"/>
      <point x="553" y="565" type="curve" smooth="yes"/>
      <point x="609" y="565"/>
      <point x="636" y="526"/>
      <point x="636" y="465" type="curve" smooth="yes"/>
      <point x="636" y="394" type="line"/>
      <point x="830" y="394" type="line"/>
      <point x="830" y="462" type="line" smooth="yes"/>
      <point x="830" y="594"/>
      <point x="754" y="726"/>
      <point x="547" y="726" type="curve" smooth="yes"/>
      <point x="340" y="726"/>
      <point x="270" y="593"/>
      <point x="270" y="457" type="curve" smooth="yes"/>
    </contour>
    <contour>
      <point x="270" y="0" type="line"/>
      <point x="361" y="126" type="line"/>
      <point x="110" y="308" type="line"/>
      <point x="19" y="182" type="line"/>
    </contour>
  </outline>
</glyph>
<glyph name="uni158C" format="2">
  <advance width="879"/>
  <unicode hex="158C"/>
  <note>
uni158C
</note>
  <outline>
    <contour>
      <point x="332" y="-12" type="curve" smooth="yes"/>
      <point x="539" y="-12"/>
      <point x="609" y="121"/>
      <point x="609" y="257" type="curve" smooth="yes"/>
      <point x="609" y="714" type="line"/>
      <point x="415" y="714" type="line"/>
      <point x="415" y="240" type="line" smooth="yes"/>
      <point x="415" y="187"/>
      <point x="381" y="149"/>
      <point x="326" y="149" type="curve" smooth="yes"/>
      <point x="270" y="149"/>
      <point x="243" y="188"/>
      <point x="243" y="249" type="curve" smooth="yes"/>
      <point x="243" y="320" type="line"/>
      <point x="49" y="320" type="line"/>
      <point x="49" y="252" type="line" smooth="yes"/>
      <point x="49" y="120"/>
      <point x="125" y="-12"/>
    </contour>
    <contour>
      <point x="769" y="406" type="line"/>
      <point x="860" y="532" type="line"/>
      <point x="609" y="714" type="line"/>
      <point x="518" y="588" type="line"/>
    </contour>
  </outline>
</glyph>
<glyph name="uni158D" format="2">
  <advance width="879"/>
  <unicode hex="158D"/>
  <note>
uni158D
</note>
  <outline>
    <contour>
      <point x="547" y="-12" type="curve" smooth="yes"/>
      <point x="754" y="-12"/>
      <point x="830" y="120"/>
      <point x="830" y="252" type="curve" smooth="yes"/>
      <point x="830" y="320" type="line"/>
      <point x="636" y="320" type="line"/>
      <point x="636" y="249" type="line" smooth="yes"/>
      <point x="636" y="188"/>
      <point x="609" y="149"/>
      <point x="553" y="149" type="curve" smooth="yes"/>
      <point x="498" y="149"/>
      <point x="464" y="187"/>
      <point x="464" y="240" type="curve" smooth="yes"/>
      <point x="464" y="714" type="line"/>
      <point x="270" y="714" type="line"/>
      <point x="270" y="257" type="line" smooth="yes"/>
      <point x="270" y="121"/>
      <point x="340" y="-12"/>
    </contour>
    <contour>
      <point x="110" y="406" type="line"/>
      <point x="361" y="588" type="line"/>
      <point x="270" y="714" type="line"/>
      <point x="19" y="532" type="line"/>
    </contour>
  </outline>
</glyph>
<glyph name="uni1591" format="2">
  <advance width="962"/>
  <unicode hex="1591"/>
  <note>
uni1591
</note>
  <outline>
    <contour>
      <point x="624" y="-12" type="curve" smooth="yes"/>
      <point x="843" y="-12"/>
      <point x="903" y="79"/>
      <point x="903" y="301" type="curve" smooth="yes"/>
      <point x="903" y="714" type="line"/>
      <point x="710" y="714" type="line"/>
      <point x="710" y="264" type="line" smooth="yes"/>
      <point x="710" y="181"/>
      <point x="685" y="149"/>
      <point x="624" y="149" type="curve" smooth="yes"/>
      <point x="568" y="149"/>
      <point x="541" y="176"/>
      <point x="537" y="246" type="curve"/>
      <point x="345" y="246" type="line"/>
      <point x="356" y="64"/>
      <point x="424" y="-12"/>
    </contour>
    <contour>
      <point x="168" y="563" type="curve" smooth="yes"/>
      <point x="147" y="563"/>
      <point x="131" y="578"/>
      <point x="131" y="603" type="curve" smooth="yes"/>
      <point x="131" y="629"/>
      <point x="147" y="642"/>
      <point x="168" y="642" type="curve" smooth="yes"/>
      <point x="189" y="642"/>
      <point x="205" y="629"/>
      <point x="205" y="603" type="curve" smooth="yes"/>
      <point x="205" y="578"/>
      <point x="189" y="563"/>
    </contour>
    <contour>
      <point x="456" y="301" type="curve" smooth="yes"/>
      <point x="554" y="301"/>
      <point x="585" y="362"/>
      <point x="585" y="421" type="curve" smooth="yes"/>
      <point x="585" y="469" type="line"/>
      <point x="493" y="469" type="line"/>
      <point x="493" y="419" type="line" smooth="yes"/>
      <point x="493" y="392"/>
      <point x="483" y="374"/>
      <point x="458" y="374" type="curve" smooth="yes"/>
      <point x="431" y="374"/>
      <point x="420" y="392"/>
      <point x="420" y="419" type="curve" smooth="yes"/>
      <point x="420" y="563" type="line"/>
      <point x="292" y="563" type="line"/>
      <point x="296" y="575"/>
      <point x="298" y="588"/>
      <point x="298" y="602" type="curve" smooth="yes"/>
      <point x="298" y="675"/>
      <point x="239" y="727"/>
      <point x="168" y="727" type="curve" smooth="yes"/>
      <point x="95" y="727"/>
      <point x="39" y="675"/>
      <point x="39" y="602" type="curve" smooth="yes"/>
      <point x="39" y="533"/>
      <point x="92" y="478"/>
      <point x="163" y="478" type="curve" smooth="yes"/>
      <point x="327" y="478" type="line"/>
      <point x="327" y="421" type="line" smooth="yes"/>
      <point x="327" y="362"/>
      <point x="358" y="301"/>
    </contour>
  </outline>
</glyph>
<glyph name="uni1595" format="2">
  <advance width="624"/>
  <unicode hex="1595"/>
  <note>
uni1595
</note>
  <outline>
    <contour>
      <point x="456" y="301" type="curve" smooth="yes"/>
      <point x="554" y="301"/>
      <point x="585" y="362"/>
      <point x="585" y="421" type="curve" smooth="yes"/>
      <point x="585" y="469" type="line"/>
      <point x="493" y="469" type="line"/>
      <point x="493" y="419" type="line" smooth="yes"/>
      <point x="493" y="392"/>
      <point x="483" y="374"/>
      <point x="458" y="374" type="curve" smooth="yes"/>
      <point x="431" y="374"/>
      <point x="420" y="392"/>
      <point x="420" y="419" type="curve" smooth="yes"/>
      <point x="420" y="563" type="line"/>
      <point x="292" y="563" type="line"/>
      <point x="296" y="575"/>
      <point x="298" y="588"/>
      <point x="298" y="602" type="curve" smooth="yes"/>
      <point x="298" y="675"/>
      <point x="239" y="727"/>
      <point x="168" y="727" type="curve" smooth="yes"/>
      <point x="95" y="727"/>
      <point x="39" y="675"/>
      <point x="39" y="602" type="curve" smooth="yes"/>
      <point x="39" y="533"/>
      <point x="92" y="478"/>
      <point x="163" y="478" type="curve" smooth="yes"/>
      <point x="327" y="478" type="line"/>
      <point x="327" y="421" type="line" smooth="yes"/>
      <point x="327" y="362"/>
      <point x="358" y="301"/>
    </contour>
    <contour>
      <point x="168" y="563" type="curve" smooth="yes"/>
      <point x="147" y="563"/>
      <point x="131" y="578"/>
      <point x="131" y="603" type="curve" smooth="yes"/>
      <point x="131" y="629"/>
      <point x="147" y="642"/>
      <point x="168" y="642" type="curve" smooth="yes"/>
      <point x="189" y="642"/>
      <point x="205" y="629"/>
      <point x="205" y="603" type="curve" smooth="yes"/>
      <point x="205" y="578"/>
      <point x="189" y="563"/>
    </contour>
  </outline>
</glyph>
<glyph name="uni1596" format="2">
  <advance width="898"/>
  <unicode hex="1596"/>
  <note>
uni1596
</note>
  <outline>
    <contour>
      <point x="729" y="301" type="curve" smooth="yes"/>
      <point x="827" y="301"/>
      <point x="859" y="362"/>
      <point x="859" y="421" type="curve" smooth="yes"/>
      <point x="859" y="469" type="line"/>
      <point x="766" y="469" type="line"/>
      <point x="766" y="419" type="line" smooth="yes"/>
      <point x="766" y="392"/>
      <point x="757" y="374"/>
      <point x="732" y="374" type="curve" smooth="yes"/>
      <point x="705" y="374"/>
      <point x="694" y="392"/>
      <point x="694" y="419" type="curve" smooth="yes"/>
      <point x="694" y="563" type="line"/>
      <point x="586" y="563" type="line"/>
      <point x="590" y="575"/>
      <point x="592" y="588"/>
      <point x="592" y="602" type="curve" smooth="yes"/>
      <point x="592" y="675"/>
      <point x="533" y="727"/>
      <point x="462" y="727" type="curve" smooth="yes"/>
      <point x="389" y="727"/>
      <point x="333" y="675"/>
      <point x="333" y="602" type="curve" smooth="yes"/>
      <point x="333" y="588"/>
      <point x="335" y="575"/>
      <point x="339" y="563" type="curve"/>
      <point x="292" y="563" type="line"/>
      <point x="296" y="575"/>
      <point x="298" y="588"/>
      <point x="298" y="602" type="curve" smooth="yes"/>
      <point x="298" y="675"/>
      <point x="239" y="727"/>
      <point x="169" y="727" type="curve" smooth="yes"/>
      <point x="95" y="727"/>
      <point x="39" y="675"/>
      <point x="39" y="602" type="curve" smooth="yes"/>
      <point x="39" y="533"/>
      <point x="92" y="478"/>
      <point x="163" y="478" type="curve" smooth="yes"/>
      <point x="601" y="478" type="line"/>
      <point x="601" y="421" type="line" smooth="yes"/>
      <point x="601" y="362"/>
      <point x="632" y="301"/>
    </contour>
    <contour>
      <point x="169" y="563" type="curve" smooth="yes"/>
      <point x="147" y="563"/>
      <point x="132" y="578"/>
      <point x="132" y="603" type="curve" smooth="yes"/>
      <point x="132" y="629"/>
      <point x="147" y="642"/>
      <point x="169" y="642" type="curve" smooth="yes"/>
      <point x="189" y="642"/>
      <point x="205" y="629"/>
      <point x="205" y="603" type="curve" smooth="yes"/>
      <point x="205" y="578"/>
      <point x="189" y="563"/>
    </contour>
    <contour>
      <point x="462" y="563" type="curve" smooth="yes"/>
      <point x="441" y="563"/>
      <point x="426" y="578"/>
      <point x="426" y="603" type="curve" smooth="yes"/>
      <point x="426" y="629"/>
      <point x="441" y="642"/>
      <point x="462" y="642" type="curve" smooth="yes"/>
      <point x="483" y="642"/>
      <point x="499" y="629"/>
      <point x="499" y="603" type="curve" smooth="yes"/>
      <point x="499" y="578"/>
      <point x="483" y="563"/>
    </contour>
  </outline>
</glyph>
<glyph name="uni1597" format="2">
  <advance width="677"/>
  <unicode hex="1597"/>
  <note>
uni1597
</note>
  <outline>
    <contour>
      <point x="428" y="0" type="line"/>
      <point x="618" y="0" type="line"/>
      <point x="618" y="456" type="line" smooth="yes"/>
      <point x="618" y="627"/>
      <point x="517" y="726"/>
      <point x="342" y="726" type="curve" smooth="yes"/>
      <point x="154" y="726"/>
      <point x="49" y="612"/>
      <point x="49" y="443" type="curve" smooth="yes"/>
      <point x="49" y="299"/>
      <point x="125" y="200"/>
      <point x="236" y="200" type="curve" smooth="yes"/>
      <point x="355" y="200"/>
      <point x="407" y="270"/>
      <point x="407" y="389" type="curve"/>
      <point x="303" y="402" type="line"/>
      <point x="303" y="375"/>
      <point x="292" y="361"/>
      <point x="274" y="361" type="curve" smooth="yes"/>
      <point x="245" y="361"/>
      <point x="236" y="400"/>
      <point x="236" y="441" type="curve" smooth="yes"/>
      <point x="236" y="531"/>
      <point x="278" y="566"/>
      <point x="334" y="566" type="curve" smooth="yes"/>
      <point x="393" y="566"/>
      <point x="428" y="528"/>
      <point x="428" y="456" type="curve" smooth="yes"/>
    </contour>
  </outline>
</glyph>
<glyph name="uni1598" format="2">
  <advance width="677"/>
  <unicode hex="1598"/>
  <note>
uni1598
</note>
  <outline>
    <contour>
      <point x="59" y="0" type="line"/>
      <point x="249" y="0" type="line"/>
      <point x="249" y="456" type="line" smooth="yes"/>
      <point x="249" y="528"/>
      <point x="284" y="566"/>
      <point x="343" y="566" type="curve" smooth="yes"/>
      <point x="399" y="566"/>
      <point x="441" y="531"/>
      <point x="441" y="441" type="curve" smooth="yes"/>
      <point x="441" y="400"/>
      <point x="432" y="361"/>
      <point x="403" y="361" type="curve" smooth="yes"/>
      <point x="385" y="361"/>
      <point x="374" y="375"/>
      <point x="374" y="402" type="curve"/>
      <point x="270" y="389" type="line"/>
      <point x="270" y="270"/>
      <point x="322" y="200"/>
      <point x="441" y="200" type="curve" smooth="yes"/>
      <point x="552" y="200"/>
      <point x="628" y="299"/>
      <point x="628" y="443" type="curve" smooth="yes"/>
      <point x="628" y="612"/>
      <point x="523" y="726"/>
      <point x="335" y="726" type="curve" smooth="yes"/>
      <point x="160" y="726"/>
      <point x="59" y="627"/>
      <point x="59" y="456" type="curve" smooth="yes"/>
    </contour>
  </outline>
</glyph>
<glyph name="uni1599" format="2">
  <advance width="677"/>
  <unicode hex="1599"/>
  <note>
uni1599
</note>
  <outline>
    <contour>
      <point x="342" y="-12" type="curve" smooth="yes"/>
      <point x="517" y="-12"/>
      <point x="618" y="87"/>
      <point x="618" y="258" type="curve" smooth="yes"/>
      <point x="618" y="714" type="line"/>
      <point x="428" y="714" type="line"/>
      <point x="428" y="258" type="line" smooth="yes"/>
      <point x="428" y="186"/>
      <point x="393" y="148"/>
      <point x="334" y="148" type="curve" smooth="yes"/>
      <point x="278" y="148"/>
      <point x="236" y="183"/>
      <point x="236" y="273" type="curve" smooth="yes"/>
      <point x="236" y="314"/>
      <point x="245" y="353"/>
      <point x="274" y="353" type="curve" smooth="yes"/>
      <point x="292" y="353"/>
      <point x="303" y="339"/>
      <point x="303" y="312" type="curve"/>
      <point x="407" y="325" type="line"/>
      <point x="407" y="444"/>
      <point x="355" y="514"/>
      <point x="236" y="514" type="curve" smooth="yes"/>
      <point x="125" y="514"/>
      <point x="49" y="415"/>
      <point x="49" y="271" type="curve" smooth="yes"/>
      <point x="49" y="102"/>
      <point x="154" y="-12"/>
    </contour>
  </outline>
</glyph>
<glyph name="uni159A" format="2">
  <advance width="677"/>
  <unicode hex="159A"/>
  <note>
uni159A
</note>
  <outline>
    <contour>
      <point x="335" y="-12" type="curve" smooth="yes"/>
      <point x="523" y="-12"/>
      <point x="628" y="101"/>
      <point x="628" y="273" type="curve" smooth="yes"/>
      <point x="628" y="415"/>
      <point x="556" y="514"/>
      <point x="432" y="514" type="curve" smooth="yes"/>
      <point x="327" y="514"/>
      <point x="270" y="444"/>
      <point x="270" y="325" type="curve"/>
      <point x="374" y="312" type="line"/>
      <point x="374" y="339"/>
      <point x="385" y="353"/>
      <point x="403" y="353" type="curve" smooth="yes"/>
      <point x="432" y="353"/>
      <point x="441" y="314"/>
      <point x="441" y="273" type="curve" smooth="yes"/>
      <point x="441" y="183"/>
      <point x="399" y="148"/>
      <point x="343" y="148" type="curve" smooth="yes"/>
      <point x="284" y="148"/>
      <point x="249" y="186"/>
      <point x="249" y="258" type="curve" smooth="yes"/>
      <point x="249" y="714" type="line"/>
      <point x="59" y="714" type="line"/>
      <point x="59" y="258" type="line" smooth="yes"/>
      <point x="59" y="87"/>
      <point x="160" y="-12"/>
    </contour>
  </outline>
</glyph>
<glyph name="uni159B" format="2">
  <advance width="931"/>
  <unicode hex="159B"/>
  <note>
uni159B
</note>
  <outline>
    <contour>
      <point x="613" y="-12" type="curve" smooth="yes"/>
      <point x="772" y="-12"/>
      <point x="882" y="91"/>
      <point x="882" y="253" type="curve" smooth="yes"/>
      <point x="882" y="418"/>
      <point x="768" y="516"/>
      <point x="601" y="516" type="curve" smooth="yes"/>
      <point x="39" y="516" type="line"/>
      <point x="39" y="360" type="line"/>
      <point x="357" y="360" type="line"/>
      <point x="345" y="328"/>
      <point x="339" y="287"/>
      <point x="339" y="250" type="curve" smooth="yes"/>
      <point x="339" y="89"/>
      <point x="456" y="-12"/>
    </contour>
    <contour>
      <point x="612" y="141" type="curve" smooth="yes"/>
      <point x="555" y="141"/>
      <point x="505" y="179"/>
      <point x="505" y="251" type="curve" smooth="yes"/>
      <point x="505" y="316"/>
      <point x="545" y="365"/>
      <point x="610" y="365" type="curve" smooth="yes"/>
      <point x="670" y="365"/>
      <point x="716" y="323"/>
      <point x="716" y="253" type="curve" smooth="yes"/>
      <point x="716" y="186"/>
      <point x="674" y="141"/>
    </contour>
    <contour>
      <point x="39" y="558" type="line"/>
      <point x="854" y="558" type="line"/>
      <point x="854" y="714" type="line"/>
      <point x="39" y="714" type="line"/>
    </contour>
  </outline>
</glyph>
<glyph name="uni159C" format="2">
  <advance width="931"/>
  <unicode hex="159C"/>
  <note>
uni159C
</note>
  <outline>
    <contour>
      <point x="318" y="-12" type="curve" smooth="yes"/>
      <point x="475" y="-12"/>
      <point x="592" y="89"/>
      <point x="592" y="250" type="curve" smooth="yes"/>
      <point x="592" y="287"/>
      <point x="586" y="328"/>
      <point x="574" y="360" type="curve"/>
      <point x="892" y="360" type="line"/>
      <point x="892" y="516" type="line"/>
      <point x="330" y="516" type="line" smooth="yes"/>
      <point x="163" y="516"/>
      <point x="49" y="418"/>
      <point x="49" y="253" type="curve" smooth="yes"/>
      <point x="49" y="91"/>
      <point x="159" y="-12"/>
    </contour>
    <contour>
      <point x="319" y="141" type="curve" smooth="yes"/>
      <point x="257" y="141"/>
      <point x="215" y="186"/>
      <point x="215" y="253" type="curve" smooth="yes"/>
      <point x="215" y="323"/>
      <point x="261" y="365"/>
      <point x="321" y="365" type="curve" smooth="yes"/>
      <point x="386" y="365"/>
      <point x="426" y="316"/>
      <point x="426" y="251" type="curve" smooth="yes"/>
      <point x="426" y="179"/>
      <point x="376" y="141"/>
    </contour>
    <contour>
      <point x="77" y="558" type="line"/>
      <point x="892" y="558" type="line"/>
      <point x="892" y="714" type="line"/>
      <point x="77" y="714" type="line"/>
    </contour>
  </outline>
</glyph>
<glyph name="uni159D" format="2">
  <advance width="931"/>
  <unicode hex="159D"/>
  <note>
uni159D
</note>
  <outline>
    <contour>
      <point x="39" y="0" type="line"/>
      <point x="601" y="0" type="line" smooth="yes"/>
      <point x="768" y="0"/>
      <point x="882" y="98"/>
      <point x="882" y="263" type="curve" smooth="yes"/>
      <point x="882" y="425"/>
      <point x="772" y="528"/>
      <point x="613" y="528" type="curve" smooth="yes"/>
      <point x="456" y="528"/>
      <point x="339" y="427"/>
      <point x="339" y="266" type="curve" smooth="yes"/>
      <point x="339" y="229"/>
      <point x="345" y="188"/>
      <point x="357" y="156" type="curve"/>
      <point x="39" y="156" type="line"/>
    </contour>
    <contour>
      <point x="610" y="151" type="curve" smooth="yes"/>
      <point x="545" y="151"/>
      <point x="505" y="200"/>
      <point x="505" y="265" type="curve" smooth="yes"/>
      <point x="505" y="337"/>
      <point x="555" y="375"/>
      <point x="612" y="375" type="curve" smooth="yes"/>
      <point x="674" y="375"/>
      <point x="716" y="330"/>
      <point x="716" y="263" type="curve" smooth="yes"/>
      <point x="716" y="193"/>
      <point x="670" y="151"/>
    </contour>
    <contour>
      <point x="39" y="558" type="line"/>
      <point x="854" y="558" type="line"/>
      <point x="854" y="714" type="line"/>
      <point x="39" y="714" type="line"/>
    </contour>
  </outline>
</glyph>
<glyph name="uni159E" format="2">
  <advance width="931"/>
  <unicode hex="159E"/>
  <note>
uni159E
</note>
  <outline>
    <contour>
      <point x="330" y="0" type="curve" smooth="yes"/>
      <point x="892" y="0" type="line"/>
      <point x="892" y="156" type="line"/>
      <point x="574" y="156" type="line"/>
      <point x="586" y="188"/>
      <point x="592" y="229"/>
      <point x="592" y="266" type="curve" smooth="yes"/>
      <point x="592" y="427"/>
      <point x="475" y="528"/>
      <point x="318" y="528" type="curve" smooth="yes"/>
      <point x="159" y="528"/>
      <point x="49" y="425"/>
      <point x="49" y="263" type="curve" smooth="yes"/>
      <point x="49" y="98"/>
      <point x="163" y="0"/>
    </contour>
    <contour>
      <point x="321" y="151" type="curve" smooth="yes"/>
      <point x="261" y="151"/>
      <point x="215" y="193"/>
      <point x="215" y="263" type="curve" smooth="yes"/>
      <point x="215" y="330"/>
      <point x="257" y="375"/>
      <point x="319" y="375" type="curve" smooth="yes"/>
      <point x="376" y="375"/>
      <point x="426" y="337"/>
      <point x="426" y="265" type="curve" smooth="yes"/>
      <point x="426" y="200"/>
      <point x="386" y="151"/>
    </contour>
    <contour>
      <point x="77" y="558" type="line"/>
      <point x="892" y="558" type="line"/>
      <point x="892" y="714" type="line"/>
      <point x="77" y="714" type="line"/>
    </contour>
  </outline>
</glyph>
<glyph name="uni159F" format="2">
  <advance width="614"/>
  <unicode hex="159F"/>
  <note>
uni159F
</note>
  <outline>
    <contour>
      <point x="211" y="365" type="curve" smooth="yes"/>
      <point x="585" y="365" type="line"/>
      <point x="585" y="470" type="line"/>
      <point x="378" y="470" type="line"/>
      <point x="389" y="493"/>
      <point x="394" y="513"/>
      <point x="394" y="540" type="curve" smooth="yes"/>
      <point x="394" y="623"/>
      <point x="339" y="711"/>
      <point x="211" y="711" type="curve" smooth="yes"/>
      <point x="83" y="711"/>
      <point x="29" y="623"/>
      <point x="29" y="539" type="curve" smooth="yes"/>
      <point x="29" y="450"/>
      <point x="83" y="365"/>
    </contour>
    <contour>
      <point x="210" y="468" type="curve" smooth="yes"/>
      <point x="167" y="468"/>
      <point x="147" y="499"/>
      <point x="147" y="537" type="curve" smooth="yes"/>
      <point x="147" y="575"/>
      <point x="167" y="605"/>
      <point x="210" y="605" type="curve" smooth="yes"/>
      <point x="253" y="605"/>
      <point x="275" y="576"/>
      <point x="275" y="537" type="curve" smooth="yes"/>
      <point x="275" y="500"/>
      <point x="254" y="468"/>
    </contour>
    <contour>
      <point x="46" y="742" type="line"/>
      <point x="585" y="742" type="line"/>
      <point x="585" y="847" type="line"/>
      <point x="46" y="847" type="line"/>
    </contour>
  </outline>
</glyph>
<glyph name="uni15A4" format="2">
  <advance width="923"/>
  <unicode hex="15A4"/>
  <note>
uni15A4
</note>
  <outline>
    <contour>
      <point x="322" y="0" type="curve" smooth="yes"/>
      <point x="884" y="0" type="line"/>
      <point x="884" y="156" type="line"/>
      <point x="320" y="156" type="line" smooth="yes"/>
      <point x="256" y="156"/>
      <point x="210" y="185"/>
      <point x="210" y="258" type="curve" smooth="yes"/>
      <point x="210" y="328"/>
      <point x="253" y="361"/>
      <point x="317" y="361" type="curve" smooth="yes"/>
      <point x="459" y="361" type="line"/>
      <point x="459" y="517" type="line"/>
      <point x="322" y="517" type="line" smooth="yes"/>
      <point x="130" y="517"/>
      <point x="49" y="389"/>
      <point x="49" y="259" type="curve" smooth="yes"/>
      <point x="49" y="129"/>
      <point x="130" y="0"/>
    </contour>
    <contour>
      <point x="684" y="-267" type="line"/>
      <point x="884" y="0" type="line"/>
      <point x="729" y="54" type="line"/>
      <point x="560" y="-173" type="line"/>
    </contour>
  </outline>
</glyph>
<glyph name="uni15A6" format="2">
  <advance width="575"/>
  <unicode hex="15A6"/>
  <note>
uni15A6
</note>
  <outline>
    <contour>
      <point x="212" y="361" type="curve" smooth="yes"/>
      <point x="546" y="361" type="line"/>
      <point x="546" y="469" type="line"/>
      <point x="210" y="469" type="line" smooth="yes"/>
      <point x="168" y="469"/>
      <point x="147" y="499"/>
      <point x="147" y="537" type="curve" smooth="yes"/>
      <point x="147" y="574"/>
      <point x="168" y="608"/>
      <point x="210" y="608" type="curve" smooth="yes"/>
      <point x="275" y="608" type="line"/>
      <point x="275" y="714" type="line"/>
      <point x="212" y="714" type="line" smooth="yes"/>
      <point x="83" y="714"/>
      <point x="29" y="625"/>
      <point x="29" y="539" type="curve" smooth="yes"/>
      <point x="29" y="450"/>
      <point x="83" y="361"/>
    </contour>
    <contour>
      <point x="424" y="198" type="line"/>
      <point x="546" y="361" type="line"/>
      <point x="451" y="394" type="line"/>
      <point x="348" y="255" type="line"/>
    </contour>
  </outline>
</glyph>
<glyph name="uni15A7" format="2">
  <advance width="681"/>
  <unicode hex="15A7"/>
  <note>
uni15A7
</note>
  <outline>
    <contour>
      <point x="376" y="0" type="line"/>
      <point x="569" y="0" type="line"/>
      <point x="569" y="376" type="line"/>
      <point x="321" y="376" type="line"/>
      <point x="499" y="628" type="line"/>
      <point x="354" y="726" type="line"/>
      <point x="29" y="265" type="line"/>
      <point x="29" y="220" type="line"/>
      <point x="376" y="220" type="line"/>
    </contour>
    <contour>
      <point x="225" y="73" type="line"/>
      <point x="642" y="73" type="line"/>
      <point x="642" y="189" type="line"/>
      <point x="225" y="189" type="line"/>
    </contour>
  </outline>
</glyph>
<glyph name="uni15A8" format="2">
  <advance width="681"/>
  <unicode hex="15A8"/>
  <note>
uni15A8
</note>
  <outline>
    <contour>
      <point x="112" y="0" type="line"/>
      <point x="305" y="0" type="line"/>
      <point x="305" y="220" type="line"/>
      <point x="652" y="220" type="line"/>
      <point x="652" y="265" type="line"/>
      <point x="327" y="726" type="line"/>
      <point x="182" y="628" type="line"/>
      <point x="360" y="376" type="line"/>
      <point x="112" y="376" type="line"/>
    </contour>
    <contour>
      <point x="39" y="73" type="line"/>
      <point x="456" y="73" type="line"/>
      <point x="456" y="189" type="line"/>
      <point x="39" y="189" type="line"/>
    </contour>
  </outline>
</glyph>
<glyph name="uni15AA" format="2">
  <advance width="681"/>
  <unicode hex="15AA"/>
  <note>
uni15AA
</note>
  <outline>
    <contour>
      <point x="354" y="-12" type="line"/>
      <point x="499" y="86" type="line"/>
      <point x="321" y="338" type="line"/>
      <point x="569" y="338" type="line"/>
      <point x="569" y="714" type="line"/>
      <point x="376" y="714" type="line"/>
      <point x="376" y="494" type="line"/>
      <point x="29" y="494" type="line"/>
      <point x="29" y="449" type="line"/>
    </contour>
    <contour>
      <point x="225" y="525" type="line"/>
      <point x="642" y="525" type="line"/>
      <point x="642" y="641" type="line"/>
      <point x="225" y="641" type="line"/>
    </contour>
  </outline>
</glyph>
<glyph name="uni15AC" format="2">
  <advance width="681"/>
  <unicode hex="15AC"/>
  <note>
uni15AC
</note>
  <outline>
    <contour>
      <point x="327" y="-12" type="line"/>
      <point x="652" y="449" type="line"/>
      <point x="652" y="494" type="line"/>
      <point x="305" y="494" type="line"/>
      <point x="305" y="714" type="line"/>
      <point x="112" y="714" type="line"/>
      <point x="112" y="338" type="line"/>
      <point x="360" y="338" type="line"/>
      <point x="182" y="86" type="line"/>
    </contour>
    <contour>
      <point x="39" y="525" type="line"/>
      <point x="456" y="525" type="line"/>
      <point x="456" y="641" type="line"/>
      <point x="39" y="641" type="line"/>
    </contour>
  </outline>
</glyph>
<glyph name="uni15AE" format="2">
  <advance width="434"/>
  <unicode hex="15AE"/>
  <note>
uni15AE
</note>
  <outline>
    <contour>
      <point x="206" y="279" type="line"/>
      <point x="405" y="561" type="line"/>
      <point x="405" y="589" type="line"/>
      <point x="193" y="589" type="line"/>
      <point x="193" y="714" type="line"/>
      <point x="74" y="714" type="line"/>
      <point x="74" y="480" type="line"/>
      <point x="217" y="480" type="line"/>
      <point x="117" y="340" type="line"/>
    </contour>
    <contour>
      <point x="29" y="609" type="line"/>
      <point x="285" y="609" type="line"/>
      <point x="285" y="680" type="line"/>
      <point x="29" y="680" type="line"/>
    </contour>
  </outline>
</glyph>
<glyph name="uni15AF" format="2">
  <advance width="668"/>
  <unicode hex="15AF"/>
  <note>
uni15AF
</note>
  <outline>
    <contour>
      <point x="373" y="-12" type="curve" smooth="yes"/>
      <point x="543" y="-12"/>
      <point x="619" y="120"/>
      <point x="619" y="253" type="curve" smooth="yes"/>
      <point x="619" y="394"/>
      <point x="533" y="514"/>
      <point x="364" y="514" type="curve" smooth="yes"/>
      <point x="313" y="514"/>
      <point x="269" y="503"/>
      <point x="249" y="493" type="curve"/>
      <point x="249" y="714" type="line"/>
      <point x="59" y="714" type="line"/>
      <point x="59" y="0" type="line"/>
      <point x="235" y="0" type="line"/>
      <point x="235" y="25" type="line"/>
      <point x="274" y="2"/>
      <point x="318" y="-12"/>
    </contour>
    <contour>
      <point x="342" y="149" type="curve" smooth="yes"/>
      <point x="287" y="149"/>
      <point x="250" y="187"/>
      <point x="250" y="240" type="curve" smooth="yes"/>
      <point x="250" y="271" type="line" smooth="yes"/>
      <point x="250" y="302"/>
      <point x="276" y="353"/>
      <point x="339" y="353" type="curve" smooth="yes"/>
      <point x="398" y="353"/>
      <point x="428" y="309"/>
      <point x="428" y="249" type="curve" smooth="yes"/>
      <point x="428" y="188"/>
      <point x="398" y="149"/>
    </contour>
  </outline>
</glyph>
<glyph name="uni15B0" format="2">
  <advance width="623"/>
  <unicode hex="15B0"/>
  <note>
uni15B0
</note>
  <outline>
    <contour>
      <point x="59" y="0" type="line"/>
      <point x="249" y="0" type="line"/>
      <point x="249" y="392" type="line"/>
      <point x="271" y="371"/>
      <point x="331" y="349"/>
      <point x="389" y="349" type="curve" smooth="yes"/>
      <point x="498" y="349"/>
      <point x="574" y="427"/>
      <point x="574" y="538" type="curve" smooth="yes"/>
      <point x="574" y="655"/>
      <point x="502" y="726"/>
      <point x="392" y="726" type="curve" smooth="yes"/>
      <point x="340" y="726"/>
      <point x="285" y="711"/>
      <point x="249" y="679" type="curve"/>
      <point x="249" y="714" type="line"/>
      <point x="59" y="714" type="line"/>
    </contour>
  </outline>
</glyph>
<glyph name="uni15B1" format="2">
  <advance width="623"/>
  <unicode hex="15B1"/>
  <note>
uni15B1
</note>
  <outline>
    <contour>
      <point x="232" y="-12" type="curve" smooth="yes"/>
      <point x="283" y="-12"/>
      <point x="338" y="3"/>
      <point x="374" y="35" type="curve"/>
      <point x="374" y="0" type="line"/>
      <point x="564" y="0" type="line"/>
      <point x="564" y="714" type="line"/>
      <point x="374" y="714" type="line"/>
      <point x="374" y="316" type="line"/>
      <point x="346" y="342"/>
      <point x="295" y="365"/>
      <point x="234" y="365" type="curve" smooth="yes"/>
      <point x="125" y="365"/>
      <point x="49" y="289"/>
      <point x="49" y="173" type="curve" smooth="yes"/>
      <point x="49" y="60"/>
      <point x="121" y="-12"/>
    </contour>
  </outline>
</glyph>
<glyph name="uni15B2" format="2">
  <advance width="623"/>
  <unicode hex="15B2"/>
  <note>
uni15B2
</note>
  <outline>
    <contour>
      <point x="391" y="-12" type="curve" smooth="yes"/>
      <point x="502" y="-12"/>
      <point x="574" y="60"/>
      <point x="574" y="173" type="curve" smooth="yes"/>
      <point x="574" y="289"/>
      <point x="498" y="365"/>
      <point x="389" y="365" type="curve" smooth="yes"/>
      <point x="328" y="365"/>
      <point x="277" y="342"/>
      <point x="249" y="316" type="curve"/>
      <point x="249" y="714" type="line"/>
      <point x="59" y="714" type="line"/>
      <point x="59" y="0" type="line"/>
      <point x="249" y="0" type="line"/>
      <point x="249" y="35" type="line"/>
      <point x="285" y="3"/>
      <point x="340" y="-12"/>
    </contour>
  </outline>
</glyph>
<glyph name="uni15B3" format="2">
  <advance width="623"/>
  <unicode hex="15B3"/>
  <note>
uni15B3
</note>
  <outline>
    <contour>
      <point x="374" y="0" type="line"/>
      <point x="564" y="0" type="line"/>
      <point x="564" y="714" type="line"/>
      <point x="374" y="714" type="line"/>
      <point x="374" y="679" type="line"/>
      <point x="338" y="711"/>
      <point x="283" y="726"/>
      <point x="231" y="726" type="curve" smooth="yes"/>
      <point x="121" y="726"/>
      <point x="49" y="655"/>
      <point x="49" y="538" type="curve" smooth="yes"/>
      <point x="49" y="427"/>
      <point x="125" y="349"/>
      <point x="234" y="349" type="curve" smooth="yes"/>
      <point x="292" y="349"/>
      <point x="352" y="371"/>
      <point x="374" y="392" type="curve"/>
    </contour>
  </outline>
</glyph>
<glyph name="uni15B4" format="2">
  <advance width="566"/>
  <unicode hex="15B4"/>
  <note>
uni15B4
</note>
  <outline>
    <contour>
      <point x="59" y="0" type="line"/>
      <point x="249" y="0" type="line"/>
      <point x="249" y="268" type="line"/>
      <point x="527" y="268" type="line"/>
      <point x="527" y="424" type="line"/>
      <point x="249" y="424" type="line"/>
      <point x="249" y="558" type="line"/>
      <point x="527" y="558" type="line"/>
      <point x="527" y="714" type="line"/>
      <point x="59" y="714" type="line"/>
    </contour>
  </outline>
</glyph>
<glyph name="uni15B5" format="2">
  <advance width="566"/>
  <unicode hex="15B5"/>
  <note>
uni15B5
</note>
  <outline>
    <contour>
      <point x="39" y="0" type="line"/>
      <point x="507" y="0" type="line"/>
      <point x="507" y="714" type="line"/>
      <point x="317" y="714" type="line"/>
      <point x="317" y="446" type="line"/>
      <point x="39" y="446" type="line"/>
      <point x="39" y="290" type="line"/>
      <point x="317" y="290" type="line"/>
      <point x="317" y="156" type="line"/>
      <point x="39" y="156" type="line"/>
    </contour>
  </outline>
</glyph>
<glyph name="uni15B6" format="2">
  <advance width="566"/>
  <unicode hex="15B6"/>
  <note>
uni15B6
</note>
  <outline>
    <contour>
      <point x="59" y="0" type="line"/>
      <point x="527" y="0" type="line"/>
      <point x="527" y="156" type="line"/>
      <point x="249" y="156" type="line"/>
      <point x="249" y="290" type="line"/>
      <point x="527" y="290" type="line"/>
      <point x="527" y="446" type="line"/>
      <point x="249" y="446" type="line"/>
      <point x="249" y="714" type="line"/>
      <point x="59" y="714" type="line"/>
    </contour>
  </outline>
</glyph>
<glyph name="uni15B7" format="2">
  <advance width="566"/>
  <unicode hex="15B7"/>
  <note>
uni15B7
</note>
  <outline>
    <contour>
      <point x="317" y="0" type="line"/>
      <point x="507" y="0" type="line"/>
      <point x="507" y="714" type="line"/>
      <point x="39" y="714" type="line"/>
      <point x="39" y="558" type="line"/>
      <point x="317" y="558" type="line"/>
      <point x="317" y="424" type="line"/>
      <point x="39" y="424" type="line"/>
      <point x="39" y="268" type="line"/>
      <point x="317" y="268" type="line"/>
    </contour>
  </outline>
</glyph>
<glyph name="uni15B8" format="2">
  <advance width="768"/>
  <unicode hex="15B8"/>
  <note>
uni15B8
</note>
  <outline>
    <contour>
      <point x="491" y="362" type="curve" smooth="yes"/>
      <point x="643" y="362"/>
      <point x="729" y="458"/>
      <point x="729" y="590" type="curve" smooth="yes"/>
      <point x="729" y="714" type="line"/>
      <point x="543" y="714" type="line"/>
      <point x="543" y="600" type="line" smooth="yes"/>
      <point x="543" y="551"/>
      <point x="531" y="522"/>
      <point x="492" y="522" type="curve" smooth="yes"/>
      <point x="453" y="522"/>
      <point x="441" y="551"/>
      <point x="441" y="601" type="curve" smooth="yes"/>
      <point x="441" y="714" type="line"/>
      <point x="255" y="714" type="line"/>
      <point x="255" y="590" type="line" smooth="yes"/>
      <point x="255" y="458"/>
      <point x="339" y="362"/>
    </contour>
    <contour>
      <point x="59" y="0" type="line"/>
      <point x="249" y="0" type="line"/>
      <point x="249" y="558" type="line"/>
      <point x="349" y="558" type="line"/>
      <point x="349" y="714" type="line"/>
      <point x="59" y="714" type="line"/>
    </contour>
  </outline>
</glyph>
<glyph name="uni15B9" format="2">
  <advance width="768"/>
  <unicode hex="15B9"/>
  <note>
uni15B9
</note>
  <outline>
    <contour>
      <point x="39" y="0" type="line"/>
      <point x="225" y="0" type="line"/>
      <point x="225" y="114" type="line" smooth="yes"/>
      <point x="225" y="163"/>
      <point x="237" y="192"/>
      <point x="276" y="192" type="curve" smooth="yes"/>
      <point x="315" y="192"/>
      <point x="327" y="163"/>
      <point x="327" y="113" type="curve" smooth="yes"/>
      <point x="327" y="0" type="line"/>
      <point x="513" y="0" type="line"/>
      <point x="513" y="124" type="line" smooth="yes"/>
      <point x="513" y="256"/>
      <point x="429" y="352"/>
      <point x="277" y="352" type="curve" smooth="yes"/>
      <point x="125" y="352"/>
      <point x="39" y="256"/>
      <point x="39" y="124" type="curve" smooth="yes"/>
    </contour>
    <contour>
      <point x="419" y="0" type="line"/>
      <point x="709" y="0" type="line"/>
      <point x="709" y="714" type="line"/>
      <point x="519" y="714" type="line"/>
      <point x="519" y="156" type="line"/>
      <point x="419" y="156" type="line"/>
    </contour>
  </outline>
</glyph>
<glyph name="uni15BA" format="2">
  <advance width="768"/>
  <unicode hex="15BA"/>
  <note>
uni15BA
</note>
  <outline>
    <contour>
      <point x="255" y="0" type="line"/>
      <point x="441" y="0" type="line"/>
      <point x="441" y="113" type="line" smooth="yes"/>
      <point x="441" y="163"/>
      <point x="453" y="192"/>
      <point x="492" y="192" type="curve" smooth="yes"/>
      <point x="531" y="192"/>
      <point x="543" y="163"/>
      <point x="543" y="114" type="curve" smooth="yes"/>
      <point x="543" y="0" type="line"/>
      <point x="729" y="0" type="line"/>
      <point x="729" y="124" type="line" smooth="yes"/>
      <point x="729" y="256"/>
      <point x="643" y="352"/>
      <point x="491" y="352" type="curve" smooth="yes"/>
      <point x="339" y="352"/>
      <point x="255" y="256"/>
      <point x="255" y="124" type="curve" smooth="yes"/>
    </contour>
    <contour>
      <point x="59" y="0" type="line"/>
      <point x="349" y="0" type="line"/>
      <point x="349" y="156" type="line"/>
      <point x="249" y="156" type="line"/>
      <point x="249" y="714" type="line"/>
      <point x="59" y="714" type="line"/>
    </contour>
  </outline>
</glyph>
<glyph name="uni15BB" format="2">
  <advance width="768"/>
  <unicode hex="15BB"/>
  <note>
uni15BB
</note>
  <outline>
    <contour>
      <point x="277" y="362" type="curve" smooth="yes"/>
      <point x="429" y="362"/>
      <point x="513" y="458"/>
      <point x="513" y="590" type="curve" smooth="yes"/>
      <point x="513" y="714" type="line"/>
      <point x="327" y="714" type="line"/>
      <point x="327" y="601" type="line" smooth="yes"/>
      <point x="327" y="551"/>
      <point x="315" y="522"/>
      <point x="276" y="522" type="curve" smooth="yes"/>
      <point x="237" y="522"/>
      <point x="225" y="551"/>
      <point x="225" y="600" type="curve" smooth="yes"/>
      <point x="225" y="714" type="line"/>
      <point x="39" y="714" type="line"/>
      <point x="39" y="590" type="line" smooth="yes"/>
      <point x="39" y="458"/>
      <point x="125" y="362"/>
    </contour>
    <contour>
      <point x="519" y="0" type="line"/>
      <point x="709" y="0" type="line"/>
      <point x="709" y="714" type="line"/>
      <point x="419" y="714" type="line"/>
      <point x="419" y="558" type="line"/>
      <point x="519" y="558" type="line"/>
    </contour>
  </outline>
</glyph>
<glyph name="uni15BC" format="2">
  <advance width="757"/>
  <unicode hex="15BC"/>
  <note>
uni15BC
</note>
  <outline>
    <contour>
      <point x="59" y="0" type="line"/>
      <point x="250" y="0" type="line"/>
      <point x="250" y="459" type="line"/>
      <point x="390" y="210" type="line"/>
      <point x="446" y="210" type="line"/>
      <point x="728" y="714" type="line"/>
      <point x="540" y="714" type="line"/>
      <point x="418" y="499" type="line"/>
      <point x="295" y="714" type="line"/>
      <point x="59" y="714" type="line"/>
    </contour>
  </outline>
</glyph>
<glyph name="uni15BD" format="2">
  <advance width="757"/>
  <unicode hex="15BD"/>
  <note>
uni15BD
</note>
  <outline>
    <contour>
      <point x="29" y="0" type="line"/>
      <point x="217" y="0" type="line"/>
      <point x="339" y="215" type="line"/>
      <point x="462" y="0" type="line"/>
      <point x="698" y="0" type="line"/>
      <point x="698" y="714" type="line"/>
      <point x="507" y="714" type="line"/>
      <point x="507" y="255" type="line"/>
      <point x="367" y="504" type="line"/>
      <point x="311" y="504" type="line"/>
    </contour>
  </outline>
</glyph>
<glyph name="uni15BE" format="2">
  <advance width="757"/>
  <unicode hex="15BE"/>
  <note>
uni15BE
</note>
  <outline>
    <contour>
      <point x="59" y="0" type="line"/>
      <point x="295" y="0" type="line"/>
      <point x="418" y="215" type="line"/>
      <point x="540" y="0" type="line"/>
      <point x="728" y="0" type="line"/>
      <point x="446" y="504" type="line"/>
      <point x="390" y="504" type="line"/>
      <point x="250" y="255" type="line"/>
      <point x="250" y="714" type="line"/>
      <point x="59" y="714" type="line"/>
    </contour>
  </outline>
</glyph>
<glyph name="uni15BF" format="2">
  <advance width="757"/>
  <unicode hex="15BF"/>
  <note>
uni15BF
</note>
  <outline>
    <contour>
      <point x="507" y="0" type="line"/>
      <point x="698" y="0" type="line"/>
      <point x="698" y="714" type="line"/>
      <point x="462" y="714" type="line"/>
      <point x="339" y="499" type="line"/>
      <point x="217" y="714" type="line"/>
      <point x="29" y="714" type="line"/>
      <point x="311" y="210" type="line"/>
      <point x="367" y="210" type="line"/>
      <point x="507" y="459" type="line"/>
    </contour>
  </outline>
</glyph>
<glyph name="uni15C0" format="2">
	<advance width="864"/>
	<unicode hex="15C0"/>
	<note>
		uni15C0
	</note>
	<outline>
		<contour>
			<point x="525" y="263" type="curve" smooth="yes"/>
			<point x="591" y="0" type="line"/>
			<point x="806" y="0" type="line"/>
			<point x="806" y="714" type="line"/>
			<point x="613" y="714" type="line"/>
			<point x="613" y="417" type="line"/>
			<point x="598" y="472" type="line" smooth="yes"/>
			<point x="551" y="645"/>
			<point x="458" y="726"/>
			<point x="308" y="726" type="curve" smooth="yes"/>
			<point x="142" y="726"/>
			<point x="54" y="633"/>
			<point x="54" y="459" type="curve" smooth="yes"/>
			<point x="54" y="373"/>
			<point x="83" y="275"/>
			<point x="124" y="226" type="curve"/>
			<point x="291" y="271" type="line"/>
			<point x="291" y="272"/>
			<point x="246" y="356"/>
			<point x="246" y="451" type="curve" smooth="yes"/>
			<point x="246" y="524"/>
			<point x="277" y="563"/>
			<point x="336" y="563" type="curve" smooth="yes"/>
			<point x="423" y="563"/>
			<point x="467" y="493"/>
		</contour>
	</outline>
</glyph>
<glyph name="uni15C1" format="2">
	<advance width="864"/>
	<unicode hex="15C1"/>
	<note>
		uni15C1
	</note>
	<outline>
		<contour>
			<point x="339" y="263" type="line" smooth="yes"/>
			<point x="397" y="493"/>
			<point x="441" y="563"/>
			<point x="528" y="563" type="curve" smooth="yes"/>
			<point x="587" y="563"/>
			<point x="618" y="524"/>
			<point x="618" y="451" type="curve" smooth="yes"/>
			<point x="618" y="356"/>
			<point x="573" y="272"/>
			<point x="573" y="271" type="curve"/>
			<point x="740" y="226" type="line"/>
			<point x="781" y="275"/>
			<point x="810" y="373"/>
			<point x="810" y="459" type="curve" smooth="yes"/>
			<point x="810" y="633"/>
			<point x="722" y="726"/>
			<point x="556" y="726" type="curve" smooth="yes"/>
			<point x="406" y="726"/>
			<point x="313" y="645"/>
			<point x="266" y="472" type="curve" smooth="yes"/>
			<point x="251" y="417" type="line"/>
			<point x="251" y="714" type="line"/>
			<point x="58" y="714" type="line"/>
			<point x="58" y="0" type="line"/>
			<point x="273" y="0" type="line"/>
		</contour>
	</outline>
</glyph>
<glyph name="uni15C2" format="2">
	<advance width="864"/>
	<unicode hex="15C2"/>
	<note>
		uni15C2
	</note>
	<outline>
		<contour>
			<point x="525" y="451" type="line" smooth="yes"/>
			<point x="467" y="221"/>
			<point x="423" y="151"/>
			<point x="336" y="151" type="curve" smooth="yes"/>
			<point x="277" y="151"/>
			<point x="246" y="190"/>
			<point x="246" y="263" type="curve" smooth="yes"/>
			<point x="246" y="358"/>
			<point x="291" y="442"/>
			<point x="291" y="443" type="curve"/>
			<point x="124" y="488" type="line"/>
			<point x="83" y="439"/>
			<point x="54" y="341"/>
			<point x="54" y="255" type="curve" smooth="yes"/>
			<point x="54" y="81"/>
			<point x="142" y="-12"/>
			<point x="308" y="-12" type="curve" smooth="yes"/>
			<point x="458" y="-12"/>
			<point x="551" y="69"/>
			<point x="598" y="242" type="curve" smooth="yes"/>
			<point x="613" y="297" type="line"/>
			<point x="613" y="0" type="line"/>
			<point x="806" y="0" type="line"/>
			<point x="806" y="714" type="line"/>
			<point x="591" y="714" type="line"/>
		</contour>
	</outline>
</glyph>
<glyph name="uni15C3" format="2">
	<advance width="864"/>
	<unicode hex="15C3"/>
	<note>
		uni15C3
	</note>
	<outline>
		<contour>
			<point x="339" y="451" type="curve" smooth="yes"/>
			<point x="273" y="714" type="line"/>
			<point x="58" y="714" type="line"/>
			<point x="58" y="0" type="line"/>
			<point x="251" y="0" type="line"/>
			<point x="251" y="297" type="line"/>
			<point x="266" y="242" type="line" smooth="yes"/>
			<point x="313" y="69"/>
			<point x="406" y="-12"/>
			<point x="556" y="-12" type="curve" smooth="yes"/>
			<point x="722" y="-12"/>
			<point x="810" y="81"/>
			<point x="810" y="255" type="curve" smooth="yes"/>
			<point x="810" y="341"/>
			<point x="781" y="439"/>
			<point x="740" y="488" type="curve"/>
			<point x="573" y="443" type="line"/>
			<point x="573" y="442"/>
			<point x="618" y="358"/>
			<point x="618" y="263" type="curve" smooth="yes"/>
			<point x="618" y="190"/>
			<point x="587" y="151"/>
			<point x="528" y="151" type="curve" smooth="yes"/>
			<point x="441" y="151"/>
			<point x="397" y="221"/>
		</contour>
	</outline>
</glyph>
<glyph name="uni15C4" format="2">
	<advance width="856"/>
	<unicode hex="15C4"/>
	<note>
		uni15C4
	</note>
	<outline>
		<contour>
			<point x="428" y="275" type="line"/>
			<point x="208" y="714" type="line"/>
			<point x="39" y="714" type="line"/>
			<point x="39" y="669" type="line"/>
			<point x="405" y="-12" type="line"/>
			<point x="450" y="-12" type="line"/>
			<point x="817" y="669" type="line"/>
			<point x="817" y="714" type="line"/>
			<point x="648" y="714" type="line"/>
		</contour>
		<contour>
			<point x="599" y="446" type="line"/>
			<point x="623" y="542" type="line"/>
			<point x="231" y="542" type="line"/>
			<point x="261" y="446" type="line"/>
		</contour>
	</outline>
</glyph>
<glyph name="uni15C5" format="2">
  <advance width="836"/>
  <unicode hex="15C5"/>
  <note>
uni15C5
</note>
  <outline>
    <contour>
      <point x="39" y="0" type="line"/>
      <point x="208" y="0" type="line"/>
      <point x="418" y="427" type="line"/>
      <point x="628" y="0" type="line"/>
      <point x="797" y="0" type="line"/>
      <point x="797" y="45" type="line"/>
      <point x="440" y="726" type="line"/>
      <point x="395" y="726" type="line"/>
      <point x="39" y="45" type="line"/>
    </contour>
    <contour>
      <point x="235" y="123" type="line"/>
      <point x="599" y="123" type="line"/>
      <point x="599" y="277" type="line"/>
      <point x="235" y="277" type="line"/>
    </contour>
  </outline>
</glyph>
<glyph name="uni15C6" format="2">
  <advance width="733"/>
  <unicode hex="15C6"/>
  <note>
uni15C6
</note>
  <outline>
    <contour>
      <point x="40" y="-10" type="line"/>
      <point x="85" y="-10" type="line"/>
      <point x="704" y="336" type="line"/>
      <point x="704" y="381" type="line"/>
      <point x="85" y="725" type="line"/>
      <point x="40" y="725" type="line"/>
      <point x="40" y="556" type="line"/>
      <point x="405" y="358" type="line"/>
      <point x="40" y="160" type="line"/>
    </contour>
    <contour>
      <point x="129" y="164" type="line"/>
      <point x="289" y="164" type="line"/>
      <point x="289" y="550" type="line"/>
      <point x="129" y="550" type="line"/>
    </contour>
  </outline>
</glyph>
<glyph name="uni15CA" format="2">
	<advance width="856"/>
	<unicode hex="15CA"/>
	<note>
		uni15CA
	</note>
	<outline>
		<contour>
			<point x="428" y="275" type="line"/>
			<point x="208" y="714" type="line"/>
			<point x="39" y="714" type="line"/>
			<point x="39" y="669" type="line"/>
			<point x="405" y="-12" type="line"/>
			<point x="450" y="-12" type="line"/>
			<point x="817" y="669" type="line"/>
			<point x="817" y="714" type="line"/>
			<point x="648" y="714" type="line"/>
		</contour>
		<contour>
			<point x="659" y="545" type="line"/>
			<point x="683" y="641" type="line"/>
			<point x="201" y="641" type="line"/>
			<point x="231" y="545" type="line"/>
		</contour>
	</outline>
</glyph>
<glyph name="uni15CB" format="2">
  <advance width="836"/>
  <unicode hex="15CB"/>
  <note>
uni15CB
</note>
  <outline>
    <contour>
      <point x="39" y="1" type="line"/>
      <point x="208" y="1" type="line"/>
      <point x="418" y="428" type="line"/>
      <point x="628" y="0" type="line"/>
      <point x="797" y="0" type="line"/>
      <point x="797" y="46" type="line"/>
      <point x="440" y="727" type="line"/>
      <point x="395" y="727" type="line"/>
      <point x="39" y="46" type="line"/>
    </contour>
    <contour>
      <point x="201" y="56" type="line"/>
      <point x="637" y="56" type="line"/>
      <point x="637" y="210" type="line"/>
      <point x="201" y="210" type="line"/>
    </contour>
  </outline>
</glyph>
<glyph name="uni15CC" format="2">
  <advance width="733"/>
  <unicode hex="15CC"/>
  <note>
uni15CC
</note>
  <outline>
    <contour>
      <point x="40" y="-10" type="line"/>
      <point x="85" y="-10" type="line"/>
      <point x="704" y="336" type="line"/>
      <point x="704" y="381" type="line"/>
      <point x="85" y="725" type="line"/>
      <point x="40" y="725" type="line"/>
      <point x="40" y="556" type="line"/>
      <point x="405" y="358" type="line"/>
      <point x="40" y="160" type="line"/>
    </contour>
    <contour>
      <point x="89" y="164" type="line"/>
      <point x="239" y="164" type="line"/>
      <point x="239" y="553" type="line"/>
      <point x="89" y="553" type="line"/>
    </contour>
  </outline>
</glyph>
